<?xml version="1.0" encoding="UTF-8"?>
<svg version="1.1" xmlns="http://www.w3.org/2000/svg" width="512" height="512">
<path d="M0 0 C1.09307465 -0.00199402 2.18614929 -0.00398804 3.31234741 -0.00604248 C6.46631401 -0.00538954 9.61958887 0.01276713 12.7734375 0.0390625 C13.70560593 0.04147949 14.63777435 0.04389648 15.59819031 0.04638672 C34.04855748 0.3055068 34.04855748 0.3055068 39.625 5.375 C44.89910436 13.33115743 44.79144515 21.81537214 44.86328125 31.0546875 C44.8730751 32.08754883 44.88286896 33.12041016 44.89295959 34.18457031 C45.07113315 57.90260855 44.70131293 80.96977949 40.625 104.375 C40.31151611 106.20732178 40.31151611 106.20732178 39.99169922 108.07666016 C31.4470587 156.48348881 12.88210661 204.00770484 -15.375 244.375 C-15.76010742 244.92994141 -16.14521484 245.48488281 -16.54199219 246.05664062 C-22.1523155 254.12731983 -28.03992007 261.85328321 -34.375 269.375 C-34.79629684 269.88035782 -35.21759369 270.38571564 -35.6516571 270.90638733 C-42.8488599 279.53377195 -50.38961406 287.68172653 -58.37646484 295.58227539 C-60.1436071 297.33091224 -61.90236615 299.0876699 -63.66015625 300.84570312 C-69.39867709 306.56615947 -75.19680811 312.12624581 -81.375 317.375 C-82.98268373 318.82945517 -84.58739715 320.28720895 -86.1875 321.75 C-90.7256621 325.85830514 -95.43214126 329.71777573 -100.22265625 333.52734375 C-102.44634779 335.19488842 -102.44634779 335.19488842 -103.375 337.375 C-103.11266102 339.31992693 -102.78796505 341.25650628 -102.4375 343.1875 C-96.76132299 381.24898833 -108.71915688 419.73639337 -131.375 450.375 C-136.78074722 457.64552048 -142.80418683 464.3498323 -149.01660156 470.93310547 C-150.27752351 472.27153196 -151.52602439 473.62163065 -152.7734375 474.97265625 C-167.85186583 490.77745405 -187.9786625 503.99991275 -210.3125 504.8125 C-220.42752673 504.54455227 -229.85003325 502.0674897 -237.62109375 495.35546875 C-241.13553654 491.38704449 -242.32581264 487.43554701 -242.41015625 482.1875 C-241.5761823 475.78989163 -237.75764417 472.00331724 -233.63671875 467.28515625 C-226.43590954 458.01986634 -224.41821428 446.82947694 -225.375 435.375 C-227.98368198 422.70425896 -233.98566755 413.09896305 -243.1796875 404.1796875 C-244.2656572 403.10220749 -244.2656572 403.10220749 -245.37356567 402.00296021 C-247.6563805 399.74228557 -249.95278833 397.49603378 -252.25 395.25 C-253.81342656 393.70666723 -255.37593533 392.16240413 -256.9375 390.6171875 C-260.73947117 386.8589864 -264.55266282 383.11247974 -268.375 379.375 C-269.50379747 380.33417056 -270.63142171 381.29472195 -271.75854492 382.25585938 C-272.70065071 383.05799866 -272.70065071 383.05799866 -273.66178894 383.87634277 C-275.45843921 385.44798971 -277.08218538 387.10958662 -278.6875 388.875 C-287.77951908 398.04819783 -298.6122282 401.62580564 -311.25 401.8125 C-324.42615131 401.7134618 -334.72117707 397.56540787 -344.375 388.49609375 C-354.38238013 377.82011711 -357.07929084 365.37843236 -356.75 351.1875 C-355.86758999 335.15284949 -345.29899514 324.90335749 -334.375 314.375 C-338.26033304 309.74431317 -342.27147749 305.29959006 -346.515625 300.99609375 C-347.08271179 300.42093521 -347.64979858 299.84577667 -348.23406982 299.25318909 C-349.42590543 298.04763459 -350.61922194 296.84354247 -351.81396484 295.64086914 C-353.01867842 294.42462488 -354.21891015 293.2039244 -355.41455078 291.97875977 C-366.89374204 280.2172416 -378.62916616 270.51259731 -395.875 270.0625 C-407.85094257 270.19507501 -417.31254409 274.6640835 -426.45703125 282.05859375 C-430.73922268 285.47288405 -433.66501525 287.47517517 -439.375 287.375 C-444.67083443 286.55739749 -448.32502589 285.00403921 -451.6875 280.75 C-459.06222304 269.62645941 -460.69223165 258.55720066 -458.984375 245.35546875 C-455.04665118 226.9036988 -443.06374119 211.76069951 -430.375 198.375 C-429.50488281 197.44042969 -428.63476562 196.50585938 -427.73828125 195.54296875 C-415.71674719 182.89653228 -401.62281627 172.77539781 -386.375 164.375 C-385.28316406 163.76140625 -384.19132812 163.1478125 -383.06640625 162.515625 C-362.89290797 151.7754351 -340.06213005 146.1917386 -317.25 146.1875 C-316.33637695 146.17960449 -315.42275391 146.17170898 -314.48144531 146.16357422 C-308.77563638 146.17257392 -303.69712154 146.81240642 -298.125 148 C-293.14920193 148.79101782 -293.14920193 148.79101782 -288.7734375 146.66796875 C-286.36437441 144.03952363 -284.38382304 141.31922918 -282.375 138.375 C-280.84979417 136.46589882 -279.30814045 134.56981732 -277.75 132.6875 C-276.63625 131.31078125 -276.63625 131.31078125 -275.5 129.90625 C-273.18444341 127.14801347 -270.73380985 124.63254195 -268.13916016 122.14013672 C-266.46055929 120.46060665 -264.9315149 118.72623735 -263.3984375 116.9140625 C-258.88804359 111.72728797 -254.0553292 106.86927022 -249.19726562 102.01196289 C-247.63639673 100.44891266 -246.08372112 98.87802635 -244.53125 97.30664062 C-238.13643424 90.87650348 -231.48140575 85.02407762 -224.375 79.375 C-222.53911563 77.79462531 -220.70520425 76.21194926 -218.875 74.625 C-206.98715839 64.70043002 -193.73573611 56.17528907 -180.375 48.375 C-179.73868652 48.00342773 -179.10237305 47.63185547 -178.44677734 47.24902344 C-123.81636814 15.57659374 -63.03657466 0.03080548 0 0 Z M-57.375 36.375 C-53.52402009 40.97909633 -49.53572823 45.35667412 -45.27783203 49.58569336 C-44.70149521 50.16217621 -44.12515839 50.73865906 -43.53135681 51.33261108 C-41.65087265 53.21240595 -39.76688591 55.08864693 -37.8828125 56.96484375 C-36.56837426 58.27741431 -35.25415856 59.59020776 -33.94015503 60.9032135 C-30.49993488 64.33963602 -27.05672107 67.77304337 -23.612854 71.20581055 C-20.09163589 74.71675501 -16.57328651 78.2305717 -13.0546875 81.74414062 C-6.16424732 88.62389212 0.72936205 95.50045855 7.625 102.375 C9.96550669 100.03449331 10.00574813 99.17188954 10.44140625 95.97265625 C10.56580078 95.08126953 10.69019531 94.18988281 10.81835938 93.27148438 C10.94017578 92.33626953 11.06199219 91.40105469 11.1875 90.4375 C11.37602539 89.08688477 11.37602539 89.08688477 11.56835938 87.70898438 C11.94672644 84.93363227 12.29227909 82.15617415 12.625 79.375 C12.72723877 78.55974854 12.82947754 77.74449707 12.93481445 76.90454102 C13.94363591 67.69135194 13.73446664 58.44170066 13.6875 49.1875 C13.68247379 47.45507942 13.67791287 45.72265743 13.67382812 43.99023438 C13.66291402 39.78512072 13.64571152 35.58007634 13.625 31.375 C-22.28477675 30.09733599 -22.28477675 30.09733599 -57.375 36.375 Z M-210.8984375 109.109375 C-212.92592701 110.96417613 -214.983302 112.75981492 -217.06640625 114.55078125 C-221.89665176 118.76653474 -226.41650581 123.26985699 -230.9375 127.8125 C-231.74896484 128.62009766 -232.56042969 129.42769531 -233.39648438 130.25976562 C-237.70852293 134.5787647 -241.86527201 138.97185325 -245.84448242 143.59936523 C-247.92493953 146.01301407 -250.08787709 148.34702015 -252.25 150.6875 C-256.69686477 155.56836809 -260.89928901 160.59875524 -265.04248047 165.73779297 C-266.55721604 167.59888068 -268.09171785 169.44257206 -269.62890625 171.28515625 C-276.9806081 180.10944826 -284.08285756 189.06332625 -290.87304688 198.32714844 C-291.88387419 199.70537008 -292.89826875 201.08098173 -293.91601562 202.45410156 C-308.07732755 221.56217313 -321.05754536 241.44518294 -332.375 262.375 C-332.77291748 263.03862549 -333.17083496 263.70225098 -333.58081055 264.38598633 C-334.50995801 266.31867824 -334.50995801 266.31867824 -334.29321289 268.31347656 C-332.97123108 271.2815208 -330.99733305 273.08719988 -328.68359375 275.359375 C-328.21889175 275.81983215 -327.75418976 276.28028931 -327.27540588 276.75469971 C-325.79468181 278.21867811 -324.30385481 279.67186041 -322.8125 281.125 C-321.80465336 282.11779449 -320.79748367 283.1112767 -319.79101562 284.10546875 C-317.32680539 286.53666473 -314.85342671 288.95828868 -312.375 291.375 C-308.51491287 289.79253773 -306.11694681 287.33360753 -303.21435547 284.37792969 C-302.71289505 283.87033615 -302.21143463 283.36274261 -301.69477844 282.83976746 C-300.60846092 281.73916925 -299.5243982 280.63634191 -298.44234848 279.53154755 C-296.72250277 277.77679069 -294.99555054 276.0293262 -293.26638794 274.28375244 C-288.35157975 269.32017725 -283.44787547 264.34574644 -278.55371094 259.36181641 C-275.55573078 256.30987014 -272.54775447 253.26806611 -269.5336647 250.23203278 C-268.39368905 249.07974037 -267.2575077 247.92368006 -266.12542343 246.76363373 C-254.47004856 234.82318763 -243.58847595 227.18994339 -226.5 226.9375 C-213.46341964 227.03548912 -203.19720392 231.08573745 -193.59765625 240.03125 C-184.1966197 250.17384415 -181.76070305 262.50778771 -182.06640625 275.85546875 C-182.91429433 292.72527522 -194.29832351 303.75101034 -205.65234375 314.9453125 C-206.83127123 316.11863139 -208.00952824 317.29262429 -209.18714905 318.46725464 C-212.25961909 321.52837533 -215.34099455 324.58037096 -218.42443848 327.63043213 C-221.58080174 330.75587866 -224.72848594 333.89004042 -227.87695312 337.0234375 C-234.03459901 343.14909454 -240.20169872 349.26512058 -246.375 355.375 C-243.64558447 361.15735221 -239.01895402 365.18079702 -234.5625 369.6875 C-233.65951172 370.63173828 -232.75652344 371.57597656 -231.82617188 372.54882812 C-230.94896484 373.43634766 -230.07175781 374.32386719 -229.16796875 375.23828125 C-228.3689917 376.05594971 -227.57001465 376.87361816 -226.74682617 377.71606445 C-224.50650979 379.64424533 -224.50650979 379.64424533 -221.81347656 379.24609375 C-217.96500158 377.87130813 -214.51203077 376.03467986 -210.9375 374.0625 C-209.65866943 373.35746338 -209.65866943 373.35746338 -208.35400391 372.63818359 C-183.38713755 358.52113761 -159.69050588 341.33879861 -137.375 323.375 C-136.42028809 322.60953857 -136.42028809 322.60953857 -135.44628906 321.82861328 C-122.72643099 311.61982529 -110.25459058 301.16543581 -98.29296875 290.07421875 C-96.36881205 288.29430941 -94.4340813 286.52575403 -92.48828125 284.76953125 C-81.50780767 274.84459051 -70.63970787 264.67925105 -61.46875 253.02734375 C-59.23828068 250.20180519 -56.90573054 247.48253308 -54.5625 244.75 C-30.36196256 215.61972345 -12.2567789 180.64634392 -1.23803711 144.48852539 C-0.88656113 143.33776016 -0.53508514 142.18699493 -0.17295837 141.00135803 C0.09036789 140.13465988 0.35369415 139.26796173 0.625 138.375 C-11.61077881 126.11589507 -23.84939314 113.8596291 -36.09142208 101.60676575 C-41.77511528 95.91790898 -47.45786489 90.22811551 -53.13842773 84.53613281 C-58.0876921 79.57692346 -63.03869219 74.61945483 -67.99181372 69.66409779 C-70.61611656 67.03848752 -73.23952206 64.41199417 -75.8608532 61.78341675 C-78.78205565 58.85420411 -81.70712515 55.92888359 -84.63256836 53.00390625 C-85.94562958 51.68545212 -85.94562958 51.68545212 -87.28521729 50.34036255 C-88.473675 49.15396683 -88.473675 49.15396683 -89.68614197 47.94360352 C-90.72454176 46.90382103 -90.72454176 46.90382103 -91.78391933 45.84303284 C-103.7021425 34.84651749 -197.11600145 96.37941588 -210.8984375 109.109375 Z M-410.4296875 222.17578125 C-412.96694424 225.04420604 -415.38075898 227.99181012 -417.75 231 C-418.17958008 231.53874756 -418.60916016 232.07749512 -419.05175781 232.63256836 C-421.68103121 236.06312911 -423.23719977 239.21140134 -424.375 243.375 C-423.21226562 243.08625 -422.04953125 242.7975 -420.8515625 242.5 C-400.92742041 237.78394108 -382.72203996 237.57422881 -363.80078125 246.484375 C-361.28882979 247.69284339 -361.28882979 247.69284339 -358.375 246.375 C-357.10651268 244.67879653 -357.10651268 244.67879653 -356.01953125 242.52734375 C-355.57013184 241.7062915 -355.12073242 240.88523926 -354.65771484 240.03930664 C-354.17254395 239.13946045 -353.68737305 238.23961426 -353.1875 237.3125 C-342.23080169 217.56615564 -329.3064873 198.58075734 -315.3359375 180.828125 C-314.1911361 179.38731482 -314.1911361 179.38731482 -314.375 177.375 C-351.36890116 175.17492218 -385.58259506 196.52196503 -410.4296875 222.17578125 Z M-245.91894531 269.66015625 C-246.75541595 270.49312225 -247.5918866 271.32608826 -248.45370483 272.18429565 C-250.73405092 274.45737374 -253.00987131 276.73486026 -255.28340244 279.01475143 C-257.6684153 281.40484772 -260.05832665 283.790038 -262.44744873 286.17602539 C-266.45554798 290.18049323 -270.45942771 294.18914363 -274.4609375 298.20019531 C-279.08448365 302.83463929 -283.71521061 307.46181444 -288.34970403 312.08530903 C-292.33482902 316.06135537 -296.31604001 320.04128925 -300.29401088 324.02449322 C-302.66730583 326.40090277 -305.04192332 328.7759484 -307.42008209 331.14749146 C-310.0677971 333.79013842 -312.70903459 336.4390927 -315.34863281 339.08984375 C-316.52995285 340.26509109 -316.52995285 340.26509109 -317.73513794 341.46408081 C-318.45283356 342.18741608 -319.17052917 342.91075134 -319.90997314 343.65600586 C-320.53453022 344.28131699 -321.1590873 344.90662811 -321.80257034 345.55088806 C-325.45062604 349.78284967 -325.81149811 353.46618564 -325.69140625 358.90234375 C-325.09086735 363.59544405 -322.68490191 366.2192042 -319.25 369.25 C-315.01539148 370.90702073 -310.84837798 371.22931429 -306.375 370.375 C-300.72113783 367.11998872 -296.40947546 362.69204484 -291.83105469 358.08984375 C-290.57634872 356.84039474 -290.57634872 356.84039474 -289.29629517 355.56570435 C-287.01594908 353.29262626 -284.74012869 351.01513974 -282.46659756 348.73524857 C-280.0815847 346.34515228 -277.69167335 343.959962 -275.30255127 341.57397461 C-271.29445202 337.56950677 -267.29057229 333.56085637 -263.2890625 329.54980469 C-258.66551635 324.91536071 -254.03478939 320.28818556 -249.40029597 315.66469097 C-245.41517098 311.68864463 -241.43395999 307.70871075 -237.45598912 303.72550678 C-235.08269417 301.34909723 -232.70807668 298.9740516 -230.32991791 296.60250854 C-227.6822029 293.95986158 -225.04096541 291.3109073 -222.40136719 288.66015625 C-221.6138205 287.87665802 -220.8262738 287.09315979 -220.01486206 286.28591919 C-219.29716644 285.56258392 -218.57947083 284.83924866 -217.84002686 284.09399414 C-217.21546978 283.46868301 -216.5909127 282.84337189 -215.94742966 282.19911194 C-212.29937396 277.96715033 -211.93850189 274.28381436 -212.05859375 268.84765625 C-212.65913265 264.15455595 -215.06509809 261.5307958 -218.5 258.5 C-230.76426282 253.70094063 -237.80686972 261.50594654 -245.91894531 269.66015625 Z M-141 364.375 C-157.27182854 376.80706928 -174.58271428 387.73263883 -192.2265625 398.09521484 C-195.64502683 400.13153189 -199.01259387 402.24772841 -202.375 404.375 C-201.45193966 407.22110272 -200.50262321 410.04548105 -199.421875 412.8359375 C-192.79555497 430.09403968 -193.16156636 446.64801495 -197.375 464.375 C-197.71560811 466.04019519 -198.05192734 467.70631401 -198.375 469.375 C-191.71660938 467.4602316 -187.56028796 463.82282478 -182.375 459.375 C-181.55644531 458.68019531 -180.73789062 457.98539062 -179.89453125 457.26953125 C-154.75844479 435.33040333 -135.09160082 404.24195688 -132.375 370.375 C-132.25072753 366.70008554 -132.24245671 363.04939443 -132.375 359.375 C-135.85318766 359.375 -138.3424496 362.30030319 -141 364.375 Z " fill="#278FFF" transform="translate(467.375,-0.375)"/>
<path d="M0 0 C10.72981138 8.3040175 17.68795281 19.22970639 22 32 C22.226875 32.6703125 22.45375 33.340625 22.6875 34.03125 C26.77657332 48.7973481 24.09570625 65.34056113 17.3125 78.8125 C13.93472693 84.54447855 9.68137483 89.30202455 5 94 C4.45859375 94.56460938 3.9171875 95.12921875 3.359375 95.7109375 C-7.15775885 105.75001981 -22.21555123 109.87880412 -36.375 110.4375 C-53.16081913 109.96725172 -68.39060074 103.64865062 -80.3046875 91.85546875 C-92.533384 78.90013956 -97.62225051 63.40577914 -97.3125 45.75 C-95.95023664 29.40283968 -89.55867195 16.59966015 -78 5 C-77.45859375 4.43539062 -76.9171875 3.87078125 -76.359375 3.2890625 C-55.64303775 -16.48562306 -22.68560761 -14.91015889 0 0 Z M-60 31 C-64.57617769 38.38790876 -66.94003612 45.30135587 -66 54 C-63.76527532 63.10490686 -59.87538623 69.59887186 -52.0625 74.8125 C-44.79151046 78.99882731 -37.41495037 80.29000957 -29.26171875 78.34765625 C-19.58960504 75.23064035 -13.60728579 70.07763355 -8.91015625 61.11328125 C-5.8618747 54.03551164 -5.95751059 46.01518438 -8.5625 38.8125 C-12.45090055 30.24714214 -18.39064139 24.7079123 -27 21 C-39.22180712 17.17915449 -51.82192489 21.38621837 -60 31 Z " fill="#19A1FF" transform="translate(394,105)"/>
<path d="M0 0 C4.47398764 2.45852136 6.36168633 5.68511214 7.8125 10.5 C8.67167099 16.51419693 6.91772767 20.49372514 3.8125 25.5 C1.48048102 28.36141037 -1.09308336 30.93321386 -3.72241211 33.52075195 C-4.47574326 34.27787979 -5.2290744 35.03500763 -6.00523376 35.81507874 C-8.4821246 38.29934089 -10.9730535 40.76897113 -13.46484375 43.23828125 C-15.19665778 44.9677092 -16.92773108 46.69787918 -18.65809631 48.42875671 C-22.2791751 52.04671354 -25.90685471 55.65787064 -29.53979492 59.26391602 C-34.19498021 63.88507202 -38.83684069 68.51933507 -43.47428036 73.15829182 C-47.04502602 76.72849363 -50.62096047 80.29345912 -54.19867134 83.85667992 C-55.91227088 85.56391921 -57.6246654 87.27236889 -59.33582878 88.98204994 C-61.72663377 91.36851677 -64.12391023 93.7482816 -66.52319336 96.1262207 C-67.22829041 96.83222412 -67.93338745 97.53822754 -68.65985107 98.265625 C-73.77247812 103.3119138 -77.62112729 106.92784251 -85.125 106.9375 C-90.2667385 106.79853409 -93.34226391 106.1480445 -97.1875 102.5 C-99.7865635 98.83368821 -100.66178036 96.17493905 -100.75 91.6875 C-100.79253906 90.71167969 -100.83507812 89.73585938 -100.87890625 88.73046875 C-99.23202432 81.03571533 -92.04219338 75.0569463 -86.64086914 69.6628418 C-85.90996567 68.9252211 -85.17906219 68.1876004 -84.42601013 67.42762756 C-82.0301285 65.01288641 -79.62690605 62.6056263 -77.22265625 60.19921875 C-75.54391644 58.51404604 -73.86532482 56.8287257 -72.18687439 55.14326477 C-68.67769096 51.62214121 -65.16443384 48.10514038 -61.64868164 44.59057617 C-57.14838219 40.09048049 -52.66203058 35.57675062 -48.17905521 31.05940533 C-44.72089258 27.57899915 -41.25367143 24.10772754 -37.78384209 20.63895607 C-36.12565981 18.97841695 -34.47071213 17.31464118 -32.81910896 15.64755821 C-30.50998097 13.31880977 -28.18849335 11.00310531 -25.86352539 8.69018555 C-25.18746246 8.00288361 -24.51139954 7.31558167 -23.81484985 6.60745239 C-16.95999717 -0.15760838 -9.60970372 -4.00404322 0 0 Z " fill="#4C61FF" transform="translate(100.1875,405.5)"/>
<path d="M0 0 C4.30525998 2.48866651 7.4145154 5.24354619 9 10 C9.96582924 16.77303038 9.0261592 21.26978126 4.92578125 26.75 C1.52111867 30.72786136 -1.99756357 34.61393878 -6 38 C-6.66 38 -7.32 38 -8 38 C-8.66 39.32 -9.32 40.64 -10 42 C-10.66 42 -11.32 42 -12 42 C-12.185625 42.556875 -12.37125 43.11375 -12.5625 43.6875 C-15.08899704 47.7518648 -18.60990438 50.30446953 -23.21484375 51.64453125 C-28.55775833 52.4756513 -32.26358754 51.82363051 -37 49 C-40.79301225 45.39369043 -42.79530481 42.0878909 -43.3125 36.8125 C-42.51241335 27.05144282 -35.71347488 21.14393901 -29.09130859 14.6796875 C-27.49308472 13.11824386 -25.91171693 11.5411124 -24.33203125 9.9609375 C-16.50724371 2.21180909 -11.49440296 -1.96711366 0 0 Z " fill="#4766FF" transform="translate(141,447)"/>
<path d="M0 0 C6.87163887 5.88997617 6.87163887 5.88997617 7.640625 10.72265625 C7.91526656 18.6382183 6.14151365 22.55772539 0.82495117 28.52807617 C-1.48627136 30.87975108 -3.79723112 33.23110253 -6.12915039 35.56225586 C-7.62138669 37.05887607 -9.09686659 38.57078606 -10.57226562 40.08398438 C-11.53287085 41.05045751 -12.4944287 42.01598493 -13.45703125 42.98046875 C-14.31659424 43.84824951 -15.17615723 44.71603027 -16.06176758 45.61010742 C-20.17079677 48.99339168 -24.01257821 50.68553455 -29.375 51.25 C-34.74616881 50.66405431 -37.69840485 48.91482214 -41.625 45.25 C-44.4605838 41.55181142 -45.28368749 37.47644033 -44.8125 32.875 C-42.81138068 27.20048245 -40.21705689 23.70552813 -35.9375 19.5390625 C-35.3717627 18.97424164 -34.80602539 18.40942078 -34.22314453 17.82748413 C-33.03435466 16.6446997 -31.84074432 15.46674222 -30.64257812 14.29345703 C-28.8072606 12.49486545 -26.98866811 10.68056433 -25.171875 8.86328125 C-24.01135944 7.71259006 -22.84993251 6.56281714 -21.6875 5.4140625 C-21.14367676 4.8724649 -20.59985352 4.33086731 -20.03955078 3.77285767 C-14.42585238 -1.7005647 -7.39785079 -2.95914032 0 0 Z " fill="#4767FF" transform="translate(57.8125,363.125)"/>
</svg>
