<?xml version="1.0" encoding="UTF-8"?>
<svg version="1.1" xmlns="http://www.w3.org/2000/svg" width="1024" height="1024">
<path d="M0 0 C337.92 0 675.84 0 1024 0 C1024 337.92 1024 675.84 1024 1024 C686.08 1024 348.16 1024 0 1024 C0 686.08 0 348.16 0 0 Z " fill="#FCFCFD" transform="translate(0,0)"/>
<path d="M0 0 C3.91335101 1.77561001 6.06021398 4.64859175 8.7421875 7.9375 C9.59369385 8.95142822 9.59369385 8.95142822 10.46240234 9.98583984 C11.62965335 11.37734908 12.7919269 12.77304856 13.94921875 14.17285156 C15.91113288 16.54254058 17.90159313 18.88670567 19.89575195 21.22924805 C21.69672113 23.3469788 23.48762559 25.47311308 25.27880859 27.59912109 C34.95381725 39.08135501 44.68214623 50.51713143 54.53125 61.85058594 C55.62307116 63.10863816 56.71294367 64.36838441 57.80078125 65.62988281 C60.47578082 68.73177855 63.17065276 71.80951525 65.91796875 74.84765625 C66.94279961 76.00252318 67.96754318 77.15746757 68.9921875 78.3125 C69.47502197 78.83271729 69.95785645 79.35293457 70.45532227 79.88891602 C72.64792498 82.3887364 73.64830945 83.59945903 73.46875 86.9921875 C72.6171875 89.1875 72.6171875 89.1875 71.6171875 90.1875 C69.78135206 90.1466338 67.94743741 90.02381886 66.1171875 89.875 C58.94051644 89.29300358 51.76326939 88.71831551 44.5859375 88.14453125 C42.8548877 88.00609802 42.8548877 88.00609802 41.08886719 87.86486816 C38.26497669 87.63904462 35.44108339 87.41325607 32.6171875 87.1875 C32.60838814 88.43086121 32.60838814 88.43086121 32.59941101 89.69934082 C32.54105875 97.5823904 32.46874667 105.46516935 32.38147259 113.3479538 C32.33709704 117.39877767 32.29777292 121.44950852 32.27075195 125.50048828 C32.24438606 129.42349213 32.20376111 133.34613133 32.15400124 137.26890564 C32.13755386 138.75165709 32.12590407 140.23447126 32.11957359 141.71730042 C31.97638944 172.2264436 21.01991947 199.077792 -0.80517578 220.70556641 C-14.61002828 233.67298434 -35.95041408 246.1875 -55.3828125 246.1875 C-55.3828125 232.6575 -55.3828125 219.1275 -55.3828125 205.1875 C-49.1953125 205.0328125 -49.1953125 205.0328125 -42.8828125 204.875 C-18.68119119 204.1604575 -18.68119119 204.1604575 2.1796875 192.81640625 C11.09165068 182.7177958 14.27334121 172.286616 13.96484375 159.0078125 C12.91091848 147.42647635 8.72496 138.79252272 0.3046875 130.9375 C-6.83756998 125.27816015 -14.55304138 123.49121047 -23.4453125 122.4375 C-26.7246875 122.025 -30.0040625 121.6125 -33.3828125 121.1875 C-33.3828125 109.6375 -33.3828125 98.0875 -33.3828125 86.1875 C-44.67718804 87.54036157 -44.67718804 87.54036157 -55.96948242 88.91040039 C-57.3923427 89.07760523 -58.81527138 89.24422935 -60.23828125 89.41015625 C-60.96841431 89.5016394 -61.69854736 89.59312256 -62.45080566 89.68737793 C-66.32639429 90.13133898 -69.60607371 90.22812931 -73.3828125 89.1875 C-74.078125 87.45703125 -74.078125 87.45703125 -74.3828125 85.1875 C-73.1875 83.13671875 -73.1875 83.13671875 -71.2578125 80.875 C-70.52175781 80.00101562 -69.78570313 79.12703125 -69.02734375 78.2265625 C-68.147154 77.21239396 -67.26553995 76.19946051 -66.3828125 75.1875 C-65.3448277 73.98717317 -64.30707926 72.78664191 -63.26953125 71.5859375 C-61.59408839 69.65049497 -59.91654418 67.71701698 -58.23388672 65.7878418 C-55.05211706 62.13702986 -51.92968928 58.45260925 -48.8828125 54.6875 C-44.80653301 49.6556092 -40.57997352 44.76771699 -36.32910156 39.88378906 C-29.34731351 31.85860478 -22.4567646 23.76358624 -15.7578125 15.5 C-14.30130979 13.72766068 -12.84296644 11.95683244 -11.3828125 10.1875 C-10.20332031 8.73150391 -10.20332031 8.73150391 -9 7.24609375 C-8.21882812 6.31925781 -7.43765625 5.39242188 -6.6328125 4.4375 C-5.58867188 3.17679687 -5.58867188 3.17679687 -4.5234375 1.890625 C-2.3828125 0.1875 -2.3828125 0.1875 0 0 Z " fill="#FEC901" transform="translate(820.3828125,315.8125)"/>
<path d="M0 0 C2.27227783 -0.38095093 2.27227783 -0.38095093 5.14550781 -0.38818359 C6.22133118 -0.39764008 7.29715454 -0.40709656 8.40557861 -0.4168396 C10.16161407 -0.40773056 10.16161407 -0.40773056 11.953125 -0.3984375 C13.16007019 -0.40130768 14.36701538 -0.40417786 15.61053467 -0.40713501 C18.17623358 -0.40918142 20.7419479 -0.40361155 23.30761719 -0.39111328 C27.1924247 -0.37523532 31.07616498 -0.39085611 34.9609375 -0.41015625 C37.4583356 -0.40817065 39.95573304 -0.40432047 42.453125 -0.3984375 C43.59952454 -0.40451019 44.74592407 -0.41058289 45.92706299 -0.4168396 C59.95011343 -0.29776376 72.73166214 1.99029633 83.25 11.6875 C92.22529916 21.18129254 94.53126529 32.49914358 94.3046875 45.1875 C93.38507738 56.69441635 88.18814573 66.30902154 79.71484375 74.1015625 C67.12825319 83.72058293 52.16858837 84.16661386 37 84.0625 C35.74832031 84.05798828 34.49664063 84.05347656 33.20703125 84.04882812 C30.13797059 84.03711415 27.06901093 84.02071073 24 84 C24.00785522 85.85516235 24.00785522 85.85516235 24.01586914 87.74780273 C24.03391561 92.31924725 24.04543071 96.89068859 24.05493164 101.4621582 C24.05997267 103.44393441 24.06680538 105.42570689 24.07543945 107.4074707 C24.08751515 110.24952109 24.09323045 113.09152247 24.09765625 115.93359375 C24.10281754 116.82525742 24.10797882 117.71692108 24.11329651 118.63560486 C24.11349177 120.75740601 24.0621003 122.8791078 24 125 C21.51335346 127.48664654 14.9039817 126.23404068 11.5625 126.25 C10.48677734 126.270625 9.41105469 126.29125 8.30273438 126.3125 C6.76262695 126.32023438 6.76262695 126.32023438 5.19140625 126.328125 C4.24467041 126.3374707 3.29793457 126.34681641 2.32250977 126.35644531 C1.55608154 126.23881836 0.78965332 126.12119141 0 126 C-2.16746802 122.74879797 -2.25074329 121.85881902 -2.25396729 118.10375977 C-2.25960693 117.09427277 -2.26524658 116.08478577 -2.27105713 115.04470825 C-2.26498444 113.38482376 -2.26498444 113.38482376 -2.25878906 111.69140625 C-2.2622937 110.52535858 -2.26579834 109.35931091 -2.26940918 108.15792847 C-2.27823189 104.29272558 -2.27237532 100.42770484 -2.265625 96.5625 C-2.26697149 93.88354259 -2.26890864 91.20459078 -2.27142334 88.52563477 C-2.27506279 82.9067181 -2.27026447 77.287854 -2.26074219 71.66894531 C-2.24985765 65.17112166 -2.25338324 58.67342352 -2.264395 52.17560291 C-2.2734685 46.59846071 -2.27475285 41.0213563 -2.26951766 35.4442091 C-2.26639829 32.11244992 -2.26677195 28.78076274 -2.27259064 25.44900513 C-2.27765234 21.73544753 -2.26995037 18.02213317 -2.25878906 14.30859375 C-2.26283752 13.20200409 -2.26688599 12.09541443 -2.27105713 10.95529175 C-2.26541748 9.94580475 -2.25977783 8.93631775 -2.25396729 7.89624023 C-2.25321323 7.0179808 -2.25245918 6.13972137 -2.25168228 5.23484802 C-2 3 -2 3 0 0 Z " fill="#490095" transform="translate(741,437)"/>
<path d="M0 0 C4.00107462 -0.22400504 7.99968569 -0.38645348 12.00561523 -0.49438477 C13.36498621 -0.53940132 14.7239272 -0.60064542 16.08178711 -0.67895508 C27.14341985 -1.30048641 27.14341985 -1.30048641 31.11108398 1.47875977 C33.01885135 3.86794496 34.47537429 6.34818542 36 9 C37.26481355 10.8904823 38.56352825 12.75517535 39.86302185 14.6219635 C42.25981303 18.07600208 44.59273686 21.57303679 46.9375 25.0625 C47.91702679 26.51517017 48.89684232 27.96764568 49.87695312 29.41992188 C52.2546349 32.94438064 54.62840095 36.47144563 57 40 C58.05912598 38.39560059 58.05912598 38.39560059 59.13964844 36.75878906 C61.76643566 32.78234352 64.39937932 28.81000678 67.03417969 24.83886719 C68.17257697 23.12122849 69.30931307 21.40248758 70.44433594 19.68261719 C72.07829812 17.20735048 73.71823967 14.73613984 75.359375 12.265625 C75.86370056 11.49881409 76.36802612 10.73200317 76.88763428 9.94195557 C82.09168971 2.13423531 82.09168971 2.13423531 85 0 C88.02441406 -0.45410156 88.02441406 -0.45410156 91.515625 -0.390625 C92.76601563 -0.37773437 94.01640625 -0.36484375 95.3046875 -0.3515625 C97.25761719 -0.30128906 97.25761719 -0.30128906 99.25 -0.25 C100.56742188 -0.23195313 101.88484375 -0.21390625 103.2421875 -0.1953125 C106.49552308 -0.14816271 109.74739625 -0.08236044 113 0 C113.99 1.98 113.99 1.98 115 4 C114.64397705 4.48130371 114.2879541 4.96260742 113.92114258 5.45849609 C106.30795826 15.75632322 98.73644778 26.08164315 91.26171875 36.48046875 C88.97118842 39.66428494 86.65807637 42.83032428 84.33203125 45.98828125 C83.73269775 46.80611084 83.13336426 47.62394043 82.51586914 48.46655273 C81.3650663 50.03611862 80.20952538 51.60222492 79.04858398 53.16430664 C78.53239502 53.87063232 78.01620605 54.57695801 77.484375 55.3046875 C77.02772461 55.92327637 76.57107422 56.54186523 76.10058594 57.17919922 C74.87191483 59.2119031 74.22303215 60.6276709 74 63 C74.92147127 65.06615201 74.92147127 65.06615201 76.47265625 67.0625 C77.03549316 67.84906982 77.59833008 68.63563965 78.17822266 69.44604492 C79.11093994 70.71025269 79.11093994 70.71025269 80.0625 72 C81.36363318 73.80834059 82.66440439 75.61694165 83.96484375 77.42578125 C84.63628418 78.35084473 85.30772461 79.2759082 85.99951172 80.22900391 C89.09231265 84.51302765 92.10665862 88.85086113 95.125 93.1875 C98.55958706 98.11008563 102.006979 103.02156302 105.51171875 107.89453125 C106.06778809 108.67094971 106.62385742 109.44736816 107.19677734 110.24731445 C108.24531243 111.70921128 109.2987474 113.16761077 110.35791016 114.62182617 C110.82374512 115.27256104 111.28958008 115.9232959 111.76953125 116.59375 C112.17792236 117.15771484 112.58631348 117.72167969 113.00708008 118.30273438 C114.13467595 120.23021078 114.72654614 121.7806315 115 124 C111.29686531 127.70313469 105.18907401 126.41333781 100.1875 126.4375 C98.40375977 126.48680664 98.40375977 126.48680664 96.58398438 126.53710938 C87.88565497 126.59083291 87.88565497 126.59083291 84.08984375 124.05859375 C83.05537109 122.54458984 83.05537109 122.54458984 82 121 C81.5062085 120.32541748 81.01241699 119.65083496 80.50366211 118.95581055 C78.74721757 116.54214566 77.05834115 114.09014199 75.375 111.625 C70.44675432 104.479371 65.44224534 97.41449667 60.20068359 90.49462891 C57 86.21287951 57 86.21287951 57 84 C53.51991839 87.20262635 50.98901663 90.80362006 48.4375 94.75 C47.55968796 96.08795812 46.68074004 97.42517155 45.80078125 98.76171875 C45.34525879 99.45442871 44.88973633 100.14713867 44.42041016 100.86083984 C41.5879241 105.12660864 38.66674225 109.33166026 35.75561523 113.54394531 C35.32321533 114.17010742 34.89081543 114.79626953 34.4453125 115.44140625 C33.8251123 116.33690186 33.8251123 116.33690186 33.19238281 117.25048828 C32.03389717 118.95026471 30.91892325 120.67337498 29.8046875 122.40234375 C28 125 28 125 26 126 C24.0406396 126.08510205 22.07837206 126.10717656 20.1171875 126.09765625 C18.95058594 126.09443359 17.78398438 126.09121094 16.58203125 126.08789062 C15.35871094 126.07951172 14.13539063 126.07113281 12.875 126.0625 C11.64394531 126.05798828 10.41289063 126.05347656 9.14453125 126.04882812 C6.09630608 126.0370133 3.04817686 126.02054028 0 126 C-0.66 124.68 -1.32 123.36 -2 122 C-1.25878906 120.91847656 -0.51757812 119.83695313 0.24609375 118.72265625 C6.72409336 109.26502782 13.18306828 99.79473559 19.625 90.3125 C26.05182937 80.85314114 32.5050775 71.41272786 39 62 C36.26766307 57.02460508 33.28013923 52.47303878 29.875 47.9375 C28.88988912 46.60992073 27.90552983 45.28178347 26.921875 43.953125 C26.43009766 43.28990234 25.93832031 42.62667969 25.43164062 41.94335938 C23.2979453 39.04700624 21.20880821 36.11985608 19.125 33.1875 C14.5468604 26.75118532 9.92393293 20.34782793 5.28955078 13.9519043 C4.76087402 13.22140869 4.23219727 12.49091309 3.6875 11.73828125 C3.21699219 11.08899658 2.74648438 10.43971191 2.26171875 9.77075195 C-1.02253313 5.16148746 -1.02253313 5.16148746 -0.625 2.3125 C-0.41875 1.549375 -0.2125 0.78625 0 0 Z " fill="#490194" transform="translate(608,437)"/>
<path d="M0 0 C1.03833984 0.38285156 1.03833984 0.38285156 2.09765625 0.7734375 C12.85182606 5.43429042 21.70851416 15.42079226 26.31640625 26.03125 C31.12868104 39.84767658 29.805866 53.05646382 23.75 66.1875 C17.88082063 77.16182355 8.95386624 83.89156596 -2.5625 88.4375 C-15.85159926 92.42941408 -29.75238232 90.87041198 -41.9296875 84.45703125 C-53.33422435 77.70393829 -60.61448337 68.00638879 -64.14453125 55.140625 C-66.96051889 43.0314469 -65.58990423 30.42584724 -59.64453125 19.51171875 C-52.74158297 8.50031332 -42.90532983 0.5118207 -30.1171875 -2.53125 C-19.88450894 -4.06999866 -9.73872343 -3.67800721 0 0 Z " fill="#490194" transform="translate(577,475)"/>
<path d="M0 0 C10.08844817 6.8693422 16.43230788 17.86516518 18.96484375 29.765625 C19.55263588 34.11367635 20.04369337 38.54331756 19.25 42.875 C17.12303584 45.6016058 15.92901097 46.74726764 12.4911499 47.39398193 C10.90563324 47.4073056 10.90563324 47.4073056 9.28808594 47.42089844 C8.08714294 47.44061707 6.88619995 47.46033569 5.64886475 47.48065186 C3.71119232 47.48249481 3.71119232 47.48249481 1.734375 47.484375 C0.39485679 47.49936026 -0.94464296 47.51608815 -2.28411865 47.53448486 C-5.80221413 47.57813311 -9.32006041 47.5981514 -12.83837891 47.61322021 C-16.43146485 47.63280079 -20.02428202 47.67476958 -23.6171875 47.71484375 C-30.66135589 47.79011783 -37.70550475 47.84042602 -44.75 47.875 C-44.00295151 49.48290958 -43.24251103 51.08460109 -42.4765625 52.68359375 C-42.05455566 53.57618896 -41.63254883 54.46878418 -41.19775391 55.38842773 C-38.5375167 59.95748607 -34.74463127 62.21012291 -29.75 63.875 C-16.64816556 64.77333354 -16.64816556 64.77333354 -4.75 59.875 C-4.04810547 59.03388672 -4.04810547 59.03388672 -3.33203125 58.17578125 C-1.75 56.875 -1.75 56.875 0.54296875 56.80859375 C4.43131696 58.34036729 6.73311058 60.92933992 9.5625 63.9375 C10.11228516 64.50533203 10.66207031 65.07316406 11.22851562 65.65820312 C12.57827365 67.05490925 13.91541525 68.46378837 15.25 69.875 C12.9493522 76.7420851 7.5611764 79.72856917 1.4375 83.125 C-10.51352741 88.67286572 -26.51521581 88.51803566 -39 84.921875 C-43.6514848 83.15113931 -47.68105545 80.71668659 -51.75 77.875 C-52.801875 77.153125 -53.85375 76.43125 -54.9375 75.6875 C-64.96655192 65.65844808 -69.08556234 53.25544323 -69.25 39.3125 C-69.09264644 26.00169973 -65.04717037 15.64246618 -55.87109375 5.875 C-40.662571 -8.38106981 -17.80401958 -10.41184863 0 0 Z " fill="#480193" transform="translate(292.75,478.125)"/>
<path d="M0 0 C9.04318788 5.10657946 15.05494679 12.29207063 18.1098175 22.21420288 C18.67982008 25.00438293 18.70150932 27.62238456 18.71166992 30.47119141 C18.71804977 31.68569977 18.72442963 32.90020813 18.73100281 34.15151978 C18.73211563 35.45890106 18.73322845 36.76628235 18.734375 38.11328125 C18.73758907 39.47040848 18.74095326 40.82753536 18.74446106 42.18466187 C18.75043989 45.02415776 18.75230208 47.86362326 18.75170898 50.703125 C18.75160706 54.34615237 18.76529622 57.98898617 18.78248119 61.63196754 C18.79357957 64.43202618 18.79562892 67.23203755 18.79509926 70.03211594 C18.79685645 72.02969554 18.80770442 74.0272604 18.81864929 76.02481079 C18.81557266 77.23301483 18.81249603 78.44121887 18.80932617 79.68603516 C18.81075119 80.75318756 18.81217621 81.82033997 18.81364441 82.91983032 C18.56640625 85.44921875 18.56640625 85.44921875 16.56640625 87.44921875 C14.44335938 87.70800781 14.44335938 87.70800781 11.84765625 87.71484375 C10.91566406 87.71742188 9.98367188 87.72 9.0234375 87.72265625 C8.04761719 87.71492187 7.07179688 87.7071875 6.06640625 87.69921875 C4.60267578 87.71082031 4.60267578 87.71082031 3.109375 87.72265625 C2.17738281 87.72007812 1.24539063 87.7175 0.28515625 87.71484375 C-0.57142578 87.71258789 -1.42800781 87.71033203 -2.31054688 87.70800781 C-4.43359375 87.44921875 -4.43359375 87.44921875 -6.43359375 85.44921875 C-6.67842102 83.28842163 -6.67842102 83.28842163 -6.6730957 80.57568359 C-6.67682693 79.56057709 -6.68055817 78.54547058 -6.68440247 77.49960327 C-6.6802684 76.39758575 -6.67613434 75.29556824 -6.671875 74.16015625 C-6.68730193 71.83332755 -6.70360609 69.50650453 -6.72070312 67.1796875 C-6.73712661 63.50622043 -6.74611104 59.83316855 -6.73901367 56.15966797 C-6.73638644 52.61768608 -6.76457926 49.07696898 -6.796875 45.53515625 C-6.78666824 44.44528412 -6.77646149 43.35541199 -6.76594543 42.23251343 C-6.85374804 35.34810539 -7.95469407 30.77806392 -12.43359375 25.44921875 C-15.99620683 22.10252161 -18.93058253 21.62264312 -23.68359375 21.07421875 C-28.49878736 21.55573811 -31.97504247 23.02632264 -35.43359375 26.44921875 C-39.67759394 33.26797873 -40.02137821 38.86407569 -40.0078125 46.7890625 C-40.02905937 48.53311119 -40.02905937 48.53311119 -40.05073547 50.31239319 C-40.09248186 54.00393077 -40.10785653 57.69497873 -40.12109375 61.38671875 C-40.1501196 65.10322655 -40.18457591 68.81961002 -40.22358704 72.536026 C-40.24613749 74.84410465 -40.2619183 77.15226086 -40.27043152 79.46043396 C-40.27746597 80.49563675 -40.28450043 81.53083954 -40.29174805 82.59741211 C-40.29696724 83.97019569 -40.29696724 83.97019569 -40.30229187 85.37071228 C-40.43359375 87.44921875 -40.43359375 87.44921875 -41.43359375 88.44921875 C-45.0725855 88.70078144 -48.72443048 88.63444101 -52.37109375 88.63671875 C-53.39912109 88.64896484 -54.42714844 88.66121094 -55.48632812 88.67382812 C-56.46794922 88.67576172 -57.44957031 88.67769531 -58.4609375 88.6796875 C-59.81819946 88.68585083 -59.81819946 88.68585083 -61.20288086 88.69213867 C-63.43359375 88.44921875 -63.43359375 88.44921875 -65.43359375 86.44921875 C-65.63206983 83.77959389 -65.70633194 81.21370583 -65.69238281 78.54296875 C-65.69588745 77.72658936 -65.69939209 76.91020996 -65.70300293 76.0690918 C-65.71182723 73.36238172 -65.70596868 70.65593163 -65.69921875 67.94921875 C-65.7005652 66.0735672 -65.70250556 64.19791598 -65.70501709 62.32226562 C-65.7079693 58.38798709 -65.70366761 54.45379926 -65.69433594 50.51953125 C-65.68294135 45.46847311 -65.68950031 40.41762749 -65.70148087 35.36657715 C-65.70869686 31.49249664 -65.70641274 27.61846678 -65.70122528 23.74438477 C-65.69988806 21.88159154 -65.70153902 20.01879377 -65.70618439 18.15600586 C-65.71124536 15.55570233 -65.70354556 12.9557463 -65.69238281 10.35546875 C-65.69643127 9.58033936 -65.70047974 8.80520996 -65.70465088 8.0065918 C-65.66212219 2.67774719 -65.66212219 2.67774719 -63.43359375 0.44921875 C-61.31054688 0.19042969 -61.31054688 0.19042969 -58.71484375 0.18359375 C-57.78285156 0.18101562 -56.85085938 0.1784375 -55.890625 0.17578125 C-54.91480469 0.18351562 -53.93898438 0.19125 -52.93359375 0.19921875 C-51.95777344 0.19148438 -50.98195313 0.18375 -49.9765625 0.17578125 C-49.04457031 0.17835938 -48.11257813 0.1809375 -47.15234375 0.18359375 C-46.29576172 0.18584961 -45.43917969 0.18810547 -44.55664062 0.19042969 C-42.43359375 0.44921875 -42.43359375 0.44921875 -40.43359375 2.44921875 C-40.03595112 4.43743188 -39.69584026 6.43866214 -39.43359375 8.44921875 C-38.83546875 7.56234375 -38.23734375 6.67546875 -37.62109375 5.76171875 C-28.54909621 -4.87703046 -12.11618077 -5.14621687 0 0 Z " fill="#480093" transform="translate(480.43359375,474.55078125)"/>
<path d="M0 0 C1.29128563 0.00842926 1.29128563 0.00842926 2.60865784 0.01702881 C3.51442566 0.01513046 4.42019348 0.01323212 5.35340881 0.01127625 C8.35711737 0.00756163 11.36058589 0.01828165 14.36427307 0.02947998 C16.44410168 0.03067141 18.52393083 0.03112502 20.60375977 0.03086853 C24.96594096 0.03243453 29.32804022 0.04073372 33.69020081 0.05413818 C39.29508195 0.07113871 44.89987305 0.0749523 50.50477695 0.074193 C54.80000679 0.07446429 59.09521675 0.07993864 63.39043999 0.08719444 C65.45780728 0.09038708 67.52517684 0.0923499 69.59254646 0.09308815 C72.47556053 0.09524483 75.35847706 0.10397412 78.24147034 0.11468506 C79.10435165 0.11423187 79.96723297 0.11377869 80.85626221 0.11331177 C86.74589267 0.14547458 86.74589267 0.14547458 87.86036682 1.25994873 C88.13935508 4.89820919 88.09213975 8.54975671 88.11036682 12.19744873 C88.13099182 13.22547607 88.15161682 14.25350342 88.17286682 15.31268311 C88.1806012 16.78511475 88.1806012 16.78511475 88.18849182 18.28729248 C88.19783752 19.19213379 88.20718323 20.0969751 88.21681213 21.02923584 C88.09918518 21.76537109 87.98155823 22.50150635 87.86036682 23.25994873 C84.26592499 25.65624328 81.7117503 25.51776204 77.56739807 25.45526123 C76.86136948 25.45243134 76.15534088 25.44960144 75.42791748 25.44668579 C73.17606049 25.43550337 70.92460331 25.41040293 68.67286682 25.38494873 C67.14487778 25.3749164 65.61688249 25.36579099 64.08888245 25.35760498 C60.34589019 25.33557045 56.60319626 25.3010544 52.86036682 25.25994873 C52.86258743 26.49800766 52.86480804 27.73606659 52.86709595 29.01164246 C52.88732536 40.65180095 52.90233799 52.2919559 52.91217899 63.93212795 C52.91740833 69.91714139 52.9245069 75.90214069 52.93580627 81.887146 C52.94663335 87.65778302 52.95264327 93.42840641 52.95524406 99.19905281 C52.95709864 101.40597816 52.96071986 103.61290273 52.96609688 105.81982231 C52.97330492 108.89940914 52.97435786 111.97893887 52.97389221 115.05853271 C52.97748749 115.98066055 52.98108276 116.90278839 52.98478699 117.8528595 C52.97441898 124.14589657 52.97441898 124.14589657 51.86036682 125.25994873 C48.05448538 125.51203595 44.23611226 125.44517217 40.42286682 125.44744873 C39.34714417 125.45969482 38.27142151 125.47194092 37.1631012 125.48455811 C36.13636292 125.4864917 35.10962463 125.48842529 34.05177307 125.49041748 C32.63166931 125.49658081 32.63166931 125.49658081 31.18287659 125.50286865 C28.86036682 125.25994873 28.86036682 125.25994873 26.86036682 123.25994873 C26.67188211 120.15577455 26.60876229 117.14140972 26.63331604 114.0368042 C26.63302399 113.08066223 26.63273193 112.12452026 26.63243103 111.1394043 C26.63382806 107.96855701 26.64940683 104.79794264 26.66505432 101.62713623 C26.66878312 99.43281177 26.67163072 97.23848565 26.67362976 95.04415894 C26.68127667 89.26057359 26.70093424 83.47708824 26.72303772 77.69354248 C26.74347339 71.79511874 26.7526266 65.89667889 26.76271057 59.99822998 C26.78417913 48.4187589 26.81832781 36.83936212 26.86036682 25.25994873 C25.42987 25.2835144 25.42987 25.2835144 23.97047424 25.30755615 C20.4314977 25.36186551 16.89255797 25.39630206 13.35328674 25.42474365 C11.82164821 25.43982809 10.29005284 25.46029851 8.75856018 25.48626709 C6.55671028 25.5226672 4.35543149 25.53967786 2.15333557 25.55291748 C1.46885849 25.56840134 0.78438141 25.58388519 0.0791626 25.59983826 C-2.80801537 25.60085977 -4.68407764 25.58625917 -7.07217407 23.87568665 C-8.50117662 21.71270581 -8.51242285 20.24421452 -8.50291443 17.66229248 C-8.5022699 16.77864014 -8.50162537 15.89498779 -8.5009613 14.98455811 C-8.48484802 14.06481201 -8.46873474 13.14506592 -8.45213318 12.19744873 C-8.45535583 11.27383545 -8.45857849 10.35022217 -8.4618988 9.39862061 C-8.40338545 2.11636732 -8.01079854 0.04286849 0 0 Z " fill="#480093" transform="translate(140.13963317871094,437.74005126953125)"/>
<path d="M0 0 C1.98597764 1.428575 3.7918322 2.93055782 5.6015625 4.57421875 C6.6121875 5.41984375 7.6228125 6.26546875 8.6640625 7.13671875 C10.6015625 9.57421875 10.6015625 9.57421875 10.51953125 11.94140625 C9.32356387 15.37154247 7.60630103 16.79356098 4.8515625 19.13671875 C3.99046875 19.88050781 3.129375 20.62429688 2.2421875 21.390625 C-0.28369879 23.47933866 -2.83053463 25.53744687 -5.3984375 27.57421875 C-8.22380814 26.37886963 -10.06918824 25.01297834 -12.4609375 23.01171875 C-17.85652672 18.53452769 -23.66818449 19.08328518 -30.3984375 19.57421875 C-36.13180648 21.55483712 -39.93962951 25.10411151 -43.015625 30.3125 C-45.6119973 36.4367115 -45.46731739 43.6912257 -43.70703125 50.0859375 C-41.23917926 55.50695128 -37.45225733 59.13831671 -32.0390625 61.68359375 C-26.13348891 63.67541443 -19.6629004 63.54229005 -14.0234375 60.82421875 C-10.90866229 59.02969805 -8.10636299 56.94365355 -5.3984375 54.57421875 C-4.9859375 54.99832031 -4.5734375 55.42242188 -4.1484375 55.859375 C-0.27622149 59.79209438 3.70777825 63.42654384 8 66.8984375 C9.8303314 68.81358913 10.38970453 69.9418835 10.6015625 72.57421875 C8.98713866 74.61915562 7.61016137 75.96826527 5.6015625 77.57421875 C4.98023438 78.07308594 4.35890625 78.57195312 3.71875 79.0859375 C-6.7541362 86.7570368 -18.62735173 88.89304531 -31.3984375 87.57421875 C-44.18666072 85.02516642 -55.47062147 78.99059906 -63.0546875 68.22265625 C-70.77182286 56.0038586 -73.41500203 42.6412334 -70.2109375 28.44921875 C-67.04842964 17.10225769 -60.49446865 7.48015979 -50.3984375 1.19921875 C-35.25960938 -7.20865348 -15.37449766 -9.13956294 0 0 Z " fill="#490194" transform="translate(392.3984375,477.42578125)"/>
<path d="M0 0 C5.21296508 3.15462694 8.38146348 8.05955668 10.875 13.5 C12.38877779 20.76613339 11.58470966 26.79573182 8.5 33.5 C5.1192894 38.61936177 1.38611113 41.82094907 -4.5 43.5 C-11.20398722 44.32123843 -17.78416578 44.4441001 -23.71875 40.8984375 C-29.77669637 36.1424182 -33.80992191 31.00145588 -34.78125 23.2578125 C-35.20884536 16.39490697 -33.51671257 11.08303829 -29.5 5.5 C-21.6686511 -2.01139106 -10.26067332 -4.52266571 0 0 Z " fill="#FBFAFC" transform="translate(570.5,497.5)"/>
<path d="M0 0 C3.91875 -0.061875 7.8375 -0.12375 11.875 -0.1875 C13.69620361 -0.22846802 13.69620361 -0.22846802 15.55419922 -0.27026367 C23.68091243 -0.33175955 30.86577781 0.53705912 37.9375 4.75 C42.59356603 9.82934476 43.52557284 14.80929463 43.28125 21.5078125 C42.6593431 27.01859866 41.18478829 30.69962261 37.4375 34.8125 C29.77834505 40.39552564 20.45862614 40.40101749 11.375 40.1875 C5.744375 40.0946875 5.744375 40.0946875 0 40 C0 26.8 0 13.6 0 0 Z " fill="#FCFBFC" transform="translate(765,459)"/>
<path d="M0 0 C1.65 0 3.3 0 5 0 C5 12.21 5 24.42 5 37 C3.68 37 2.36 37 1 37 C0.67 36.34 0.34 35.68 0 35 C-0.680625 35.515625 -1.36125 36.03125 -2.0625 36.5625 C-5.94111222 38.46054428 -7.87679425 38.17805879 -12 37 C-15.6584074 33.97783737 -17.67942394 31.75905622 -18.23828125 26.94921875 C-18.41884627 21.44673735 -17.77654483 18.30106495 -14 14 C-10.79958671 11.65303025 -7.89490143 11.66851903 -4 12 C-3.01 12.66 -2.02 13.32 -1 14 C-0.67 9.38 -0.34 4.76 0 0 Z " fill="#3F0A8C" transform="translate(598,601)"/>
<path d="M0 0 C16 0 16 0 22 4 C24.25497853 6.74519126 24 8.29470687 24 11.9375 C23.38357739 15.56152303 22.16232383 17.91652991 19.09765625 20.16796875 C14.58361751 21.95845339 9.7588798 21.26438221 5 21 C5 25.95 5 30.9 5 36 C3.35 36 1.7 36 0 36 C0 24.12 0 12.24 0 0 Z " fill="#2F0180" transform="translate(364,602)"/>
<path d="M0 0 C5.72451522 4.10096573 7.68882032 7.30870319 8.859375 14.33203125 C-4.340625 14.33203125 -17.540625 14.33203125 -31.140625 14.33203125 C-29.8302767 7.78028973 -26.91281824 3.37817388 -21.515625 -0.60546875 C-14.37424256 -3.80029774 -6.85849293 -3.881907 0 0 Z " fill="#FCFBFC" transform="translate(279.140625,494.66796875)"/>
<path d="M0 0 C4.31646551 2.28518762 7.0976625 4.45552709 9 9 C9.5701247 14.22614305 8.82117855 17.56671942 6 22 C2.78346473 25.33141153 -0.44323354 25.84287012 -5 26 C-9.64275364 24.36138107 -12.60444733 22.33042214 -15 18 C-15.67301829 13.40986401 -15.53852282 9.40614292 -13.875 5.0625 C-10.01685265 0.81853792 -5.66385593 -0.82597899 0 0 Z " fill="#370686" transform="translate(624,613)"/>
<path d="M0 0 C2.61854734 1.79798873 3.34165855 3.11127618 5 6 C5 8.31 5 10.62 5 13 C-0.94 13 -6.88 13 -13 13 C-11.66436384 17.94463635 -11.66436384 17.94463635 -9 19 C-4.20128976 19.50644046 -4.20128976 19.50644046 -0.0625 17.5 C0.288125 17.005 0.63875 16.51 1 16 C2.32 16.66 3.64 17.32 5 18 C3.96260081 21.34273074 2.92420935 22.04309664 -0.1875 23.8125 C-4.45769206 25.14255982 -6.71154702 25.19123694 -11 24 C-13.8906127 22.20139655 -15.56831648 20.68676923 -17.375 17.8125 C-18.56283213 12.46725544 -18.07203437 7.73743501 -15.1875 3.0625 C-10.46432196 -1.39078216 -6.13583114 -1.85603433 0 0 Z " fill="#44138C" transform="translate(242,614)"/>
<path d="M0 0 C2.7265625 -0.3671875 2.7265625 -0.3671875 6 0 C8.3359375 2.5546875 8.3359375 2.5546875 10.375 5.875 C11.06335938 6.96554687 11.75171875 8.05609375 12.4609375 9.1796875 C14 12 14 12 14 14 C14.66 14 15.32 14 16 14 C16.27328125 13.27425781 16.5465625 12.54851563 16.828125 11.80078125 C17.96055274 9.09427895 19.21067283 6.68269968 20.75 4.1875 C21.45382812 3.00220703 21.45382812 3.00220703 22.171875 1.79296875 C24 0 24 0 27.203125 -0.26171875 C28.12609375 -0.17535156 29.0490625 -0.08898437 30 0 C28.91751309 1.70886979 27.83396706 3.41706871 26.75 5.125 C26.11578125 6.12917969 25.4815625 7.13335938 24.828125 8.16796875 C23.44089735 10.31698595 22.01139153 12.37796295 20.5 14.4375 C18.81839396 16.75806584 18.81839396 16.75806584 19.12109375 18.74609375 C20.41158868 22.0554963 22.48502234 24.77443341 24.5625 27.625 C29 33.73918816 29 33.73918816 29 36 C26.765625 36.3359375 26.765625 36.3359375 24 36 C21.796875 33.6640625 21.796875 33.6640625 19.75 30.625 C19.06421875 29.62726562 18.3784375 28.62953125 17.671875 27.6015625 C16 25 16 25 15 23 C13.68568828 24.79033807 12.3736047 26.58231203 11.0625 28.375 C9.96615234 29.87160156 9.96615234 29.87160156 8.84765625 31.3984375 C7.0220431 33.82817109 7.0220431 33.82817109 6 36 C4.02 36 2.04 36 0 36 C3.42185829 29.84065508 7.1867108 23.92345204 11 18 C10.66677734 17.49025635 10.33355469 16.9805127 9.99023438 16.45532227 C8.49113747 14.15924045 6.99552712 11.86090838 5.5 9.5625 C4.97535156 8.76005859 4.45070313 7.95761719 3.91015625 7.13085938 C3.41386719 6.36708984 2.91757812 5.60332031 2.40625 4.81640625 C1.94541016 4.10943604 1.48457031 3.40246582 1.00976562 2.67407227 C0 1 0 1 0 0 Z " fill="#390786" transform="translate(328,602)"/>
<path d="M0 0 C2.64233769 2.19257809 4.46669809 3.93339618 6 7 C6 8.98 6 10.96 6 13 C-0.27 13 -6.54 13 -13 13 C-9.940253 18.90077487 -9.940253 18.90077487 -7 19.69140625 C-2.80716221 19.42116475 -0.11994029 19.11994029 3 16 C3.66 16.33 4.32 16.66 5 17 C4.6452187 19.57216446 4.1957002 20.79677287 2.375 22.6875 C-0.84553053 24.46726687 -3.32383034 24.87323553 -7 25 C-11.64275364 23.36138107 -14.60444733 21.33042214 -17 17 C-17.85994099 12.6335755 -18.01537954 8.76656942 -15.75390625 4.83203125 C-11.24405408 -0.62252811 -7.01351225 -2.03706301 0 0 Z " fill="#340484" transform="translate(884,614)"/>
<path d="M0 0 C3.06471302 1.65023009 5.30778907 3.056076 7.375 5.875 C8 8 8 8 8 14 C2.06 14 -3.88 14 -10 14 C-8.66436384 18.94463635 -8.66436384 18.94463635 -6 20 C-4.45976004 20.06950541 -2.91665012 20.08452357 -1.375 20.0625 C-0.55773437 20.05347656 0.25953125 20.04445313 1.1015625 20.03515625 C1.72804688 20.02355469 2.35453125 20.01195312 3 20 C3.33 19.01 3.66 18.02 4 17 C4.99 17.33 5.98 17.66 7 18 C6.6452187 20.57216446 6.1957002 21.79677287 4.375 23.6875 C1.15446947 25.46726687 -1.32383034 25.87323553 -5 26 C-9.18457623 24.47102022 -11.71678501 22.84541472 -14 19 C-15.20643566 15.38069302 -15.32268559 12.80768995 -15 9 C-11.64420614 2.5369896 -7.49641301 -1.07091614 0 0 Z " fill="#3F0D8A" transform="translate(688,613)"/>
<path d="M0 0 C3 2.0625 3 2.0625 5 5 C5.33 7.64 5.66 10.28 6 13 C-0.27 13 -6.54 13 -13 13 C-9.940253 18.90077487 -9.940253 18.90077487 -7 19.69140625 C-2.80716221 19.42116475 -0.11994029 19.11994029 3 16 C3.66 17.32 4.32 18.64 5 20 C1.13170974 23.63384843 -1.66513898 24.90640595 -7 25 C-11.64275364 23.36138107 -14.60444733 21.33042214 -17 17 C-17.83320267 11.91576331 -17.56374336 8.12748672 -15.25 3.5 C-10.69878016 -1.55691093 -6.35260897 -1.721206 0 0 Z " fill="#3C0D87" transform="translate(464,614)"/>
<path d="M0 0 C2.9375 2.0625 2.9375 2.0625 5 5 C5.33 7.64 5.66 10.28 6 13 C-0.27 13 -6.54 13 -13 13 C-9.940253 18.90077487 -9.940253 18.90077487 -7 19.69140625 C-2.80716221 19.42116475 -0.11994029 19.11994029 3 16 C3.66 17.32 4.32 18.64 5 20 C1.13170974 23.63384843 -1.66513898 24.90640595 -7 25 C-11.64275364 23.36138107 -14.60444733 21.33042214 -17 17 C-17.85994099 12.6335755 -18.01537954 8.76656942 -15.75390625 4.83203125 C-11.21392507 -0.65896844 -7.04720127 -1.96442453 0 0 Z " fill="#2F0481" transform="translate(191,614)"/>
<path d="M0 0 C2.61854734 1.79798873 3.34165855 3.11127618 5 6 C5 8.31 5 10.62 5 13 C-0.94 13 -6.88 13 -13 13 C-11.66436384 17.94463635 -11.66436384 17.94463635 -9 19 C-7.0870598 19.23434712 -7.0870598 19.23434712 -5 19.25 C-4.29875 19.27578125 -3.5975 19.3015625 -2.875 19.328125 C-2.25625 19.21984375 -1.6375 19.1115625 -1 19 C-0.34 18.01 0.32 17.02 1 16 C2.32 16.66 3.64 17.32 5 18 C4.04972793 20.37568017 3.42917912 21.73093406 1.23046875 23.109375 C-2.7623333 24.70369876 -6.77972566 24.55403926 -11 24 C-14.12325867 22.243167 -15.49010195 20.81120145 -17.375 17.8125 C-18.56283213 12.46725544 -18.07203437 7.73743501 -15.1875 3.0625 C-10.46432196 -1.39078216 -6.13583114 -1.85603433 0 0 Z " fill="#340584" transform="translate(811,614)"/>
<path d="M0 0 C3.06471302 1.65023009 5.30778907 3.056076 7.375 5.875 C8 8 8 8 8 14 C2.06 14 -3.88 14 -10 14 C-8.66436384 18.94463635 -8.66436384 18.94463635 -6 20 C-1.02916876 20.39803635 -1.02916876 20.39803635 3.4375 18.5 C3.953125 18.005 4.46875 17.51 5 17 C5.66 17.33 6.32 17.66 7 18 C6.63595523 20.63932462 6.24498227 21.77318495 4.26171875 23.609375 C0.38460664 25.99322977 -3.59701751 25.6493864 -8 25 C-11.49996383 22.95835443 -13.80555258 20.90910064 -15 17 C-15.4295804 11.58728691 -15.41866383 8.43160126 -12 4 C-8.60270628 0.03649066 -5.10367898 -0.50036068 0 0 Z " fill="#460F8F" transform="translate(405,613)"/>
<path d="M0 0 C2.9375 2.0625 2.9375 2.0625 5 5 C5.33 7.64 5.66 10.28 6 13 C-0.27 13 -6.54 13 -13 13 C-9.940253 18.90077487 -9.940253 18.90077487 -7 19.69140625 C-2.80716221 19.42116475 -0.11994029 19.11994029 3 16 C3.66 17.32 4.32 18.64 5 20 C1.89774819 23.30906859 -0.5079554 24.35538705 -4.9375 24.5625 C-10.22509494 24.36520168 -12.44652854 22.82681542 -16 19 C-17.85634116 15.28731769 -17.44744549 11.05186745 -17 7 C-15.30239041 3.47903197 -14.02875259 1.6572586 -10.75 -0.4375 C-6.93609683 -1.21761656 -3.7335409 -1.14646104 0 0 Z " fill="#27047D" transform="translate(321,614)"/>
<path d="M0 0 C7.26 0 14.52 0 22 0 C22 1.32 22 2.64 22 4 C16.06 4 10.12 4 4 4 C4 7.96 4 11.92 4 16 C9.61 16 15.22 16 21 16 C21 17.32 21 18.64 21 20 C15.39 20 9.78 20 4 20 C4 23.96 4 27.92 4 32 C10.27 32 16.54 32 23 32 C23 33.32 23 34.64 23 36 C15.41 36 7.82 36 0 36 C0 24.12 0 12.24 0 0 Z " fill="#250379" transform="translate(135,602)"/>
<path d="M0 0 C2.69796282 2.9235081 3.36885065 4.81976631 3.29296875 8.765625 C3.28330078 9.65507813 3.27363281 10.54453125 3.26367188 11.4609375 C3.23853516 12.38132812 3.21339844 13.30171875 3.1875 14.25 C3.16719727 15.65378906 3.16719727 15.65378906 3.14648438 17.0859375 C3.11119954 19.39121327 3.06190281 21.6953106 3 24 C2.22527344 23.814375 1.45054687 23.62875 0.65234375 23.4375 C-2.01875078 22.75848241 -2.01875078 22.75848241 -4.4375 24 C-7.79603116 25.31064631 -9.57982801 25.09154425 -13 24 C-15.4375 21.8125 -15.4375 21.8125 -17 19 C-17 15.875 -17 15.875 -16 13 C-13.70502485 10.75239819 -12.42545154 10.04456545 -9.203125 9.70703125 C-8.22859375 9.74183594 -7.2540625 9.77664063 -6.25 9.8125 C-5.26515625 9.83957031 -4.2803125 9.86664062 -3.265625 9.89453125 C-2.51796875 9.92933594 -1.7703125 9.96414063 -1 10 C-1.33 8.02 -1.66 6.04 -2 4 C-5.91985956 3.6353619 -7.49718219 3.61411657 -10.6875 6.0625 C-11.450625 6.701875 -12.21375 7.34125 -13 8 C-13.99 7.67 -14.98 7.34 -16 7 C-15.10219178 3.98009961 -14.2874281 2.26129828 -11.9375 0.125 C-7.90090337 -1.42093062 -4.11094421 -1.40880672 0 0 Z " fill="#3E048A" transform="translate(558,614)"/>
<path d="M0 0 C2.49125314 2.17711964 3.8368477 3.86464225 4.31469727 7.18994141 C4.39365748 9.74256519 4.34895147 12.26069379 4.25 14.8125 C4.23195313 15.69615234 4.21390625 16.57980469 4.1953125 17.49023438 C4.14838513 19.66062543 4.07664731 21.83045519 4 24 C2.68 24 1.36 24 0 24 C-0.33 23.34 -0.66 22.68 -1 22 C-1.66 22.66 -2.32 23.32 -3 24 C-7.26586857 24.70823301 -10.88359496 24.66452681 -14.625 22.4375 C-16 20 -16 20 -16 16.4375 C-14.88287774 12.59739222 -14.38169332 11.90939146 -11 10 C-8.203125 9.70703125 -8.203125 9.70703125 -5.25 9.8125 C-4.26515625 9.83957031 -3.2803125 9.86664062 -2.265625 9.89453125 C-1.51796875 9.92933594 -0.7703125 9.96414063 0 10 C-1.08784968 6.75016865 -1.08784968 6.75016865 -3 4 C-5.41583753 3.66625723 -5.41583753 3.66625723 -8 4 C-9.02019573 4.9793879 -10.02149805 5.97895449 -11 7 C-12.32 7 -13.64 7 -15 7 C-14.08986632 3.93864126 -13.29125962 2.25699379 -10.875 0.125 C-7.11975902 -1.34444212 -3.77537669 -1.56118957 0 0 Z " fill="#320382" transform="translate(281,614)"/>
<path d="M0 0 C2.69990662 1.79993774 4.5418865 3.083773 6 6 C6.08342159 7.44848582 6.10732861 8.90070869 6.09765625 10.3515625 C6.09443359 11.20234375 6.09121094 12.053125 6.08789062 12.9296875 C6.07951172 13.81914063 6.07113281 14.70859375 6.0625 15.625 C6.05798828 16.5221875 6.05347656 17.419375 6.04882812 18.34375 C6.03702591 20.56256648 6.02056155 22.78125018 6 25 C4.35 25 2.7 25 1 25 C0.95101563 23.72382812 0.90203125 22.44765625 0.8515625 21.1328125 C0.77653809 19.46351928 0.70099012 17.79424954 0.625 16.125 C0.5940625 15.28324219 0.563125 14.44148437 0.53125 13.57421875 C0.49257813 12.76855469 0.45390625 11.96289062 0.4140625 11.1328125 C0.3826416 10.38918457 0.3512207 9.64555664 0.31884766 8.87939453 C0.14580449 6.75989026 0.14580449 6.75989026 -2 5 C-5.03344954 5.08885 -5.03344954 5.08885 -8 6 C-10.48044315 9.72066472 -10.44381173 12.86540474 -10.625 17.1875 C-10.66367187 17.93708984 -10.70234375 18.68667969 -10.7421875 19.45898438 C-10.83628216 21.30559199 -10.91922319 23.1527619 -11 25 C-12.32 25 -13.64 25 -15 25 C-15 17.08 -15 9.16 -15 1 C-13.68 1 -12.36 1 -11 1 C-10.67 1.66 -10.34 2.32 -10 3 C-9.46375 2.505 -8.9275 2.01 -8.375 1.5 C-5.28147204 -0.45380713 -3.60630834 -0.51518691 0 0 Z " fill="#340183" transform="translate(491,613)"/>
<path d="M0 0 C1.32 0 2.64 0 4 0 C4.04898438 1.12019531 4.09796875 2.24039063 4.1484375 3.39453125 C4.22347856 4.86721203 4.29902582 6.33986707 4.375 7.8125 C4.4059375 8.55048828 4.436875 9.28847656 4.46875 10.04882812 C4.67346148 13.81893115 4.86433827 15.79650741 7 19 C10.5 19.5 10.5 19.5 14 19 C16.48044315 15.27933528 16.44381173 12.13459526 16.625 7.8125 C16.66367187 7.06291016 16.70234375 6.31332031 16.7421875 5.54101562 C16.83628216 3.69440801 16.91922319 1.8472381 17 0 C18.32 0 19.64 0 21 0 C21 7.92 21 15.84 21 24 C19.68 24 18.36 24 17 24 C16.67 23.34 16.34 22.68 16 22 C15.29875 22.515625 14.5975 23.03125 13.875 23.5625 C10.31068305 25.34465847 8.77560114 25.12464715 5 24 C1.89498744 22.15377632 1.16378237 21.49134712 0 18 C-0.08021999 16.59175107 -0.10765977 15.18002769 -0.09765625 13.76953125 C-0.09282227 12.56586914 -0.09282227 12.56586914 -0.08789062 11.33789062 C-0.07951172 10.50451172 -0.07113281 9.67113281 -0.0625 8.8125 C-0.05798828 7.96751953 -0.05347656 7.12253906 -0.04882812 6.25195312 C-0.03705403 4.16793845 -0.0191189 2.08396023 0 0 Z " fill="#320182" transform="translate(702,614)"/>
<path d="M0 0 C3.20913898 1.30371271 4.26517281 2.81493354 6 5.8125 C6.47223353 9.1012692 6.37849158 12.31139977 6.25 15.625 C6.23195313 16.50865234 6.21390625 17.39230469 6.1953125 18.30273438 C6.14838513 20.47312543 6.07664731 22.64295519 6 24.8125 C4.68 24.8125 3.36 24.8125 2 24.8125 C1.97421875 23.70390625 1.9484375 22.5953125 1.921875 21.453125 C1.86558344 19.98954453 1.80823633 18.52600438 1.75 17.0625 C1.73582031 16.33289063 1.72164062 15.60328125 1.70703125 14.8515625 C1.54559505 11.29996602 1.26940348 9.1730088 -0.8828125 6.29296875 C-2.92818501 4.55146786 -2.92818501 4.55146786 -5.625 4.875 C-8.32289761 5.67905546 -8.32289761 5.67905546 -10 8.8125 C-10.30066154 11.56667318 -10.50925299 14.23895147 -10.625 17 C-10.66367187 17.74958984 -10.70234375 18.49917969 -10.7421875 19.27148438 C-10.83628216 21.11809199 -10.91922319 22.9652619 -11 24.8125 C-12.32 24.8125 -13.64 24.8125 -15 24.8125 C-15 16.8925 -15 8.9725 -15 0.8125 C-13.68 0.8125 -12.36 0.8125 -11 0.8125 C-10.67 1.4725 -10.34 2.1325 -10 2.8125 C-9.505 2.296875 -9.01 1.78125 -8.5 1.25 C-5.5132506 -0.4673809 -3.38322236 -0.3171771 0 0 Z " fill="#2D047F" transform="translate(838,613.1875)"/>
<path d="M0 0 C2 1.9375 2 1.9375 3 4 C3 4.66 3 5.32 3 6 C1.68 6.33 0.36 6.66 -1 7 C-1.66 6.01 -2.32 5.02 -3 4 C-5.58380177 3.74969023 -5.58380177 3.74969023 -8 4 C-8 5.32 -8 6.64 -8 8 C-7.30132813 8.25394531 -6.60265625 8.50789062 -5.8828125 8.76953125 C-4.51769531 9.28580078 -4.51769531 9.28580078 -3.125 9.8125 C-2.22007812 10.14894531 -1.31515625 10.48539063 -0.3828125 10.83203125 C2 12 2 12 4 15 C3.81277751 17.99555978 3.46314925 20.20992186 1.9375 22.8125 C-1.17513123 24.72024172 -4.4186509 25.111699 -8 25 C-10.9375 23.875 -10.9375 23.875 -13 22 C-13.8125 19.3125 -13.8125 19.3125 -14 17 C-12.68 17 -11.36 17 -10 17 C-9.54625 17.495 -9.0925 17.99 -8.625 18.5 C-6.97690414 20.33931546 -6.97690414 20.33931546 -3.8125 20.1875 C-2.884375 20.125625 -1.95625 20.06375 -1 20 C-1 18.35 -1 16.7 -1 15 C-2.85625 14.566875 -2.85625 14.566875 -4.75 14.125 C-11.31234737 12.41762821 -11.31234737 12.41762821 -13 11 C-14 7.625 -14 7.625 -14 4 C-10.04067746 -1.18807782 -6.15702825 -1.6620199 0 0 Z " fill="#3E0889" transform="translate(665,614)"/>
<path d="M0 0 C5.59366755 2.95514512 5.59366755 2.95514512 6.875 6.25 C6.91625 6.8275 6.9575 7.405 7 8 C6.01 8.33 5.02 8.66 4 9 C3.236875 8.34 2.47375 7.68 1.6875 7 C-0.85949258 4.68905689 -0.85949258 4.68905689 -4.125 5 C-6.99690656 5.81780901 -6.99690656 5.81780901 -8.9375 7.5625 C-10.60481306 11.38751231 -9.91628609 13.94216161 -9 18 C-5.30513897 20.46324069 -3.36706908 20.38991688 1 20 C2.94369738 18.64570159 2.94369738 18.64570159 4 17 C4.99 17.33 5.98 17.66 7 18 C6.6452187 20.57216446 6.1957002 21.79677287 4.375 23.6875 C1.15446947 25.46726687 -1.32383034 25.87323553 -5 26 C-8.81403781 24.72865406 -10.67922641 23.35453923 -13.375 20.375 C-15.45009997 16.06517698 -16.09812301 12.6934591 -15 8 C-11.32371113 1.81138833 -7.3255262 -0.71818884 0 0 Z " fill="#390987" transform="translate(757,613)"/>
<path d="M0 0 C3 2.0625 3 2.0625 5 4 C4.34 5.32 3.68 6.64 3 8 C2.13375 7.319375 1.2675 6.63875 0.375 5.9375 C-2.81234183 3.72274185 -2.81234183 3.72274185 -6.1875 4.0625 C-9.76786544 5.1984253 -9.76786544 5.1984253 -12 8 C-12.3931463 11.60384106 -12.39343329 14.09741776 -10.9375 17.4375 C-8.95402832 19.31758415 -8.95402832 19.31758415 -5.5 19.4375 C-2.05961749 19.30922662 -2.05961749 19.30922662 -0.0625 17.5 C0.288125 17.005 0.63875 16.51 1 16 C2.32 16.66 3.64 17.32 5 18 C2.25 22.875 2.25 22.875 0 24 C-4.09157355 24.51512617 -8.23589546 24.94367269 -11.95703125 22.953125 C-14.09315687 21.18601378 -15.75449171 19.49101659 -17 17 C-17.41654299 12.47410015 -17.51073318 8.33358109 -15.875 4.0625 C-11.29195804 -0.97884616 -6.32652354 -1.97460283 0 0 Z " fill="#3B0888" transform="translate(520,614)"/>
<path d="M0 0 C2.11025696 1.60993782 2.89751291 2.49864425 3.43359375 5.12109375 C3.43994339 8.88642847 3.4311636 11.29289169 1.4375 14.5625 C-1.98306617 16.57975697 -4.09873948 16.6269883 -8 16 C-11.22456813 13.27151928 -11.91290117 11.62057913 -12.5 7.4375 C-11.9257958 3.48984615 -11.11700276 2.38359035 -8 0 C-5.06317146 -1.46841427 -3.13175678 -0.76696084 0 0 Z " fill="#FAF7FB" transform="translate(625,618)"/>
<path d="M0 0 C2.29296875 -0.00390625 2.29296875 -0.00390625 5 1 C6.55541083 3.52432974 7.40284132 6.25191869 8.3125 9.0625 C8.57611328 9.82111328 8.83972656 10.57972656 9.11132812 11.36132812 C9.75931881 13.23461029 10.38210159 15.1165777 11 17 C13.92678249 11.44920563 16.1668733 5.99932374 18 0 C19.65 0 21.3 0 23 0 C20.41874331 8.17397951 17.22988119 16.06640834 14 24 C12.35 24 10.7 24 9 24 C7.49115787 20.56631406 5.99446599 17.12746451 4.5 13.6875 C4.07074219 12.71103516 3.64148438 11.73457031 3.19921875 10.72851562 C2.79316406 9.79072266 2.38710937 8.85292969 1.96875 7.88671875 C1.40317383 6.59060669 1.40317383 6.59060669 0.82617188 5.26831055 C0 3 0 3 0 0 Z " fill="#390886" transform="translate(199,614)"/>
<path d="M0 0 C2.85299533 2.34353188 3.90077711 4.10699401 4.3125 7.8125 C3.91698737 11.84672885 3.04956189 13.34140758 0 16 C-3.44895842 16.48406434 -5.75979585 16.66144221 -8.875 15 C-10.66588922 11.81619695 -11.25285806 8.60322729 -11 5 C-7.88058577 -0.05560237 -5.75514477 -1.68443262 0 0 Z " fill="#F9F7FB" transform="translate(595,618)"/>
<path d="M0 0 C1.32 0 2.64 0 4 0 C4 2.97 4 5.94 4 9 C5.98 9 7.96 9 10 9 C10 10.32 10 11.64 10 13 C8.02 13 6.04 13 4 13 C4.33 17.95 4.66 22.9 5 28 C6.98 28.33 8.96 28.66 11 29 C11 30.32 11 31.64 11 33 C9.54257537 33.08096803 8.08387193 33.13917774 6.625 33.1875 C5.81289063 33.22230469 5.00078125 33.25710938 4.1640625 33.29296875 C3.44992187 33.19628906 2.73578125 33.09960938 2 33 C-0.03120707 29.95318939 -0.24659875 29.39881676 -0.1953125 25.98828125 C-0.18886719 25.23095703 -0.18242188 24.47363281 -0.17578125 23.69335938 C-0.15902344 22.90767578 -0.14226563 22.12199219 -0.125 21.3125 C-0.11597656 20.51521484 -0.10695313 19.71792969 -0.09765625 18.89648438 C-0.07411585 16.930861 -0.03824547 14.96539225 0 13 C-1.32 13 -2.64 13 -4 13 C-4 11.68 -4 10.36 -4 9 C-2.68 9 -1.36 9 0 9 C0 6.03 0 3.06 0 0 Z " fill="#2C007F" transform="translate(853,605)"/>
<path d="M0 0 C1.65 0 3.3 0 5 0 C5 12.21 5 24.42 5 37 C3.35 37 1.7 37 0 37 C0 24.79 0 12.58 0 0 Z " fill="#46088F" transform="translate(770,601)"/>
<path d="M0 0 C1.65 0 3.3 0 5 0 C5 12.21 5 24.42 5 37 C3.35 37 1.7 37 0 37 C0 24.79 0 12.58 0 0 Z " fill="#490990" transform="translate(163,601)"/>
<path d="M0 0 C0.99 0 1.98 0 3 0 C3 1.65 3 3.3 3 5 C8.28 5.33 13.56 5.66 19 6 C18.67 4.68 18.34 3.36 18 2 C18.66 2 19.32 2 20 2 C20.33 3.65 20.66 5.3 21 7 C15.06 7 9.12 7 3 7 C4.65077902 10.75170424 4.65077902 10.75170424 7 14 C12.53550307 14.48323069 12.53550307 14.48323069 17.5 12.5 C17.995 12.005 18.49 11.51 19 11 C19.66 12.32 20.32 13.64 21 15 C17.13170974 18.63384843 14.33486102 19.90640595 9 20 C4.35724636 18.36138107 1.39555267 16.33042214 -1 12 C-1.45315231 7.95354138 -1.85360833 3.70721667 0 0 Z " fill="#390C85" transform="translate(175,619)"/>
<path d="M0 0 C8.04 -0.48 8.04 -0.48 12.125 1.5625 C14 4 14 4 14 7.625 C13 11 13 11 10 13 C6.64683663 13.26402861 3.36941342 13.08751723 0 13 C0 8.71 0 4.42 0 0 Z " fill="#FBFAFC" transform="translate(369,606)"/>
<path d="M0 0 C7.11796247 0.36193029 7.11796247 0.36193029 10.9375 3.125 C13.35506808 6.49494339 13.75889617 8.90123495 14 13 C11.03 13 8.06 13 5 13 C5 12.67 5 12.34 5 12 C1.7 11.67 -1.6 11.34 -5 11 C-3.75023244 7.34683329 -3.32901247 6.21934164 0 4 C-0.33 3.34 -0.66 2.68 -1 2 C-0.67 1.34 -0.34 0.68 0 0 Z " fill="#3C0B89" transform="translate(876,613)"/>
<path d="M0 0 C3.06471302 1.65023009 5.30778907 3.056076 7.375 5.875 C8 8 8 8 8 14 C1.73 14 -4.54 14 -11 14 C-10.67 13.01 -10.34 12.02 -10 11 C-5.38 11 -0.76 11 4 11 C3.01 9.35 2.02 7.7 1 6 C-2.89335307 5.02666173 -5.17853346 4.72617782 -9 6 C-9.33 6.99 -9.66 7.98 -10 9 C-10.66 8.67 -11.32 8.34 -12 8 C-12.66 8.66 -13.32 9.32 -14 10 C-13.52153935 5.69385411 -12.34073619 3.75119451 -9 1 C-5.64870516 -0.11709828 -3.51689744 -0.34479387 0 0 Z " fill="#340684" transform="translate(688,613)"/>
<path d="M0 0 C0 1.65 0 3.3 0 5 C-2.31 5.66 -4.62 6.32 -7 7 C-7.33 12.94 -7.66 18.88 -8 25 C-9.65 25 -11.3 25 -13 25 C-13 17.08 -13 9.16 -13 1 C-11.68 1 -10.36 1 -9 1 C-8.67 1.66 -8.34 2.32 -8 3 C-7.4225 2.505 -6.845 2.01 -6.25 1.5 C-4 0 -4 0 0 0 Z " fill="#42098B" transform="translate(432,613)"/>
<path d="M0 0 C2.61854734 1.79798873 3.34165855 3.11127618 5 6 C5 8.31 5 10.62 5 13 C-0.61 13 -6.22 13 -12 13 C-12 12.67 -12 12.34 -12 12 C-6.72 12 -1.44 12 4 12 C3.67 11.34 3.34 10.68 3 10 C2.67 10.33 2.34 10.66 2 11 C-0.69654854 11.07319621 -3.36691458 11.09242537 -6.0625 11.0625 C-7.20041992 11.05573242 -7.20041992 11.05573242 -8.36132812 11.04882812 C-10.24091871 11.0370068 -12.12046899 11.01907078 -14 11 C-14 10.67 -14 10.34 -14 10 C-9.05 10 -4.1 10 1 10 C0.67 8.35 0.34 6.7 0 5 C-6.26169346 3.81316277 -6.26169346 3.81316277 -12 6 C-12.99 5.67 -13.98 5.34 -15 5 C-15.33 8.96 -15.66 12.92 -16 17 C-18 15 -18 15 -18.1171875 13.01171875 C-17.58322273 7.8873794 -16.90273214 4.67971888 -13 1 C-8.63929697 -1.6475697 -4.80782637 -1.4543247 0 0 Z " fill="#390B86" transform="translate(242,614)"/>
<path d="M0 0 C1 2 1 2 0 6 C4.95 6 9.9 6 15 6 C15 6.33 15 6.66 15 7 C10.05 7 5.1 7 0 7 C2.55535135 11.71704177 2.55535135 11.71704177 5 14 C10.54096927 14.52799624 10.54096927 14.52799624 15.5 12.5 C15.995 12.005 16.49 11.51 17 11 C17.66 12.32 18.32 13.64 19 15 C15.89774819 18.30906859 13.4920446 19.35538705 9.0625 19.5625 C3.77490506 19.36520168 1.55347146 17.82681542 -2 14 C-3.23408207 11.53183586 -3.20197579 9.75338799 -3.25 7 C-3.27578125 6.113125 -3.3015625 5.22625 -3.328125 4.3125 C-3.21984375 3.549375 -3.1115625 2.78625 -3 2 C-2.01 1.34 -1.02 0.68 0 0 Z " fill="#2C037C" transform="translate(307,619)"/>
<path d="M0 0 C2.43520658 0.33589056 3.76987482 0.79642773 5.625 2.4375 C7.76300461 6.42196314 7.31543809 10.30825179 7.1875 14.75 C7.17396484 15.63816406 7.16042969 16.52632812 7.14648438 17.44140625 C7.11121309 19.62822578 7.06192752 21.81379966 7 24 C5.35 24 3.7 24 2 24 C1.95101563 22.72382812 1.90203125 21.44765625 1.8515625 20.1328125 C1.77653809 18.46351928 1.70099012 16.79424954 1.625 15.125 C1.5940625 14.28324219 1.563125 13.44148437 1.53125 12.57421875 C1.49257813 11.76855469 1.45390625 10.96289062 1.4140625 10.1328125 C1.3826416 9.38918457 1.3512207 8.64555664 1.31884766 7.87939453 C1.14580449 5.75989026 1.14580449 5.75989026 -1 4 C-2.31747324 3.30251417 -3.64914193 2.63040043 -5 2 C-3.35 1.67 -1.7 1.34 0 1 C0 0.67 0 0.34 0 0 Z " fill="#4E2093" transform="translate(490,614)"/>
<path d="M0 0 C1.485 0.99 1.485 0.99 3 2 C3.66 1.67 4.32 1.34 5 1 C5.66 1.66 6.32 2.32 7 3 C6.34 3 5.68 3 5 3 C5.60183749 5.02045442 6.27306096 7.02111039 7 9 C9.21295616 10.10647808 10.54672699 10.19588368 13 10.25 C14.051875 10.28867187 14.051875 10.28867187 15.125 10.328125 C15.74375 10.21984375 16.3625 10.1115625 17 10 C17.66 9.01 18.32 8.02 19 7 C20.32 7.66 21.64 8.32 23 9 C22.04972793 11.37568017 21.42917912 12.73093406 19.23046875 14.109375 C15.2376667 15.70369876 11.22027434 15.55403926 7 15 C3.78274987 13.1902968 2.45677461 11.82654453 0.6875 8.625 C-0.08971478 5.65745265 -0.14209627 3.05506987 0 0 Z " fill="#3E0B89" transform="translate(793,623)"/>
<path d="M0 0 C1.65 0 3.3 0 5 0 C5 7.92 5 15.84 5 24 C3.35 24 1.7 24 0 24 C0 16.08 0 8.16 0 0 Z " fill="#480C8F" transform="translate(436,614)"/>
<path d="M0 0 C0.99 0.33 1.98 0.66 3 1 C3.31464883 6.24414718 2.83856733 9.53939419 0 14 C-3.21319661 17.32795363 -6.47912844 17.66512063 -11 18 C-11.66 17.67 -12.32 17.34 -13 17 C-13 16.34 -13 15.68 -13 15 C-13.639375 14.7525 -14.27875 14.505 -14.9375 14.25 C-17 13 -17 13 -17.75 10.875 C-17.8325 10.25625 -17.915 9.6375 -18 9 C-17.54625 9.70125 -17.0925 10.4025 -16.625 11.125 C-14.19737984 13.2807165 -14.19737984 13.2807165 -11.5078125 12.8203125 C-8.9747626 12.29648065 -6.4889585 11.70298828 -4 11 C-3.566875 9.1128125 -3.566875 9.1128125 -3.125 7.1875 C-2.42696461 4.1460601 -1.79553415 2.69330122 0 0 Z " fill="#430B8D" transform="translate(630,621)"/>
<path d="M0 0 C-0.66 0.66 -1.32 1.32 -2 2 C-1.34 2.66 -0.68 3.32 0 4 C-0.94875 4.433125 -1.8975 4.86625 -2.875 5.3125 C-6.20041937 6.79302201 -6.20041937 6.79302201 -8 10 C-8.10129453 11.96497504 -8.10129453 11.96497504 -7.75 14 C-7.66234375 14.680625 -7.5746875 15.36125 -7.484375 16.0625 C-7.0388889 18.30603109 -7.0388889 18.30603109 -5 21 C-5.99 21 -6.98 21 -8 21 C-7.34 21.99 -6.68 22.98 -6 24 C-8.58484592 23.0195412 -9.94843031 22.06077857 -11.75 19.9375 C-13.48134893 15.86883001 -13.69826329 12.35839063 -13 8 C-11.34828367 4.75555721 -10.02631764 2.72835445 -7.0625 0.625 C-4.62504469 -0.11362282 -2.53293079 -0.14071838 0 0 Z " fill="#320982" transform="translate(593,613)"/>
<path d="M0 0 C1.32 0 2.64 0 4 0 C4 7.92 4 15.84 4 24 C2.68 24 1.36 24 0 24 C0 16.08 0 8.16 0 0 Z " fill="#2A017C" transform="translate(531,614)"/>
<path d="M0 0 C1.32 0 2.64 0 4 0 C4 7.92 4 15.84 4 24 C2.68 24 1.36 24 0 24 C0 16.08 0 8.16 0 0 Z " fill="#2E007F" transform="translate(783,614)"/>
<path d="M0 0 C0.33 0.66 0.66 1.32 1 2 C1.99 1.67 2.98 1.34 4 1 C4.86625 1.7115625 4.86625 1.7115625 5.75 2.4375 C8.9502661 4.65990701 11.18715347 4.40851927 15 4 C17.40083438 2.64114884 17.40083438 2.64114884 19 1 C19.66 1.33 20.32 1.66 21 2 C20.63595523 4.63932462 20.24498227 5.77318495 18.26171875 7.609375 C14.3807561 9.99559728 10.40683272 9.64177176 6 9 C2.50357935 7.07340087 1.31768794 6.07525149 0.1875 2.25 C0.125625 1.5075 0.06375 0.765 0 0 Z " fill="#3E088B" transform="translate(391,629)"/>
<path d="M0 0 C2.5 3.0625 2.5 3.0625 3.5 11.0625 C-2.44 11.0625 -8.38 11.0625 -14.5 11.0625 C-14.83 10.0725 -15.16 9.0825 -15.5 8.0625 C-10.88 8.0625 -6.26 8.0625 -1.5 8.0625 C-2.83563616 3.11786365 -2.83563616 3.11786365 -5.5 2.0625 C-5.5 1.4025 -5.5 0.7425 -5.5 0.0625 C-8.14 0.3925 -10.78 0.7225 -13.5 1.0625 C-13.17 0.4025 -12.84 -0.2575 -12.5 -0.9375 C-8.09895834 -2.33656798 -3.86229285 -2.80039725 0 0 Z " fill="#330585" transform="translate(466.5,615.9375)"/>
<path d="M0 0 C6.6 0 13.2 0 20 0 C20 0.66 20 1.32 20 2 C14.06 2 8.12 2 2 2 C2.020625 4.76375 2.04125 7.5275 2.0625 10.375 C2.08694871 16.98927061 1.84770153 23.43031311 1 30 C0.67 30 0.34 30 0 30 C0 20.1 0 10.2 0 0 Z " fill="#4D0095" transform="translate(136,603)"/>
<path d="M0 0 C0.33 0 0.66 0 1 0 C1.02692484 2.29160319 1.04636124 4.58329546 1.0625 6.875 C1.07410156 8.15117188 1.08570313 9.42734375 1.09765625 10.7421875 C1 14 1 14 0 16 C3.96 16 7.92 16 12 16 C12 16.33 12 16.66 12 17 C8.37 17 4.74 17 1 17 C1 21.95 1 26.9 1 32 C-0.32 31.67 -1.64 31.34 -3 31 C-3 25.39 -3 19.78 -3 14 C-2.01 13.67 -1.02 13.34 0 13 C0 8.71 0 4.42 0 0 Z " fill="#5F249F" transform="translate(368,606)"/>
<path d="M0 0 C3.4375 0.75 3.4375 0.75 5.4375 2.75 C5.4375 4.07 5.4375 5.39 5.4375 6.75 C0.8175 6.75 -3.8025 6.75 -8.5625 6.75 C-5.70243174 -0.40017065 -5.70243174 -0.40017065 0 0 Z " fill="#E9DEF1" transform="translate(459.5625,617.25)"/>
<path d="M0 0 C3.4375 0.75 3.4375 0.75 5.4375 2.75 C5.4375 4.07 5.4375 5.39 5.4375 6.75 C0.8175 6.75 -3.8025 6.75 -8.5625 6.75 C-5.70243174 -0.40017065 -5.70243174 -0.40017065 0 0 Z " fill="#E7DCF0" transform="translate(186.5625,617.25)"/>
<path d="M0 0 C0.33 0 0.66 0 1 0 C1 3.63 1 7.26 1 11 C7.6 11 14.2 11 21 11 C21 11.99 21 12.98 21 14 C13.74 14 6.48 14 -1 14 C-0.67 9.38 -0.34 4.76 0 0 Z " fill="#3F018B" transform="translate(137,623)"/>
<path d="M0 0 C3.4375 0.8125 3.4375 0.8125 5.4375 3.8125 C5.4375 4.8025 5.4375 5.7925 5.4375 6.8125 C0.8175 6.8125 -3.8025 6.8125 -8.5625 6.8125 C-5.71713918 -0.30090206 -5.71713918 -0.30090206 0 0 Z " fill="#E8DDF1" transform="translate(316.5625,617.1875)"/>
<path d="M0 0 C2.3125 1.8125 2.3125 1.8125 4 4 C4 4.99 4 5.98 4 7 C-0.62 7 -5.24 7 -10 7 C-9 3 -9 3 -7.25 1.25 C-4.50032456 -0.27759747 -3.09944665 -0.54240316 0 0 Z " fill="#E9DFF0" transform="translate(239,617)"/>
<path d="M0 0 C2.3125 1.8125 2.3125 1.8125 4 4 C4 4.99 4 5.98 4 7 C-0.62 7 -5.24 7 -10 7 C-9 3 -9 3 -7.25 1.25 C-4.50032456 -0.27759747 -3.09944665 -0.54240316 0 0 Z " fill="#E9E0F1" transform="translate(808,617)"/>
<path d="M0 0 C0.33 0 0.66 0 1 0 C0.96744792 1.92057292 0.93489583 3.84114583 0.90234375 5.76171875 C0.93950395 8.03385112 0.93950395 8.03385112 1.5 10.34375 C2.1026324 13.54523462 2.09538333 16.55705018 2.0625 19.8125 C2.05347656 20.97394531 2.04445313 22.13539063 2.03515625 23.33203125 C2.02355469 24.21246094 2.01195312 25.09289062 2 26 C5.38317487 26.97591583 7.5657338 26.85856655 11 26 C11 27.32 11 28.64 11 30 C9.54257537 30.08096803 8.08387193 30.13917774 6.625 30.1875 C5.81289063 30.22230469 5.00078125 30.25710938 4.1640625 30.29296875 C3.44992187 30.19628906 2.73578125 30.09960938 2 30 C-0.03120707 26.95318939 -0.24659875 26.39881676 -0.1953125 22.98828125 C-0.18886719 22.23095703 -0.18242188 21.47363281 -0.17578125 20.69335938 C-0.15902344 19.90767578 -0.14226563 19.12199219 -0.125 18.3125 C-0.11597656 17.51521484 -0.10695313 16.71792969 -0.09765625 15.89648438 C-0.07411585 13.930861 -0.03824547 11.96539225 0 10 C-1.32 10 -2.64 10 -4 10 C-4 8.68 -4 7.36 -4 6 C-2.68 6 -1.36 6 0 6 C0 4.02 0 2.04 0 0 Z " fill="#28017B" transform="translate(853,608)"/>
<path d="M0 0 C0.33 2.31 0.66 4.62 1 7 C0.01 6.67 -0.98 6.34 -2 6 C-2 5.34 -2 4.68 -2 4 C-5.91985956 3.6353619 -7.49718219 3.61411657 -10.6875 6.0625 C-11.450625 6.701875 -12.21375 7.34125 -13 8 C-13.99 7.67 -14.98 7.34 -16 7 C-15.10219178 3.98009961 -14.2874281 2.26129828 -11.9375 0.125 C-7.7817625 -1.46655904 -4.30537525 -0.77853191 0 0 Z " fill="#3A0686" transform="translate(558,614)"/>
<path d="M0 0 C3.5 0.9375 3.5 0.9375 5.4375 2.875 C6.5 4.9375 6.5 4.9375 6.5 6.9375 C1.88 6.9375 -2.74 6.9375 -7.5 6.9375 C-6.17891305 1.65315221 -5.66776487 -0.10121009 0 0 Z " fill="#EAE0F2" transform="translate(402.5,617.0625)"/>
<path d="M0 0 C1.8871875 0.061875 1.8871875 0.061875 3.8125 0.125 C3.5 3 3.5 3 2.8125 6.125 C-0.1875 8.125 -0.1875 8.125 -3.375 7.75 C-4.303125 7.54375 -5.23125 7.3375 -6.1875 7.125 C-6.5175 5.475 -6.8475 3.825 -7.1875 2.125 C-4.09861478 0.06574319 -3.47814073 -0.1140374 0 0 Z " fill="#F6F3F8" transform="translate(553.1875,626.875)"/>
<path d="M0 0 C1.22589844 0.01353516 1.22589844 0.01353516 2.4765625 0.02734375 C3.41628906 0.04474609 3.41628906 0.04474609 4.375 0.0625 C4.04726629 3.09403686 3.73365103 4.67823103 1.625 6.9375 C-1.24039161 8.37019581 -2.62668883 8.03492524 -5.625 7.0625 C-6.625 6.0625 -6.625 6.0625 -6.6875 3.5 C-6.666875 2.695625 -6.64625 1.89125 -6.625 1.0625 C-4.21954362 -0.14022819 -2.67503047 -0.03821472 0 0 Z " fill="#F5F1F8" transform="translate(276.625,626.9375)"/>
<path d="M0 0 C2 1.9375 2 1.9375 3 4 C3 4.66 3 5.32 3 6 C1.68 6.33 0.36 6.66 -1 7 C-1.66 6.01 -2.32 5.02 -3 4 C-5.80561762 3.71943824 -7.46578263 3.73289132 -10 5 C-10.33 4.34 -10.66 3.68 -11 3 C-11.33 4.65 -11.66 6.3 -12 8 C-12.66 8 -13.32 8 -14 8 C-13.76073573 4.41103589 -13.60993153 2.57296598 -10.9375 0.0625 C-6.72618415 -1.4607419 -4.36880118 -1.05696803 0 0 Z " fill="#330682" transform="translate(665,614)"/>
<path d="M0 0 C0.99 0.33 1.98 0.66 3 1 C2.6452187 3.57216446 2.1957002 4.79677287 0.375 6.6875 C-2.75114543 8.41510669 -5.4568739 8.7423181 -9 9 C-9.99 8.67 -10.98 8.34 -12 8 C-12 7.01 -12 6.02 -12 5 C-11.07767578 4.83564453 -11.07767578 4.83564453 -10.13671875 4.66796875 C-9.32847656 4.50941406 -8.52023437 4.35085938 -7.6875 4.1875 C-6.88699219 4.03667969 -6.08648438 3.88585937 -5.26171875 3.73046875 C-2.76554413 2.92427764 -1.67577894 1.97947998 0 0 Z " fill="#380885" transform="translate(886,630)"/>
<path d="M0 0 C1.26328125 0.11988281 2.5265625 0.23976563 3.828125 0.36328125 C5.27445313 0.52376953 5.27445313 0.52376953 6.75 0.6875 C6.75 1.0175 6.75 1.3475 6.75 1.6875 C5.59371094 1.76097656 5.59371094 1.76097656 4.4140625 1.8359375 C3.41117188 1.91070313 2.40828125 1.98546875 1.375 2.0625 C0.37726562 2.13210938 -0.62046875 2.20171875 -1.6484375 2.2734375 C-4.40508879 2.45113964 -4.40508879 2.45113964 -6.25 4.6875 C-5.92801034 7.78676819 -5.92801034 7.78676819 -5.25 10.6875 C-6.24 10.3575 -7.23 10.0275 -8.25 9.6875 C-8.25 7.7075 -8.25 5.7275 -8.25 3.6875 C-8.91 3.6875 -9.57 3.6875 -10.25 3.6875 C-9.3895861 8.01979715 -9.3895861 8.01979715 -7.25 11.6875 C-4.92182036 12.05510731 -2.5881615 12.38991581 -0.25 12.6875 C-0.91 13.3475 -1.57 14.0075 -2.25 14.6875 C-6.10243297 14.60375146 -7.79810884 14.09304335 -10.6875 11.5 C-12.25 8.6875 -12.25 8.6875 -12.25 5.5625 C-10.04752327 -0.7696206 -6.11311005 -0.62263158 0 0 Z " fill="#3F0F8B" transform="translate(553.25,624.3125)"/>
<path d="M0 0 C3.4375 0.75 3.4375 0.75 5.4375 2.75 C5.4375 3.74 5.4375 4.73 5.4375 5.75 C1.1475 5.75 -3.1425 5.75 -7.5625 5.75 C-6.28234219 0.62936878 -5.29871789 -0.37183985 0 0 Z " fill="#F7F4FA" transform="translate(879.5625,617.25)"/>
<path d="M0 0 C2.25 0.125 2.25 0.125 5 1 C8.81413646 5.43264507 9 6.8838256 9 13 C2.73 13 -3.54 13 -10 13 C-10 12.67 -10 12.34 -10 12 C-4.06 12 1.88 12 8 12 C7.34 10.35 6.68 8.7 6 7 C5.67 7.99 5.34 8.98 5 10 C4.649375 9.195625 4.29875 8.39125 3.9375 7.5625 C2.15799069 4.62631032 2.15799069 4.62631032 -1.5625 4.25 C-2.696875 4.1675 -3.83125 4.085 -5 4 C-5.66 3.67 -6.32 3.34 -7 3 C-4.69 2.34 -2.38 1.68 0 1 C0 0.67 0 0.34 0 0 Z " fill="#27047B" transform="translate(404,614)"/>
<path d="M0 0 C3.5 0.9375 3.5 0.9375 6.5 5.9375 C1.88 5.9375 -2.74 5.9375 -7.5 5.9375 C-6.23092433 0.86119731 -5.24233866 -0.09361319 0 0 Z " fill="#F9F6FA" transform="translate(685.5,617.0625)"/>
<path d="M0 0 C2.5 2.0625 2.5 2.0625 5 5 C5 7.31 5 9.62 5 12 C-0.61 12 -6.22 12 -12 12 C-12 11.67 -12 11.34 -12 11 C-6.72 11 -1.44 11 4 11 C3.67 10.34 3.34 9.68 3 9 C2.67 9.33 2.34 9.66 2 10 C-0.69654854 10.07319621 -3.36691458 10.09242537 -6.0625 10.0625 C-7.20041992 10.05573242 -7.20041992 10.05573242 -8.36132812 10.04882812 C-10.24091871 10.0370068 -12.12046899 10.01907078 -14 10 C-14 9.67 -14 9.34 -14 9 C-9.05 9 -4.1 9 1 9 C0.34 7.02 -0.32 5.04 -1 3 C-0.67 2.01 -0.34 1.02 0 0 Z " fill="#25017A" transform="translate(242,615)"/>
<path d="M0 0 C0.9075 0.226875 1.815 0.45375 2.75 0.6875 C3.08 2.6675 3.41 4.6475 3.75 6.6875 C0.78 6.6875 -2.19 6.6875 -5.25 6.6875 C-5.91 5.3675 -6.57 4.0475 -7.25 2.6875 C-4.61280971 0.1517401 -3.74095095 -0.35970682 0 0 Z " fill="#F0E9F5" transform="translate(553.25,617.3125)"/>
<path d="M0 0 C0.99 0.66 1.98 1.32 3 2 C3 3.32 3 4.64 3 6 C-3.27 6 -9.54 6 -16 6 C-15.67 5.01 -15.34 4.02 -15 3 C-10.05 3 -5.1 3 0 3 C0 2.01 0 1.02 0 0 Z " fill="#2D017F" transform="translate(693,621)"/>
<path d="M0 0 C3.6875 0.4375 3.6875 0.4375 6.5625 2.625 C8.68590626 5.43539064 9.49941672 6.95795926 9.6875 10.4375 C9.3575 11.0975 9.0275 11.7575 8.6875 12.4375 C7.6975 12.4375 6.7075 12.4375 5.6875 12.4375 C5.006875 10.766875 5.006875 10.766875 4.3125 9.0625 C2.96284014 5.47550992 2.96284014 5.47550992 0.6875 3.4375 C-1.30071313 3.03985737 -3.30194339 2.69974651 -5.3125 2.4375 C-3.3125 0.4375 -3.3125 0.4375 0 0 Z " fill="#3E058A" transform="translate(317.3125,613.5625)"/>
<path d="M0 0 C3 1 3 1 5 4 C5.22705078 5.90112305 5.22705078 5.90112305 5.1953125 8.01171875 C5.18886719 8.76904297 5.18242187 9.52636719 5.17578125 10.30664062 C5.15902344 11.09232422 5.14226562 11.87800781 5.125 12.6875 C5.11597656 13.48478516 5.10695313 14.28207031 5.09765625 15.10351562 C5.07411585 17.069139 5.03824547 19.03460775 5 21 C3.68 20.67 2.36 20.34 1 20 C1.01160156 18.80761719 1.02320313 17.61523438 1.03515625 16.38671875 C1.04453592 14.82031406 1.05363593 13.25390769 1.0625 11.6875 C1.07087891 10.90181641 1.07925781 10.11613281 1.08789062 9.30664062 C1.09111328 8.54931641 1.09433594 7.79199219 1.09765625 7.01171875 C1.10289307 6.31522217 1.10812988 5.61872559 1.11352539 4.90112305 C1.06895991 2.77502032 1.06895991 2.77502032 0 0 Z " fill="#360084" transform="translate(492,617)"/>
<path d="M0 0 C0.99 0 1.98 0 3 0 C2.67 1.65 2.34 3.3 2 5 C6.95 5 11.9 5 17 5 C17.33 4.01 17.66 3.02 18 2 C18.33 3.65 18.66 5.3 19 7 C17.85660156 7.04898438 16.71320313 7.09796875 15.53515625 7.1484375 C14.04424527 7.22345189 12.55336108 7.29900028 11.0625 7.375 C9.93038086 7.42140625 9.93038086 7.42140625 8.77539062 7.46875 C6.84492605 7.5726315 4.92057919 7.77895614 3 8 C2.67 8.66 2.34 9.32 2 10 C1.34 10 0.68 10 0 10 C-0.33 10.66 -0.66 11.32 -1 12 C-1.02698189 10.37509046 -1.04638757 8.75005367 -1.0625 7.125 C-1.07410156 6.22007812 -1.08570313 5.31515625 -1.09765625 4.3828125 C-1 2 -1 2 0 0 Z " fill="#47028F" transform="translate(227,619)"/>
<path d="M0 0 C2.04470249 1.66736408 2.92566921 2.52497566 3.34057617 5.17651367 C3.32486572 5.99869385 3.30915527 6.82087402 3.29296875 7.66796875 C3.28330078 8.56064453 3.27363281 9.45332031 3.26367188 10.37304688 C3.23853516 11.30181641 3.21339844 12.23058594 3.1875 13.1875 C3.17396484 14.12787109 3.16042969 15.06824219 3.14648438 16.03710938 C3.11113096 18.35865038 3.06178674 20.67903653 3 23 C1.68 22.67 0.36 22.34 -1 22 C-0.34 21.67 0.32 21.34 1 21 C1.4683265 18.41394668 1.4683265 18.41394668 1.625 15.4375 C1.74875 13.643125 1.8725 11.84875 2 10 C-2.29 10 -6.58 10 -11 10 C-11 9.67 -11 9.34 -11 9 C-7.7 9 -4.4 9 -1 9 C-1 7.35 -1 5.7 -1 4 C-0.70955086 2.65667272 -0.39044206 1.31774196 0 0 Z " fill="#210176" transform="translate(558,615)"/>
<path d="M0 0 C4.95 0 9.9 0 15 0 C14.34 1.32 13.68 2.64 13 4 C9.75 5 9.75 5 6 5 C2.5625 3.125 2.5625 3.125 0 1 C0 0.67 0 0.34 0 0 Z " fill="#430F8D" transform="translate(703,634)"/>
<path d="M0 0 C3.61703101 2.83071992 3.13119582 3.78717492 4 9 C-4.415 9.495 -4.415 9.495 -13 10 C-13.33 11.32 -13.66 12.64 -14 14 C-15.32 13.67 -16.64 13.34 -18 13 C-17.34 11.35 -16.68 9.7 -16 8 C-10.06 7.67 -4.12 7.34 2 7 C1.34 4.69 0.68 2.38 0 0 Z " fill="#4D0C93" transform="translate(408,617)"/>
<path d="M0 0 C0.99 0 1.98 0 3 0 C3 1.65 3 3.3 3 5 C8.28 5.33 13.56 5.66 19 6 C18.67 4.68 18.34 3.36 18 2 C18.66 2 19.32 2 20 2 C20.33 3.65 20.66 5.3 21 7 C15.06 7.33 9.12 7.66 3 8 C2.67 8.99 2.34 9.98 2 11 C1.34 11 0.68 11 0 11 C-0.19491452 9.54263913 -0.38069358 8.08405407 -0.5625 6.625 C-0.66691406 5.81289063 -0.77132812 5.00078125 -0.87890625 4.1640625 C-1 2 -1 2 0 0 Z " fill="#490591" transform="translate(175,619)"/>
<path d="M0 0 C4 0 4 0 5.75 1.375 C7 3 7 3 7 5 C8.98 5 10.96 5 13 5 C13.33 5.66 13.66 6.32 14 7 C6.86320456 8.33058898 6.86320456 8.33058898 3.0625 6.875 C0.59783451 4.63439501 0.26504773 3.26892205 0 0 Z " fill="#4C148F" transform="translate(651,631)"/>
<path d="M0 0 C0.66 0.66 1.32 1.32 2 2 C4.36509361 2.30059943 6.74441881 2.49515012 9.125 2.625 C11.04699219 2.73714844 11.04699219 2.73714844 13.0078125 2.8515625 C13.99523437 2.90054688 14.98265625 2.94953125 16 3 C16 3.33 16 3.66 16 4 C14.73542969 4.03867187 14.73542969 4.03867187 13.4453125 4.078125 C12.34960938 4.13484375 11.25390625 4.1915625 10.125 4.25 C9.03445313 4.29640625 7.94390625 4.3428125 6.8203125 4.390625 C3.89245508 4.68569815 3.89245508 4.68569815 2.6796875 6.921875 C2.34324219 7.95054687 2.34324219 7.95054687 2 9 C1.67 9.66 1.34 10.32 1 11 C0.34 11 -0.32 11 -1 11 C-1.66 8.03 -2.32 5.06 -3 2 C-2.01 1.34 -1.02 0.68 0 0 Z " fill="#662AA2" transform="translate(676,620)"/>
<path d="M0 0 C5.94 0.33 11.88 0.66 18 1 C18 1.33 18 1.66 18 2 C13.38 2.33 8.76 2.66 4 3 C4.66 4.98 5.32 6.96 6 9 C5.01 9.495 5.01 9.495 4 10 C2 8.375 2 8.375 0 6 C0 4.02 0 2.04 0 0 Z " fill="#490891" transform="translate(448,624)"/>
<path d="M0 0 C0.99 0.33 1.98 0.66 3 1 C3.6875 3.0625 3.6875 3.0625 4 5 C3.34 5 2.68 5 2 5 C2 9.95 2 14.9 2 20 C1.34 20 0.68 20 0 20 C0 13.4 0 6.8 0 0 Z " fill="#4B0293" transform="translate(824,617)"/>
<path d="M0 0 C0.99 0.33 1.98 0.66 3 1 C4.20798319 7.28151261 4.20798319 7.28151261 3.3125 10.375 C1.6818563 12.3938922 0.530472 12.66260373 -2 13 C-2 11.35 -2 9.7 -2 8 C-1.34 8 -0.68 8 0 8 C0 5.36 0 2.72 0 0 Z " fill="#480D90" transform="translate(384,607)"/>
<path d="M0 0 C1.32 0.66 2.64 1.32 4 2 C2.25 5.875 2.25 5.875 0 7 C-1.70702735 7.06996014 -3.41668003 7.08440154 -5.125 7.0625 C-6.03507813 7.05347656 -6.94515625 7.04445313 -7.8828125 7.03515625 C-8.58148438 7.02355469 -9.28015625 7.01195312 -10 7 C-9 5 -9 5 -7.1875 4.21875 C-5 3.5 -5 3.5 -2.8125 2.78125 C-0.80487204 2.14670555 -0.80487204 2.14670555 0 0 Z " fill="#43038E" transform="translate(243,630)"/>
<path d="M0 0 C2.74148672 0.37047118 4.58593199 0.68587944 6.8125 2.375 C8 4 8 4 8 7 C7.01 7.33 6.02 7.66 5 8 C4.2575 7.360625 3.515 6.72125 2.75 6.0625 C-0.70718366 3.46961226 -2.78004637 3.66902325 -7 4 C-4.64046906 1.64046906 -3.22104383 1.50858587 0 1 C0 0.67 0 0.34 0 0 Z " fill="#310682" transform="translate(756,614)"/>
<path d="M0 0 C1.485 0.99 1.485 0.99 3 2 C3.66 1.67 4.32 1.34 5 1 C5.66 1.66 6.32 2.32 7 3 C6.34 3 5.68 3 5 3 C5.226875 3.763125 5.45375 4.52625 5.6875 5.3125 C5.790625 6.199375 5.89375 7.08625 6 8 C4.5625 9.8125 4.5625 9.8125 3 11 C0.60236815 8.60236815 0.65719414 7.66726502 0.375 4.375 C0.30023437 3.55773437 0.22546875 2.74046875 0.1484375 1.8984375 C0.09945312 1.27195312 0.05046875 0.64546875 0 0 Z " fill="#460E8D" transform="translate(793,623)"/>
<path d="M0 0 C0.99 0 1.98 0 3 0 C3.66666667 2 4.33333333 4 5 6 C5.66 6.66 6.32 7.32 7 8 C5.02 8.66 3.04 9.32 1 10 C-1.56687367 6.1496895 -0.83288724 4.41430237 0 0 Z " fill="#46118D" transform="translate(266,627)"/>
<path d="M0 0 C0 1.65 0 3.3 0 5 C-2.97 5 -5.94 5 -9 5 C-9 4.67 -9 4.34 -9 4 C-12.3 3.67 -15.6 3.34 -19 3 C-18.67 2.34 -18.34 1.68 -18 1 C-17.10796875 1.01160156 -16.2159375 1.02320313 -15.296875 1.03515625 C-13.54117188 1.04869141 -13.54117188 1.04869141 -11.75 1.0625 C-10.00976562 1.07990234 -10.00976562 1.07990234 -8.234375 1.09765625 C-5.41612186 1.01256407 -2.72611144 0 0 0 Z " fill="#6A31A4" transform="translate(890,621)"/>
<path d="M0 0 C1.8125 0.125 1.8125 0.125 4 1 C5.75 4.0625 5.75 4.0625 7 7 C5.68 6.67 4.36 6.34 3 6 C3 5.34 3 4.68 3 4 C2.401875 4.515625 1.80375 5.03125 1.1875 5.5625 C0.465625 6.036875 -0.25625 6.51125 -1 7 C-1.99 6.67 -2.98 6.34 -4 6 C-2.68 4.02 -1.36 2.04 0 0 Z " fill="#360F82" transform="translate(457,604)"/>
<path d="M0 0 C0.99 0.33 1.98 0.66 3 1 C2.65557106 3.49710982 2.15296001 4.82154665 0.5 6.75 C-3.25557239 8.62778619 -6.87646606 8.23789619 -11 8 C-11 7.67 -11 7.34 -11 7 C-8.36 6.67 -5.72 6.34 -3 6 C-3.66 5.34 -4.32 4.68 -5 4 C-2.6875 1.9375 -2.6875 1.9375 0 0 Z " fill="#300A82" transform="translate(409,630)"/>
<path d="M0 0 C-15.56036446 6.70387244 -15.56036446 6.70387244 -24 7 C-21.43660499 5.29107 -19.7339422 4.46936876 -16.875 3.5625 C-14.40689271 2.77609326 -11.95304531 1.98309336 -9.515625 1.10546875 C-8.72671875 0.82316406 -7.9378125 0.54085937 -7.125 0.25 C-6.04605469 -0.14445313 -6.04605469 -0.14445313 -4.9453125 -0.546875 C-3 -1 -3 -1 0 0 Z " fill="#FCAE0A" transform="translate(793,554)"/>
<path d="M0 0 C0.33 0.66 0.66 1.32 1 2 C-7.07744875 14.85421412 -7.07744875 14.85421412 -13 19 C-12.25 16.625 -12.25 16.625 -11 14 C-9.66666667 13.33333333 -8.33333333 12.66666667 -7 12 C-6.29289322 10.35008418 -5.63437344 8.6792238 -5 7 C-3.42436588 4.5890297 -1.72230958 2.31152075 0 0 Z " fill="#FCB107" transform="translate(837,511)"/>
<path d="M0 0 C0.33 0 0.66 0 1 0 C1.22786458 1.98567708 1.45572917 3.97135417 1.68359375 5.95703125 C1.97170735 8.19396393 1.97170735 8.19396393 3 11 C4.918125 11.185625 4.918125 11.185625 6.875 11.375 C10.75 11.75 10.75 11.75 13 14 C4 14 4 14 1.8125 12.0625 C-0.62058305 7.95142865 -0.36551926 4.6603705 0 0 Z " fill="#2D037F" transform="translate(447,622)"/>
<path d="M0 0 C0 0.99 0 1.98 0 3 C-1.98 3 -3.96 3 -6 3 C-6 3.66 -6 4.32 -6 5 C-8.5 6.625 -8.5 6.625 -11 8 C-9.07396491 1.18479892 -7.08562532 -0.31491668 0 0 Z " fill="#3B088A" transform="translate(491,613)"/>
<path d="M0 0 C0.99 0.66 1.98 1.32 3 2 C1.98545548 4.5363613 1.3146444 5.79351461 -1 7.3125 C-1.66 7.539375 -2.32 7.76625 -3 8 C-3.66 7.67 -4.32 7.34 -5 7 C-5 6.01 -5 5.02 -5 4 C-2.5 1.8125 -2.5 1.8125 0 0 Z " fill="#350584" transform="translate(323,630)"/>
<path d="M0 0 C0.53625 0.639375 1.0725 1.27875 1.625 1.9375 C4.44367193 4.38529404 6.33860732 4.66714612 10 5 C10 5.99 10 6.98 10 8 C6.74704886 8.22179212 4.57202207 8.28601103 1.625 6.8125 C0 5 0 5 -0.25 2.3125 C-0.1675 1.549375 -0.085 0.78625 0 0 Z " fill="#450B8E" transform="translate(308,629)"/>
<path d="M0 0 C0.90105469 0.01804687 1.80210937 0.03609375 2.73046875 0.0546875 C3.41753906 0.07789063 4.10460937 0.10109375 4.8125 0.125 C4.8125 1.115 4.8125 2.105 4.8125 3.125 C4.11382812 3.15078125 3.41515625 3.1765625 2.6953125 3.203125 C1.78523438 3.25984375 0.87515625 3.3165625 -0.0625 3.375 C-0.96742188 3.42140625 -1.87234375 3.4678125 -2.8046875 3.515625 C-5.35860544 3.88111148 -5.35860544 3.88111148 -6.5078125 6.171875 C-6.73210937 6.81640625 -6.95640625 7.4609375 -7.1875 8.125 C-6.8575 6.475 -6.5275 4.825 -6.1875 3.125 C-6.8475 2.795 -7.5075 2.465 -8.1875 2.125 C-4.87379 -0.08414 -3.8428979 -0.09981553 0 0 Z " fill="#28047B" transform="translate(275.1875,623.875)"/>
<path d="M0 0 C1 2 1 2 0 6 C4.95 6 9.9 6 15 6 C15 6.33 15 6.66 15 7 C10.05 7 5.1 7 0 7 C-0.33 7.99 -0.66 8.98 -1 10 C-1.33 10 -1.66 10 -2 10 C-2.33 7.36 -2.66 4.72 -3 2 C-2.01 1.34 -1.02 0.68 0 0 Z " fill="#4E0594" transform="translate(307,619)"/>
<path d="M0 0 C0 2.64 0 5.28 0 8 C-1.65 7.67 -3.3 7.34 -5 7 C-5 6.01 -5 5.02 -5 4 C-5.66 3.67 -6.32 3.34 -7 3 C-4.49955934 -0.00052879 -4.2621484 0 0 0 Z " fill="#4B0493" transform="translate(346,616)"/>
<path d="M0 0 C0.33 0 0.66 0 1 0 C1.33 3.3 1.66 6.6 2 10 C4.475 10.99 4.475 10.99 7 12 C5.25 13.125 5.25 13.125 3 14 C0.859375 13.0546875 0.859375 13.0546875 -1 12 C-1.02698189 10.37509046 -1.04638757 8.75005367 -1.0625 7.125 C-1.07410156 6.22007812 -1.08570313 5.31515625 -1.09765625 4.3828125 C-1 2 -1 2 0 0 Z " fill="#4B0594" transform="translate(855,622)"/>
<path d="M0 0 C0.886875 0.185625 1.77375 0.37125 2.6875 0.5625 C5.85178811 0.98042484 7.94839642 0.80777742 11 0 C11 1.32 11 2.64 11 4 C8.03 4 5.06 4 2 4 C1.34 2.68 0.68 1.36 0 0 Z " fill="#360585" transform="translate(853,634)"/>
<path d="M0 0 C1.65 0.33 3.3 0.66 5 1 C4.67 2.65 4.34 4.3 4 6 C2.35 5.67 0.7 5.34 -1 5 C-0.67 3.35 -0.34 1.7 0 0 Z " fill="#380985" transform="translate(783,602)"/>
<path d="M0 0 C1.65 0.33 3.3 0.66 5 1 C4.67 2.65 4.34 4.3 4 6 C2.35 5.67 0.7 5.34 -1 5 C-0.67 3.35 -0.34 1.7 0 0 Z " fill="#360A84" transform="translate(531,602)"/>
<path d="M0 0 C0.33 0.99 0.66 1.98 1 3 C-0.093125 3.103125 -1.18625 3.20625 -2.3125 3.3125 C-5.85559629 3.97307727 -6.93243723 4.2027092 -9 7 C-9 5.02 -9 3.04 -9 1 C-5.8035914 -0.06546953 -3.34252724 -0.07427838 0 0 Z " fill="#440D8C" transform="translate(757,613)"/>
<path d="M0 0 C0 1.65 0 3.3 0 5 C-2.875 5.125 -2.875 5.125 -6 5 C-6.66 4.34 -7.32 3.68 -8 3 C-4.93882432 0.37613513 -4.26826873 0 0 0 Z " fill="#330385" transform="translate(432,613)"/>
<path d="M0 0 C0.99 0.33 1.98 0.66 3 1 C2.67 4.63 2.34 8.26 2 12 C1.67 12 1.34 12 1 12 C0.67 9.69 0.34 7.38 0 5 C-0.33 7.64 -0.66 10.28 -1 13 C-1.33 13 -1.66 13 -2 13 C-2.05447047 11.58376784 -2.09300508 10.16691809 -2.125 8.75 C-2.14820313 7.96109375 -2.17140625 7.1721875 -2.1953125 6.359375 C-1.9828378 3.79268059 -1.28654105 2.2083933 0 0 Z " fill="#2A037D" transform="translate(505,617)"/>
<path d="M0 0 C1.32 0 2.64 0 4 0 C5.125 3.75 5.125 3.75 4 6 C2.35 5.67 0.7 5.34 -1 5 C-0.67 3.35 -0.34 1.7 0 0 Z " fill="#350984" transform="translate(437,602)"/>
<path d="M0 0 C0 3 0 3 -2 6 C-2.38499891 7.65549531 -2.72793135 9.3222433 -3 11 C-3.99 11 -4.98 11 -6 11 C-6.33 11.99 -6.66 12.98 -7 14 C-7.66 13.34 -8.32 12.68 -9 12 C-6.03 8.04 -3.06 4.08 0 0 Z " fill="#370989" transform="translate(642,507)"/>
<path d="M0 0 C1.98 0.99 3.96 1.98 6 3 C6 6.41099168 5.50854594 9.63088314 5 13 C4.67 13 4.34 13 4 13 C3.65820312 10.02148438 3.65820312 10.02148438 3.31640625 7.04296875 C3.02829265 4.80603607 3.02829265 4.80603607 2 2 C0.35 2 -1.3 2 -3 2 C-2.01 1.34 -1.02 0.68 0 0 Z " fill="#330582" transform="translate(379,602)"/>
<path d="M0 0 C1.6875 1.5625 1.6875 1.5625 3 3 C-2.625 4.125 -2.625 4.125 -6 3 C-6 2.01 -6 1.02 -6 0 C-3 -1 -3 -1 0 0 Z " fill="#4C1690" transform="translate(880,635)"/>
<path d="M0 0 C3.5625 0.3125 3.5625 0.3125 5.5 1.8125 C5.850625 2.3075 6.20125 2.8025 6.5625 3.3125 C5.5725 4.6325 4.5825 5.9525 3.5625 7.3125 C3.005625 6.3534375 3.005625 6.3534375 2.4375 5.375 C-0.01802793 2.67391928 -1.88328805 2.62842995 -5.4375 2.3125 C-3.4375 0.3125 -3.4375 0.3125 0 0 Z " fill="#450B8E" transform="translate(317.4375,613.6875)"/>
<path d="M0 0 C0.66 0.33 1.32 0.66 2 1 C0.60823368 1.96423026 -0.7886223 2.92111602 -2.1875 3.875 C-2.96480469 4.40867187 -3.74210937 4.94234375 -4.54296875 5.4921875 C-8.06043374 7.65075902 -10.84363635 9 -15 9 C-14.67 8.01 -14.34 7.02 -14 6 C-12.7625 5.9071875 -12.7625 5.9071875 -11.5 5.8125 C-7.52822345 4.89048044 -5.0346009 3.27621226 -1.734375 0.9609375 C-1.16203125 0.64382813 -0.5896875 0.32671875 0 0 Z " fill="#2D0785" transform="translate(396,554)"/>
<path d="M0 0 C0.99 0.33 1.98 0.66 3 1 C2.67 2.32 2.34 3.64 2 5 C0.1875 5.625 0.1875 5.625 -2 6 C-2.99 5.34 -3.98 4.68 -5 4 C-2.6875 1.9375 -2.6875 1.9375 0 0 Z " fill="#320782" transform="translate(761,630)"/>
<path d="M0 0 C0.33 0.99 0.66 1.98 1 3 C6.28 3 11.56 3 17 3 C17 3.33 17 3.66 17 4 C15.86820312 4.04898438 14.73640625 4.09796875 13.5703125 4.1484375 C12.08851661 4.22346514 10.606747 4.29901297 9.125 4.375 C8.37863281 4.4059375 7.63226563 4.436875 6.86328125 4.46875 C2.46526812 4.55643831 2.46526812 4.55643831 -1 7 C-1.04254356 5.00045254 -1.04080783 2.99958364 -1 1 C-0.67 0.67 -0.34 0.34 0 0 Z " fill="#29037F" transform="translate(391,621)"/>
<path d="M0 0 C1.15941038 3.47823115 0.70820884 5.45895578 0 9 C0.66 9 1.32 9 2 9 C1.34 10.32 0.68 11.64 0 13 C-0.33 13 -0.66 13 -1 13 C-1.66 9.37 -2.32 5.74 -3 2 C-2.01 1.34 -1.02 0.68 0 0 Z " fill="#4B0992" transform="translate(583,619)"/>
<path d="M0 0 C1.10844919 3.32534757 0.84454356 5.62182575 0 9 C-0.99 9 -1.98 9 -3 9 C-3.75 6.75 -3.75 6.75 -4 4 C-2.0625 1.6875 -2.0625 1.6875 0 0 Z " fill="#3B0989" transform="translate(395,615)"/>
<path d="M0 0 C1.79260132 0.05995322 3.58425795 0.1487241 5.375 0.25 C6.87160156 0.31960938 6.87160156 0.31960938 8.3984375 0.390625 C11 1 11 1 12.3515625 3.046875 C12.56554687 3.69140625 12.77953125 4.3359375 13 5 C12.01 5 11.02 5 10 5 C9.34 4.34 8.68 3.68 8 3 C5.34462628 2.43479997 2.70855287 2.26211802 0 2 C0 1.34 0 0.68 0 0 Z " fill="#4D0A92" transform="translate(370,603)"/>
<path d="M0 0 C0.66 0 1.32 0 2 0 C2 3.96 2 7.92 2 12 C1.01 11.67 0.02 11.34 -1 11 C-0.67 7.37 -0.34 3.74 0 0 Z " fill="#480090" transform="translate(282,625)"/>
<path d="M0 0 C3.96 0 7.92 0 12 0 C12 1.98 12 3.96 12 6 C11.01 5.67 10.02 5.34 9 5 C9 3.68 9 2.36 9 1 C6.03 1 3.06 1 0 1 C0 0.67 0 0.34 0 0 Z " fill="#360285" transform="translate(548,626)"/>
<path d="M0 0 C0.99 0 1.98 0 3 0 C2.67 3.63 2.34 7.26 2 11 C-0.7865517 8.2134483 -0.65662895 5.84575573 -1 2 C-0.67 1.34 -0.34 0.68 0 0 Z " fill="#470891" transform="translate(743,619)"/>
<path d="M0 0 C0.33 0.99 0.66 1.98 1 3 C1.66 3.33 2.32 3.66 3 4 C-0.79267192 4.9360342 -3.93674565 4.98276252 -7.8125 4.5625 C-8.78832031 4.46066406 -9.76414062 4.35882812 -10.76953125 4.25390625 C-11.50558594 4.17011719 -12.24164063 4.08632813 -13 4 C-13 3.67 -13 3.34 -13 3 C-11.96939453 2.92652344 -11.96939453 2.92652344 -10.91796875 2.8515625 C-9.56638672 2.73941406 -9.56638672 2.73941406 -8.1875 2.625 C-7.29417969 2.55539062 -6.40085937 2.48578125 -5.48046875 2.4140625 C-2.75601501 2.13354964 -2.75601501 2.13354964 0 0 Z " fill="#29037D" transform="translate(382,616)"/>
<path d="M0 0 C1.31823302 0.59155331 2.62947051 1.19871463 3.9375 1.8125 C5.03384766 2.31716797 5.03384766 2.31716797 6.15234375 2.83203125 C8 4 8 4 9 7 C6.69 6.67 4.38 6.34 2 6 C1.34 4.02 0.68 2.04 0 0 Z " fill="#541797" transform="translate(584,632)"/>
<path d="M0 0 C0.66 1.32 1.32 2.64 2 4 C1.01 5.485 1.01 5.485 0 7 C-1.32 7 -2.64 7 -4 7 C-2.92598892 4.08482708 -2.22189824 2.22189824 0 0 Z " fill="#350884" transform="translate(270,614)"/>
<path d="M0 0 C2.1640625 0.2421875 2.1640625 0.2421875 4.625 0.875 C5.44226563 1.07867188 6.25953125 1.28234375 7.1015625 1.4921875 C8.04128906 1.74355469 8.04128906 1.74355469 9 2 C9 2.33 9 2.66 9 3 C7.081875 3.4640625 7.081875 3.4640625 5.125 3.9375 C2.89898325 4.47605244 1.05260001 4.9737 -1 6 C-1.625 4.125 -1.625 4.125 -2 2 C-1.34 1.34 -0.68 0.68 0 0 Z " fill="#29027E" transform="translate(873,614)"/>
<path d="M0 0 C0.33 0.99 0.66 1.98 1 3 C-0.14453125 5.2265625 -0.14453125 5.2265625 -1.8125 7.625 C-2.35519531 8.42164063 -2.89789062 9.21828125 -3.45703125 10.0390625 C-5 12 -5 12 -7 13 C-6.690625 12.4225 -6.38125 11.845 -6.0625 11.25 C-4.93600448 9.08793083 -4.93600448 9.08793083 -4.5625 6.9375 C-3.87705155 4.57651089 -2.78911285 3.64002011 -1 2 C-0.67 1.34 -0.34 0.68 0 0 Z " fill="#3207A1" transform="translate(831,493)"/>
<path d="M0 0 C0.99 0 1.98 0 3 0 C3.6875 1.8125 3.6875 1.8125 4 4 C2.5625 5.75 2.5625 5.75 1 7 C0.01 6.34 -0.98 5.68 -2 5 C-1.34 3.35 -0.68 1.7 0 0 Z " fill="#45108F" transform="translate(213,625)"/>
<path d="M0 0 C0.99 0.33 1.98 0.66 3 1 C2.45773019 4.79588866 0.79872437 6.47211993 -2 9 C-2.25 3.375 -2.25 3.375 0 0 Z " fill="#511A96" transform="translate(630,621)"/>
<path d="M0 0 C1.32 0.33 2.64 0.66 4 1 C3.67 3.64 3.34 6.28 3 9 C2.34 9 1.68 9 1 9 C0.67 6.03 0.34 3.06 0 0 Z " fill="#4C1193" transform="translate(853,605)"/>
<path d="M0 0 C0.66 1.32 1.32 2.64 2 4 C-0.3125 6.5 -0.3125 6.5 -3 9 C-3.99 9 -4.98 9 -6 9 C-4.02 6.03 -2.04 3.06 0 0 Z " fill="#360587" transform="translate(580,527)"/>
<path d="M0 0 C1.875 0.625 1.875 0.625 4 2 C5.25 5.125 5.25 5.125 6 8 C6.66 8 7.32 8 8 8 C7.67 8.99 7.34 9.98 7 11 C5.82750647 9.54634731 4.66216184 8.08692581 3.5 6.625 C2.52546875 5.40683594 2.52546875 5.40683594 1.53125 4.1640625 C0 2 0 2 0 0 Z " fill="#370889" transform="translate(624,464)"/>
<path d="M0 0 C0.99 0.33 1.98 0.66 3 1 C3 2.32 3 3.64 3 5 C1.02 5 -0.96 5 -3 5 C-2.01 3.35 -1.02 1.7 0 0 Z " fill="#330A7F" transform="translate(331,633)"/>
<path d="M0 0 C2.25693432 2.25693432 2.87292007 4.04141517 4 7 C4.65213539 8.34050052 5.31379969 9.67661368 6 11 C2.83884224 9.63016497 2.0072908 9.0109362 0 6 C-0.125 2.8125 -0.125 2.8125 0 0 Z " fill="#490591" transform="translate(349,626)"/>
<path d="M0 0 C-1.2065625 0.185625 -1.2065625 0.185625 -2.4375 0.375 C-3.283125 0.58125 -4.12875 0.7875 -5 1 C-5.33 1.66 -5.66 2.32 -6 3 C-7.64363134 3.72159424 -9.31050386 4.39351421 -11 5 C-10 2 -10 2 -7.1875 0.25 C-4.03596914 -0.98589446 -3.03070628 -1.28222189 0 0 Z " fill="#320184" transform="translate(458,474)"/>
<path d="M0 0 C1.32 0.66 2.64 1.32 4 2 C3.25 3.9375 3.25 3.9375 2 6 C-0.125 6.75 -0.125 6.75 -2 7 C-1.67 6.34 -1.34 5.68 -1 5 C-1.33 4.67 -1.66 4.34 -2 4 C-1.34 2.68 -0.68 1.36 0 0 Z " fill="#2F0C83" transform="translate(243,630)"/>
<path d="M0 0 C0.66 0.33 1.32 0.66 2 1 C1.34 2.98 0.68 4.96 0 7 C-0.66 6.67 -1.32 6.34 -2 6 C-2.66 6.66 -3.32 7.32 -4 8 C-3.50168276 4.31245243 -2.89932357 2.39509338 0 0 Z " fill="#2E0381" transform="translate(678,615)"/>
<path d="M0 0 C2.475 0.495 2.475 0.495 5 1 C5.33 2.32 5.66 3.64 6 5 C4.68 5 3.36 5 2 5 C1.34 3.35 0.68 1.7 0 0 Z " fill="#350284" transform="translate(883,617)"/>
<path d="M0 0 C0.33 0.66 0.66 1.32 1 2 C1.66 2.33 2.32 2.66 3 3 C2.01 3 1.02 3 0 3 C-0.33 3.99 -0.66 4.98 -1 6 C-1.99 6 -2.98 6 -4 6 C-3.67 4.35 -3.34 2.7 -3 1 C-2.01 0.67 -1.02 0.34 0 0 Z " fill="#440D8F" transform="translate(682,613)"/>
<path d="M0 0 C2.64752004 2.57784846 4.94432065 4.91648098 7 8 C6.67 8.99 6.34 9.98 6 11 C2.44439818 7.92925297 1.45196518 4.35589555 0 0 Z " fill="#3006A5" transform="translate(824,450)"/>
<path d="M0 0 C2.97 0.99 5.94 1.98 9 3 C9 3.33 9 3.66 9 4 C5.625 4.125 5.625 4.125 2 4 C1.34 3.34 0.68 2.68 0 2 C0 1.34 0 0.68 0 0 Z " fill="#40008A" transform="translate(180,633)"/>
<path d="M0 0 C0.33 0 0.66 0 1 0 C1.12375 0.78375 1.2475 1.5675 1.375 2.375 C1.79117993 5.14057822 1.79117993 5.14057822 4 7 C3.67 7.99 3.34 8.98 3 10 C2.34 10 1.68 10 1 10 C-0.60725635 6.78548731 -0.05748185 3.56387464 0 0 Z " fill="#340685" transform="translate(304,623)"/>
<path d="M0 0 C1.5625 1.8125 1.5625 1.8125 3 4 C2.67 4.99 2.34 5.98 2 7 C1.01 7 0.02 7 -1 7 C-2 4 -2 4 -1.0625 1.8125 C-0.5365625 0.9153125 -0.5365625 0.9153125 0 0 Z " fill="#3D0889" transform="translate(449,617)"/>
<path d="M0 0 C2.52259061 1.97420135 2.9929808 2.96745642 3.6875 6.1875 C3.790625 7.115625 3.89375 8.04375 4 9 C2.68 9 1.36 9 0 9 C0 8.34 0 7.68 0 7 C0.66 7 1.32 7 2 7 C1.34 4.69 0.68 2.38 0 0 Z " fill="#490092" transform="translate(408,617)"/>
<path d="M0 0 C0.66 0.33 1.32 0.66 2 1 C1.01 1.66 0.02 2.32 -1 3 C-1.25030977 5.58380177 -1.25030977 5.58380177 -1 8 C-2.32 7.67 -3.64 7.34 -5 7 C-3.75023244 3.34683329 -3.32901247 2.21934164 0 0 Z " fill="#361182" transform="translate(547,614)"/>
<path d="M0 0 C7.50769231 -0.36923077 7.50769231 -0.36923077 10 1.5 C10.495 2.2425 10.495 2.2425 11 3 C9.68 3.33 8.36 3.66 7 4 C6.67 3.01 6.34 2.02 6 1 C4.02 1 2.04 1 0 1 C0 0.67 0 0.34 0 0 Z " fill="#4A0792" transform="translate(272,615)"/>
<path d="M0 0 C1.32 0.66 2.64 1.32 4 2 C2.824375 2.37125 2.824375 2.37125 1.625 2.75 C-1.32317108 4.15389099 -1.9024777 5.00675737 -3 8 C-3.33 7.01 -3.66 6.02 -4 5 C-2.0625 2.3125 -2.0625 2.3125 0 0 Z " fill="#46088D" transform="translate(799,616)"/>
<path d="M0 0 C0.99 0 1.98 0 3 0 C3.33 2.31 3.66 4.62 4 7 C3.01 6.67 2.02 6.34 1 6 C1 5.34 1 4.68 1 4 C0.34 3.67 -0.32 3.34 -1 3 C-0.67 2.01 -0.34 1.02 0 0 Z " fill="#491092" transform="translate(555,614)"/>
<path d="M0 0 C0.33 0.99 0.66 1.98 1 3 C-3.75 7.875 -3.75 7.875 -6 9 C-4.68775452 5.06326356 -3.08089673 2.77280706 0 0 Z " fill="#380887" transform="translate(693,437)"/>
<path d="M0 0 C0.33 0.99 0.66 1.98 1 3 C-1.64 3 -4.28 3 -7 3 C-7.33 2.34 -7.66 1.68 -8 1 C-5.29120665 -0.35439668 -2.99066732 -0.06501451 0 0 Z " fill="#2D007C" transform="translate(276,635)"/>
<path d="M0 0 C-1 1.5 -1 1.5 -3 3 C-5.71846235 3.27345479 -8.25677199 3.13491285 -11 3 C-11 2.67 -11 2.34 -11 2 C-7.17679443 0.57741188 -4.08718695 -0.24042276 0 0 Z " fill="#2E007E" transform="translate(813,635)"/>
<path d="M0 0 C0.33 1.32 0.66 2.64 1 4 C0.01 5.485 0.01 5.485 -1 7 C-1.66 6.67 -2.32 6.34 -3 6 C-3 6.66 -3 7.32 -3 8 C-3.66 7.67 -4.32 7.34 -5 7 C-3.35 4.69 -1.7 2.38 0 0 Z " fill="#3A078A" transform="translate(622,536)"/>
<path d="M0 0 C-1.65 1.32 -3.3 2.64 -5 4 C-6.32 3.34 -7.64 2.68 -9 2 C-3.375 -1.125 -3.375 -1.125 0 0 Z " fill="#39068A" transform="translate(256,475)"/>
<path d="M0 0 C0.33 0.66 0.66 1.32 1 2 C1.99 2.33 2.98 2.66 4 3 C1.08517222 3.80967438 -0.46113217 4.21845993 -3.3125 3.0625 C-3.869375 2.711875 -4.42625 2.36125 -5 2 C-3.35 1.34 -1.7 0.68 0 0 Z " fill="#370485" transform="translate(689,633)"/>
<path d="M0 0 C1.32 0 2.64 0 4 0 C3.67 1.98 3.34 3.96 3 6 C1.5 4.6875 1.5 4.6875 0 3 C0 2.01 0 1.02 0 0 Z " fill="#3A0C85" transform="translate(651,631)"/>
<path d="M0 0 C1.32 0.33 2.64 0.66 4 1 C4 2.65 4 4.3 4 6 C3.01 6 2.02 6 1 6 C0.67 4.02 0.34 2.04 0 0 Z " fill="#4D0B93" transform="translate(556,631)"/>
</svg>
