<?xml version="1.0" encoding="UTF-8"?>
<svg version="1.1" xmlns="http://www.w3.org/2000/svg" width="2560" height="586">
<path d="M0 0 C0.66 0 1.32 0 2 0 C2.40613525 0.7120459 2.81227051 1.4240918 3.23071289 2.15771484 C12.49191534 18.39045455 21.7907986 34.60059805 31.14111328 50.78222656 C34.26324607 56.18670649 37.38136526 61.59350107 40.5 67 C41.11810547 68.07121094 41.73621094 69.14242187 42.37304688 70.24609375 C45.51222374 75.68646075 48.64999629 81.12762955 51.78515625 86.5703125 C57.80747329 97.02206199 63.84669337 107.46299548 69.9375 117.875 C75.35958699 127.14563931 80.70324012 136.45936699 86.02023315 145.79046631 C90.63484029 153.88707843 95.29084886 161.95788801 100 170 C105.05630923 178.63497557 110.04607122 187.30606319 115 196 C120.53985933 205.72124506 126.13374932 215.40894868 131.78344727 225.06689453 C137.93766742 235.59084625 144.02369996 246.15380137 150.10888672 256.71777344 C153.23680148 262.14659942 156.36858448 267.57319281 159.5 273 C160.75001879 275.16665583 162.00001878 277.3333225 163.25 279.5 C163.86875 280.5725 164.4875 281.645 165.125 282.75 C245.74999999 422.49999998 245.74999999 422.49999998 247.62524414 425.75048828 C248.87435518 427.91557071 250.12354129 430.08060982 251.37280273 432.24560547 C254.51202309 437.68615706 257.64990563 443.12747216 260.78515625 448.5703125 C266.80747329 459.02206199 272.84669337 469.46299548 278.9375 479.875 C284.35921178 489.14499777 289.70204915 498.45831752 295.01922607 507.78845215 C300.21167486 516.89743213 305.46140029 525.97132708 310.75708008 535.02075195 C315.91462642 543.83787266 321.02040396 552.68428463 326.11547852 561.53759766 C326.71030029 562.57062012 327.30512207 563.60364258 327.91796875 564.66796875 C328.70337036 566.03344849 328.70337036 566.03344849 329.50463867 567.42651367 C330.52885444 569.18916811 331.59400298 570.92848844 332.69262695 572.64575195 C334 575 334 575 334 578 C113.89 578 -106.22 578 -333 578 C-331.45460244 574.13650609 -329.88793449 570.87579302 -327.83203125 567.30078125 C-326.87478149 565.63088135 -326.87478149 565.63088135 -325.89819336 563.92724609 C-325.20304466 562.72228318 -324.5078113 561.5173691 -323.8125 560.3125 C-323.09031382 559.05565201 -322.3683941 557.79865088 -321.64672852 556.54150391 C-319.79256933 553.31362852 -317.93436047 550.08810651 -316.07458496 546.86346436 C-314.42607817 544.00474796 -312.77968312 541.14481546 -311.1328125 538.28515625 C-308.04520824 532.92721891 -304.95279067 527.57207499 -301.85888672 522.21777344 C-299.36310656 517.89752357 -296.86993703 513.57577013 -294.37695312 509.25390625 C-292.50290437 506.00503504 -290.62840572 502.75642368 -288.75390625 499.5078125 C-286.23930564 495.14934612 -283.72645339 490.78987809 -281.21484375 486.4296875 C-275.19252671 475.97793801 -269.15330663 465.53700452 -263.0625 455.125 C-257.64041301 445.85436069 -252.29675988 436.54063301 -246.97976685 427.20953369 C-241.80621213 418.13221364 -236.56857846 409.09428467 -231.2890625 400.078125 C-226.80833735 392.41426026 -222.39505776 384.71314165 -218 377 C-212.46014067 367.27875494 -206.86625068 357.59105132 -201.21655273 347.93310547 C-195.06233258 337.40915375 -188.97630004 326.84619863 -182.89111328 316.28222656 C-179.76319852 310.85340058 -176.63141552 305.42680719 -173.5 300 C-172.24998121 297.83334417 -170.99998122 295.6666775 -169.75 293.5 C-137.25 237.16666667 -104.75 180.83333333 -72.25 124.5 C-71.63116943 123.42733887 -71.01233887 122.35467773 -70.37475586 121.24951172 C-69.12564482 119.08442929 -67.87645871 116.91939018 -66.62719727 114.75439453 C-63.48797691 109.31384294 -60.35009437 103.87252784 -57.21484375 98.4296875 C-51.19252671 87.97793801 -45.15330663 77.53700452 -39.0625 67.125 C-33.98724776 58.44737587 -28.97752213 49.733883 -24 41 C-18.74964783 31.78811547 -13.46587801 22.59727304 -8.125 13.4375 C-7.53589844 12.42623047 -6.94679688 11.41496094 -6.33984375 10.37304688 C-4.28867339 6.862671 -2.2557708 3.3836562 0 0 Z " fill="#000000" transform="translate(338,2)"/>
<path d="M0 0 C1.6553578 1.55240593 3.30053434 3.11571215 4.9375 4.6875 C5.43072754 5.14431152 5.92395508 5.60112305 6.43212891 6.07177734 C37.21668431 34.60264952 51.50338364 75.04537936 53.2265625 116.34375 C53.68557251 129.42951501 51.71974504 141.61770302 49.9375 154.6875 C-33.2225 154.6875 -116.3825 154.6875 -202.0625 154.6875 C-188.69708969 179.93327503 -173.40733345 196.01927902 -146.625 205.5 C-118.65017926 214.03664633 -87.75860025 213.42312282 -61.0625 200.6875 C-52.15604868 195.93344736 -42.72406997 190.13681043 -36.09765625 182.390625 C-35.42605469 181.82859375 -34.75445313 181.2665625 -34.0625 180.6875 C-30.24345282 181.06355146 -27.50388892 182.37084074 -24.23828125 184.3203125 C-23.30491943 184.87178955 -22.37155762 185.4232666 -21.40991211 185.99145508 C-20.40839111 186.5923999 -19.40687012 187.19334473 -18.375 187.8125 C-16.21660585 189.09062091 -14.05773465 190.36793649 -11.8984375 191.64453125 C-10.77791992 192.3092041 -9.65740234 192.97387695 -8.50292969 193.65869141 C-2.86180778 196.98524002 2.82114078 200.23846218 8.5 203.5 C11.68828976 205.34096879 14.87535104 207.18404508 18.06201172 209.02783203 C20.67378766 210.53529109 23.29146457 212.03194857 25.91015625 213.52734375 C27.29472166 214.32995195 28.67887801 215.13326652 30.0625 215.9375 C30.67810791 216.28401611 31.29371582 216.63053223 31.92797852 216.98754883 C33.5703125 217.953125 33.5703125 217.953125 35.9375 219.6875 C35.9375 224.14648455 33.04568346 226.24066944 30.125 229.3125 C29.53259521 229.9405957 28.94019043 230.56869141 28.32983398 231.21582031 C23.2282922 236.53952491 17.84544528 241.2686145 11.9375 245.6875 C11.40543945 246.0892041 10.87337891 246.4909082 10.32519531 246.90478516 C1.92185541 253.21577586 -6.74662779 258.81032367 -16.0625 263.6875 C-16.69462402 264.01991699 -17.32674805 264.35233398 -17.97802734 264.69482422 C-35.52572459 273.7751164 -54.59424534 279.48109372 -74.0625 282.6875 C-75.11477783 282.86410156 -76.16705566 283.04070312 -77.2512207 283.22265625 C-87.97178665 284.84753396 -98.54956665 285.08658274 -109.375 285.0625 C-110.29703217 285.06195618 -111.21906433 285.06141235 -112.16903687 285.06085205 C-135.02867845 284.99904852 -156.29815344 281.84366153 -178.0625 274.6875 C-179.09213867 274.35975586 -179.09213867 274.35975586 -180.14257812 274.02539062 C-201.78976428 267.03896014 -222.23505973 255.27870432 -238.83984375 239.75390625 C-240.83788666 237.8963233 -242.89377197 236.16928749 -245 234.4375 C-273.37435389 209.54571269 -288.12751186 170.20795019 -290.78515625 133.40234375 C-293.398099 91.11942038 -281.84853333 48.66677613 -253.97265625 16.2578125 C-251.70497116 13.69919417 -249.39331195 11.1886703 -247.0625 8.6875 C-246.34835937 7.89601562 -245.63421875 7.10453125 -244.8984375 6.2890625 C-184.99750395 -57.31708344 -63.92125427 -56.05873577 0 0 Z M-188.3125 62.08984375 C-192.3675512 66.84977689 -195.51931809 71.96534227 -198.5 77.4375 C-198.84256836 78.06366211 -199.18513672 78.68982422 -199.53808594 79.33496094 C-201.62536399 83.33717299 -202.29243007 86.06708042 -203.0625 90.6875 C-147.6225 90.6875 -92.1825 90.6875 -35.0625 90.6875 C-37.4008944 76.65713359 -46.02148574 65.36151813 -56.0625 55.6875 C-56.77921875 54.95144531 -57.4959375 54.21539062 -58.234375 53.45703125 C-74.6052615 37.5477299 -99.01443193 32.27166539 -121.10449219 32.38696289 C-147.62538178 33.0121382 -170.16130918 42.70966605 -188.3125 62.08984375 Z " fill="#000000" transform="translate(1396.0625,186.3125)"/>
<path d="M0 0 C31.78994794 28.52722725 48.36269254 68.81612063 50.75 111.0625 C51.35576488 124.67237039 50.89274582 138.64365014 48 152 C46.46921907 153.53078093 45.09229335 153.13121771 42.95699215 153.1386652 C41.64250714 153.14687687 41.64250714 153.14687687 40.30146688 153.15525442 C39.3277517 153.15623253 38.35403652 153.15721064 37.35081482 153.15821838 C36.32498875 153.16315636 35.29916268 153.16809434 34.24225098 153.17318195 C30.77665538 153.18864037 27.31107841 153.19694003 23.84545898 153.20532227 C21.37243483 153.21489424 18.89941234 153.22490391 16.4263916 153.23532104 C11.08763104 153.25681842 5.74887317 153.27524832 0.41009331 153.29092598 C-7.30896928 153.31359873 -15.0280042 153.3417451 -22.74704336 153.37124526 C-35.2694197 153.41895307 -47.79180734 153.46220858 -60.31420898 153.50268555 C-72.48153564 153.54202427 -84.64885224 153.58344658 -96.81616211 153.62768555 C-97.56563528 153.63040982 -98.31510844 153.63313409 -99.08729292 153.63594092 C-102.84702429 153.64962013 -106.60675552 153.66334045 -110.36648667 153.67708123 C-141.57763707 153.79109608 -172.7888085 153.8978205 -204 154 C-202.76250044 156.38219139 -201.51807882 158.76032534 -200.26953125 161.13671875 C-199.92410278 161.80344604 -199.57867432 162.47017334 -199.22277832 163.15710449 C-188.56970549 183.35651768 -169.42248766 197.05543406 -148 204 C-117.43575565 213.05685797 -86.50082037 210.67709762 -58.1875 196.125 C-51.90122209 192.55686009 -46.21263067 188.12339093 -41.03125 183.0859375 C-40.4434375 182.52132812 -39.855625 181.95671875 -39.25 181.375 C-38.76015625 180.86710938 -38.2703125 180.35921875 -37.765625 179.8359375 C-36 179 -36 179 -33.22460938 179.76342773 C-30.14975567 180.94257174 -27.47883248 182.28744776 -24.640625 183.94921875 C-23.61984863 184.54283203 -22.59907227 185.13644531 -21.54736328 185.74804688 C-19.91516846 186.70807617 -19.91516846 186.70807617 -18.25 187.6875 C-16.5148897 188.69868359 -14.77977408 189.7098582 -13.04434204 190.7204895 C-11.23987824 191.77217124 -9.43677981 192.82616637 -7.63378906 193.88037109 C-1.81291355 197.2802073 4.03281952 200.63695315 9.875 204 C17.93122678 208.64190327 25.97278171 213.30809715 34 218 C32.7287623 221.63979146 31.34830378 224.04141623 28.6484375 226.78515625 C27.97055176 227.47464355 27.29266602 228.16413086 26.59423828 228.87451172 C25.86188965 229.59654785 25.12954102 230.31858398 24.375 231.0625 C23.61300293 231.81547363 22.85100586 232.56844727 22.06591797 233.34423828 C-10.12350548 264.57576196 -56.27681707 282.95137483 -101.109375 283.203125 C-101.95003006 283.21018463 -102.79068512 283.21724426 -103.65681458 283.22451782 C-138.33926597 283.44970907 -138.33926597 283.44970907 -154 280 C-154.91313965 279.81195801 -155.8262793 279.62391602 -156.76708984 279.43017578 C-201.53579326 270.05894178 -242.90833874 246.08780245 -268.30078125 207.32421875 C-292.22480311 169.59621745 -298.63879665 124.74877642 -289.39794922 81.16015625 C-286.41109 68.11194431 -282.03763476 55.93704528 -276 44 C-275.65066406 43.30680664 -275.30132813 42.61361328 -274.94140625 41.89941406 C-269.70852664 31.69721563 -263.44566407 22.70383145 -256 14 C-255.54334961 13.46358887 -255.08669922 12.92717773 -254.61621094 12.37451172 C-248.37408691 5.11865255 -241.65668377 -1.22390522 -234 -7 C-233.20078125 -7.60328125 -232.4015625 -8.2065625 -231.578125 -8.828125 C-164.96929782 -57.15217609 -62.34570089 -54.16185647 0 0 Z M-189.2734375 58.4375 C-197.12775656 67.82657107 -201.81392512 77.48829409 -206 89 C-150.23 89 -94.46 89 -37 89 C-42.86658803 69.44470658 -54.55835771 52.96946306 -72.7265625 42.875 C-109.88691647 23.1311705 -159.67197424 26.69984867 -189.2734375 58.4375 Z " fill="#000000" transform="translate(2369,188)"/>
<path d="M0 0 C12.15212047 -0.20859145 24.30381474 -0.36847543 36.45736122 -0.46630955 C42.10096112 -0.51326769 47.7433358 -0.57694922 53.38623047 -0.67895508 C58.83281852 -0.77679539 64.27822887 -0.83056798 69.7256279 -0.85389519 C71.80300822 -0.87051661 73.8803245 -0.90297672 75.95720291 -0.95157051 C92.21098944 -1.31671968 92.21098944 -1.31671968 96.51277161 1.84941101 C98.1131903 4.19457488 99.0741257 6.32494911 100 9 C100.63091553 10.04921631 101.26183105 11.09843262 101.91186523 12.17944336 C102.45528564 13.13987549 102.99870605 14.10030762 103.55859375 15.08984375 C104.18386963 16.19021973 104.80914551 17.2905957 105.45336914 18.42431641 C105.77628937 18.99611633 106.09920959 19.56791626 106.43191528 20.15704346 C107.82507455 22.62372725 109.22579131 25.08609285 110.62602234 27.54876709 C111.35075634 28.82350632 112.07513036 30.09845027 112.79914856 31.37359619 C116.35861451 37.64042339 119.95657496 43.88480067 123.5625 50.125 C124.17665771 51.188396 124.79081543 52.25179199 125.42358398 53.34741211 C126.66257782 55.49245574 127.90175366 57.63739426 129.14111328 59.78222656 C132.26324605 65.18670645 135.38141204 70.59347412 138.5 76 C139.74998122 78.1666775 140.99998121 80.33334417 142.25 82.5 C164.75 121.5 164.75 121.5 166.62524414 124.75048828 C167.87435518 126.91557071 169.12354129 129.08060982 170.37280273 131.24560547 C173.51202309 136.68615706 176.64990563 142.12747216 179.78515625 147.5703125 C185.80747329 158.02206199 191.84669337 168.46299548 197.9375 178.875 C203.01275247 187.55262452 208.02244553 196.26613537 213 205 C219.66760833 216.69814046 226.42101507 228.34403948 233.22509766 239.96337891 C235.13843698 243.23684721 237.04448712 246.51448492 238.94921875 249.79296875 C239.59552246 250.90446289 240.24182617 252.01595703 240.90771484 253.16113281 C242.15524392 255.30697236 243.40170399 257.45343384 244.64697266 259.60058594 C245.20304199 260.55610352 245.75911133 261.51162109 246.33203125 262.49609375 C247.07030151 263.76731079 247.07030151 263.76731079 247.82348633 265.06420898 C248.85545122 266.93445415 248.85545122 266.93445415 250 268 C250.57161865 267.00709961 250.57161865 267.00709961 251.15478516 265.99414062 C252.97750122 262.82902985 254.80097008 259.66435373 256.625 256.5 C257.13185837 255.62066803 257.13185837 255.62066803 257.6489563 254.72357178 C262.3855068 246.50853204 267.14840099 238.3095522 271.9375 230.125 C277.01286192 221.44744285 282.02258825 212.7339433 287 204 C292.5400173 194.27884383 298.13374809 184.59105342 303.78344727 174.93310547 C309.93766742 164.40915375 316.02369996 153.84619863 322.10888672 143.28222656 C325.23680148 137.85340058 328.36858448 132.42680719 331.5 127 C332.75001879 124.83334417 334.00001878 122.6666775 335.25 120.5 C347.75 98.83333333 360.25 77.16666667 372.75 55.5 C373.3694751 54.42621094 373.9889502 53.35242188 374.62719727 52.24609375 C375.86976019 50.0923828 377.11243489 47.93873633 378.35522461 45.78515625 C381.25314623 40.76315738 384.15003349 35.74057193 387.04275513 30.71557617 C388.05947198 28.94954478 389.07655658 27.18372569 390.09375 25.41796875 C391.36400873 23.21265845 392.63359018 21.00695784 393.90234375 18.80078125 C394.48242188 17.79402344 395.0625 16.78726563 395.66015625 15.75 C396.41244507 14.44289063 396.41244507 14.44289063 397.17993164 13.109375 C397.7805542 12.08328125 398.38117676 11.0571875 399 10 C399.26151855 9.15861481 399.52303711 8.31722961 399.79248047 7.4503479 C401.12246781 4.06796057 402.17681519 2.32932595 405 0 C411.82196781 -1.93416862 419.36087201 -1.15676044 426.3671875 -0.9765625 C428.48850165 -0.95790323 430.60985899 -0.9436724 432.73123169 -0.9336853 C438.30549834 -0.89556526 443.87714473 -0.79739381 449.45037842 -0.68664551 C455.1410375 -0.58420979 460.83212153 -0.53864722 466.5234375 -0.48828125 C477.68344081 -0.38114391 488.84150225 -0.21055211 500 0 C498.67380825 3.3779741 497.24435047 6.51778979 495.453125 9.67578125 C494.94539551 10.57337158 494.43766602 11.47096191 493.91455078 12.39575195 C493.36524902 13.35827881 492.81594727 14.32080566 492.25 15.3125 C491.67362793 16.32723389 491.09725586 17.34196777 490.50341797 18.38745117 C485.26959599 27.5780878 479.93975958 36.71188214 474.59765625 45.83984375 C468.98321325 55.43942238 463.4419968 65.08135951 457.89111328 74.71777344 C454.76319852 80.14659942 451.63141552 85.57319281 448.5 91 C447.24998121 93.16665583 445.99998122 95.3333225 444.75 97.5 C407.25 162.5 369.75 227.5 332.25 292.5 C331.63116943 293.57266113 331.01233887 294.64532227 330.37475586 295.75048828 C329.12564482 297.91557071 327.87645871 300.08060982 326.62719727 302.24560547 C323.48797691 307.68615706 320.35009437 313.12747216 317.21484375 318.5703125 C311.19252671 329.02206199 305.15330663 339.46299548 299.0625 349.875 C293.64215502 359.14266083 288.30059615 368.45359529 282.98480225 377.78140259 C277.14935939 388.01848788 271.23538753 398.20810187 265.28515625 408.37890625 C260.49387846 416.56879708 255.74716918 424.78449089 251 433 C247.19516823 431.73172274 246.89015182 430.56878831 244.953125 427.12890625 C244.06850586 425.57526367 244.06850586 425.57526367 243.16601562 423.99023438 C242.53373047 422.85908203 241.90144531 421.72792969 241.25 420.5625 C240.58104434 419.38161359 239.9111066 418.20128302 239.24023438 417.02148438 C237.84578107 414.56741044 236.45560687 412.11098596 235.06835938 409.65283203 C231.91832838 404.07920501 228.70621187 398.54142826 225.5 393 C224.24970358 390.83350437 222.99970462 388.66683705 221.75 386.5 C221.13125 385.4275 220.5125 384.355 219.875 383.25 C109.25 191.5 109.25 191.5 107.37475586 188.24951172 C106.12564482 186.08442929 104.87645871 183.91939018 103.62719727 181.75439453 C100.48797691 176.31384294 97.35009437 170.87252784 94.21484375 165.4296875 C88.19252671 154.97793801 82.15330663 144.53700452 76.0625 134.125 C70.64041301 124.85436069 65.29675988 115.54063301 59.97976685 106.20953369 C55.36515971 98.11292157 50.70915114 90.04211199 46 82 C40.59879603 72.77602609 35.27757081 63.50845126 29.98654175 54.22106934 C25.22706771 45.86873372 20.41897527 37.54642337 15.5625 29.25 C11.55301805 22.39223985 7.54927404 15.53197637 3.625 8.625 C3.24931885 7.97047852 2.8736377 7.31595703 2.48657227 6.64160156 C0 2.2346526 0 2.2346526 0 0 Z " fill="#000000" transform="translate(672,47)"/>
<path d="M0 0 C0.71285156 0.20463867 1.42570312 0.40927734 2.16015625 0.62011719 C18.35052578 5.39584788 34.19395632 12.19941344 48 22 C48.9590625 22.67546875 49.918125 23.3509375 50.90625 24.046875 C67.78004268 36.3108171 82.3764115 50.97907548 93 69 C93 69.66 93 70.32 93 71 C92.2879541 71.40613525 91.5759082 71.81227051 90.84228516 72.23071289 C77.58727514 79.79304269 64.34057421 87.36892398 51.125 95 C50.04806885 95.62084473 48.9711377 96.24168945 47.86157227 96.88134766 C43.35672109 99.47907392 38.85467656 102.08055183 34.37109375 104.71484375 C33.71157715 105.09962891 33.05206055 105.48441406 32.37255859 105.88085938 C30.72624129 106.84191431 29.08361423 107.80928373 27.44140625 108.77734375 C25 110 25 110 22 110 C20.4921875 107.9453125 20.4921875 107.9453125 18.875 105.125 C7.74600212 86.94996992 -9.45375958 75.38076021 -29.8125 69.7421875 C-55.81565984 63.68753019 -84.63936441 66.12808412 -107.64355469 80.35888672 C-126.4726213 92.57838399 -138.11099961 111.33756067 -142.85571289 133.00805664 C-143.94323018 138.34026113 -144.79481841 143.5626879 -145 149 C-145.07734375 150.50820313 -145.07734375 150.50820313 -145.15625 152.046875 C-145.89547225 178.78207986 -137.55986985 202.65041959 -119.1875 222.1875 C-100.18152463 240.63557002 -74.30425162 244.68178285 -48.98046875 244.30859375 C-29.71017862 243.68345713 -11.94499698 237.25393643 3 225 C4.47533203 223.84177734 4.47533203 223.84177734 5.98046875 222.66015625 C9.19491911 219.96707907 11.67992427 216.9072383 14.1875 213.5625 C14.82461914 212.74168945 14.82461914 212.74168945 15.47460938 211.90429688 C18.10944224 208.44172492 20.17336023 204.9448279 22 201 C26.10897287 202.2576107 29.65406986 203.77976192 33.359375 205.94921875 C34.3800708 206.54275146 35.4007666 207.13628418 36.45239258 207.74780273 C37.54060303 208.38790283 38.62881348 209.02800293 39.75 209.6875 C41.48615318 210.69975348 43.22231213 211.71199721 44.95881653 212.72364807 C46.15748795 213.42246969 47.35571522 214.12205369 48.55351257 214.82237244 C52.70367062 217.24883046 56.86515344 219.65469741 61.03515625 222.046875 C82.81266127 234.54526919 82.81266127 234.54526919 93 241 C91.40750036 245.93007372 88.54103031 249.62168312 85.4375 253.6875 C84.9002832 254.39575928 84.36306641 255.10401855 83.80957031 255.83374023 C77.27200618 264.36738099 70.36842935 272.22142769 62 279 C61.07832031 279.75925781 60.15664062 280.51851563 59.20703125 281.30078125 C27.47698644 306.90890076 -12.59790622 318.41404462 -52.97729492 318.31567383 C-55.66692102 318.3125241 -58.35543138 318.33603665 -61.04492188 318.36132812 C-107.54554312 318.52952988 -151.76806225 301.75583549 -185 269 C-185.83789062 268.175 -186.67578125 267.35 -187.5390625 266.5 C-199.26309966 254.29211369 -208.20698504 239.44255432 -215 224 C-215.27537598 223.37480469 -215.55075195 222.74960937 -215.83447266 222.10546875 C-233.35816865 181.29078442 -232.27503338 131.80658977 -216.25 90.8125 C-200.62415864 52.5349023 -171.20336917 24.15983074 -133.6484375 7.46875 C-119.12847531 1.62345473 -104.45152984 -2.53251647 -89 -5 C-88.29439941 -5.11714355 -87.58879883 -5.23428711 -86.86181641 -5.35498047 C-58.40310806 -9.89246228 -27.69484898 -7.95237806 0 0 Z " fill="#000000" transform="translate(1957,153)"/>
<path d="M0 0 C27.06 0 54.12 0 82 0 C82.33 21.78 82.66 43.56 83 66 C84.98 61.38 86.96 56.76 89 52 C106.26147515 25.04787214 133.72612291 10.48869258 164.29785156 3.47265625 C168.84341216 2.50047272 173.40503009 1.70691845 178 1 C178.82371094 0.86851562 179.64742187 0.73703125 180.49609375 0.6015625 C187.37000998 -0.33177658 193.966264 0 201 0 C201 29.04 201 58.08 201 88 C196.40132242 87.4251653 192.21342817 86.86167608 187.75 85.9375 C163.58156778 81.96003188 138.48038885 86.51550126 118.125 100.3125 C98.33753703 114.82330618 87.32901365 135.22921006 83.46302795 159.3503418 C82.72134809 165.5549722 82.82212719 171.7950513 82.79467773 178.03515625 C82.78508404 179.44518816 82.77507312 180.85521729 82.76467896 182.26524353 C82.73778526 186.07248168 82.71669222 189.87973203 82.69667697 193.68701172 C82.67472088 197.67352487 82.64737953 201.66000109 82.62062073 205.64648438 C82.57082336 213.18625712 82.52583679 220.72605051 82.48259836 228.26586342 C82.42385313 238.46091926 82.35763633 248.65592643 82.29184818 258.8509388 C82.18847631 274.90059301 82.09505247 290.95028937 82 307 C54.94 307 27.88 307 0 307 C0 205.69 0 104.38 0 0 Z " fill="#000000" transform="translate(1502,155)"/>
<path d="M0 0 C27.06 0 54.12 0 82 0 C82 136.95 82 273.9 82 415 C54.94 415 27.88 415 0 415 C0 278.05 0 141.1 0 0 Z " fill="#000000" transform="translate(2473,47)"/>
</svg>
