<?xml version="1.0" encoding="UTF-8"?>
<svg version="1.1" xmlns="http://www.w3.org/2000/svg" width="800" height="150">
<path d="M0 0 C15.489375 -0.04125 30.97875 -0.0825 46.9375 -0.125 C54.2540979 -0.15231201 54.2540979 -0.15231201 61.71850586 -0.18017578 C67.70812988 -0.18920898 67.70812988 -0.18920898 70.51856995 -0.19088745 C72.46735041 -0.19394403 74.41612727 -0.20094775 76.36488342 -0.21115112 C79.32917784 -0.2258861 82.29324256 -0.22780879 85.25756836 -0.22705078 C86.11517982 -0.234247 86.97279127 -0.24144321 87.85639095 -0.2488575 C97.44728352 -0.21623943 105.72990093 1.3933857 113 8 C120.67402213 17.93328412 120.75030916 29.99505343 120 42 C118.60067011 51.40725978 114.6636029 60.45678725 107.0625 66.4375 C99.32568031 71.60022742 92.14818554 72.83068305 83 74 C83.85722656 74.9178125 84.71445313 75.835625 85.59765625 76.78125 C96.4838146 88.45727589 96.4838146 88.45727589 101.30078125 94.05078125 C104.23550861 97.41728459 107.26347942 100.7004658 110.27734375 103.99609375 C112 106 112 106 112 107 C102.53365222 109.77233567 92.22188748 111.16993446 83 107 C68.27661794 97.28443692 56.47402889 82.22287199 45 69 C43.72327774 67.53301898 42.44572844 66.06675719 41.16723633 64.60131836 C40.62029617 63.97237167 40.07335602 63.34342499 39.50984192 62.69541931 C37.45366627 60.38651541 35.27824337 58.21764184 33.0625 56.0625 C31.69012855 54.72678621 30.32982791 53.37807563 29 52 C29 51.67 29 51.34 29 51 C30.01024986 50.99120064 30.01024986 50.99120064 31.04090881 50.98222351 C38.06555081 50.91817375 45.0897396 50.83372363 52.11401367 50.73754883 C54.73374447 50.70434257 57.35354606 50.67629734 59.97338867 50.65356445 C63.74428411 50.61994046 67.51453322 50.56761804 71.28515625 50.51171875 C73.03554955 50.50213387 73.03554955 50.50213387 74.82130432 50.49235535 C81.63054272 50.36989342 87.36707664 50.12789814 92.7421875 45.5 C96.49133608 40.53561015 97.51015567 37.22389919 97 31 C95.10772622 25.20423575 92.50567162 21.8675373 87 19 C83.64073936 17.91408537 80.4639091 17.8455524 76.94628906 17.79467773 C75.08931396 17.76440491 75.08931396 17.76440491 73.19482422 17.73352051 C71.89818848 17.71704468 70.60155273 17.70056885 69.265625 17.68359375 C68.07050293 17.66494263 66.87538086 17.6462915 65.64404297 17.6270752 C61.17943722 17.55877402 56.71470973 17.49862754 52.25 17.4375 C42.2675 17.293125 32.285 17.14875 22 17 C22 47.36 22 77.72 22 109 C14.74 109 7.48 109 0 109 C0 73.03 0 37.06 0 0 Z " fill="#EE363B" transform="translate(161,34)"/>
<path d="M0 0 C1.35553986 -0.01029488 1.35553986 -0.01029488 2.73846436 -0.02079773 C5.69820275 -0.03896103 8.65740584 -0.03524373 11.6171875 -0.02954102 C13.69026866 -0.03410734 15.76334831 -0.03941425 17.83642578 -0.04542542 C22.17031017 -0.05433559 26.50401006 -0.05195664 30.83789062 -0.04199219 C36.37586076 -0.03049629 41.91319383 -0.05073454 47.45108032 -0.07990932 C51.72863774 -0.09830314 56.00604331 -0.09797265 60.28363037 -0.0922718 C62.32485855 -0.09211903 64.3660973 -0.09812702 66.4072876 -0.11056328 C69.26671739 -0.12553434 72.12498032 -0.11475195 74.984375 -0.09765625 C75.81684753 -0.10732422 76.64932007 -0.11699219 77.50701904 -0.12695312 C85.43601774 -0.02828774 92.42956691 2.635352 98.1171875 8.27905273 C110.49345867 21.43425006 113.99440065 39.72031453 113.703125 57.20483398 C113.10809684 73.23753731 107.02313782 86.36587807 95.4921875 97.40405273 C83.24732333 108.47932949 67.92366005 109.72463024 52.0546875 109.66967773 C50.19179077 109.67254791 50.19179077 109.67254791 48.29125977 109.67547607 C45.68277787 109.67682843 43.07428902 109.67319891 40.46582031 109.66479492 C36.50309949 109.65408223 32.54083194 109.66472315 28.578125 109.67749023 C26.02864485 109.67616847 23.47916497 109.67360573 20.9296875 109.66967773 C19.76058838 109.6737262 18.59148926 109.67777466 17.38696289 109.6819458 C0.08103529 109.58466911 -14.52454922 106.01117686 -27.21875 93.75170898 C-35.09193951 85.25905532 -38.80477623 74.71163105 -38.87890625 63.30639648 C-38.88793472 62.43568008 -38.8969632 61.56496368 -38.90626526 60.66786194 C-38.92073029 58.82808851 -38.92964515 56.98826407 -38.93334961 55.1484375 C-38.94517421 52.37400107 -38.99433363 49.60184398 -39.04492188 46.82788086 C-39.17813386 32.28915276 -37.07605509 20.2798949 -26.5078125 9.40405273 C-18.77361425 2.2076106 -10.4023698 -0.05625147 0 0 Z M-12.875 24.41186523 C-20.5083531 33.72528648 -23.58704477 45.56622383 -22.5078125 57.40405273 C-21.29248116 65.2847169 -19.57041594 72.13804356 -14.5078125 78.40405273 C-14.01539063 79.01893555 -13.52296875 79.63381836 -13.015625 80.26733398 C-6.85865017 87.14605945 1.94739015 91.04009859 11.13868713 91.55122375 C12.0862236 91.56106796 13.03376007 91.57091217 14.01000977 91.58105469 C15.633088 91.60030754 15.633088 91.60030754 17.28895569 91.61994934 C18.45043625 91.62733627 19.61191681 91.63472321 20.80859375 91.64233398 C22.01603745 91.65040573 23.22348114 91.65847748 24.46751404 91.66679382 C27.02365696 91.6806146 29.57981817 91.69134571 32.13598633 91.69921875 C34.73597667 91.71071955 37.33594375 91.73114086 39.93579102 91.76074219 C43.70605406 91.80365419 47.47561603 91.81962284 51.24609375 91.82983398 C52.96706017 91.85609612 52.96706017 91.85609612 54.72279358 91.88288879 C65.5370827 91.85423429 75.14103882 89.48396475 83.5234375 82.39233398 C90.96762955 74.87429083 95.35140267 65.45524326 95.7421875 54.90405273 C95.57117739 43.4121733 92.45311173 32.8052049 84.53515625 24.30249023 C78.65884994 18.84190731 73.50550506 17.15984745 65.4362793 17.12939453 C64.75735626 17.1242836 64.07843323 17.11917267 63.37893677 17.11390686 C61.14966851 17.10008482 58.9207121 17.10096237 56.69140625 17.10327148 C55.12970364 17.09937973 53.56800209 17.09504407 52.00630188 17.09028625 C48.73732062 17.08283935 45.46844738 17.08310362 42.19946289 17.08837891 C38.03021826 17.09416332 33.86141937 17.07726025 29.69224834 17.05403423 C26.46726436 17.03923013 23.24238599 17.03843436 20.01737404 17.04154396 C18.48133272 17.04103383 16.94528501 17.03585448 15.40927696 17.02573204 C5.03053564 16.96573747 -4.88281587 16.94010239 -12.875 24.41186523 Z " fill="#EE373B" transform="translate(38.5078125,32.595947265625)"/>
<path d="M0 0 C0.72896484 -0.020625 1.45792969 -0.04125 2.20898438 -0.0625 C7.62249084 -0.10219574 7.62249084 -0.10219574 9.65893555 1.52783203 C11.12855628 3.33105079 12.17820058 5.06451508 13.2421875 7.1328125 C13.6652417 7.94862793 14.0882959 8.76444336 14.52416992 9.60498047 C15.22376831 10.97614014 15.22376831 10.97614014 15.9375 12.375 C16.44579346 13.36000488 16.95408691 14.34500977 17.4777832 15.35986328 C18.99233244 18.29970332 20.50087409 21.24249515 22.0067749 24.18676758 C23.13819819 26.39793903 24.27131612 28.60823592 25.40478516 30.81835938 C28.92946341 37.69128074 32.45254428 44.56501434 35.9699707 51.44165039 C42.53303918 64.27253485 49.12163723 77.09001137 55.7331543 89.89599609 C57.51365341 93.34525262 59.28841248 96.79744101 61.0625 100.25 C61.50706543 101.10706543 61.95163086 101.96413086 62.40966797 102.84716797 C65.0625 108.0218709 65.0625 108.0218709 65.0625 110.25 C61.81297252 110.39546783 58.56428287 110.4841168 55.3125 110.5625 C54.39210938 110.60439453 53.47171875 110.64628906 52.5234375 110.68945312 C45.67859492 110.8134539 45.67859492 110.8134539 42.59375 107.9921875 C42.0884375 107.08726562 41.583125 106.18234375 41.0625 105.25 C40.57265625 104.53457031 40.0828125 103.81914062 39.578125 103.08203125 C39.16046875 102.41558594 38.7428125 101.74914062 38.3125 101.0625 C37.88453125 100.38832031 37.4565625 99.71414062 37.015625 99.01953125 C36.0625 97.25 36.0625 97.25 36.0625 95.25 C35.46781418 95.25444122 34.87312836 95.25888245 34.26042175 95.26345825 C28.08013304 95.30764875 21.8998891 95.33784858 15.71948242 95.35986328 C13.4118467 95.36993107 11.10422375 95.38358623 8.79663086 95.40087891 C5.48287809 95.42509287 2.16929374 95.43647526 -1.14453125 95.4453125 C-2.1789888 95.45563507 -3.21344635 95.46595764 -4.2792511 95.47659302 C-5.2400206 95.47674408 -6.2007901 95.47689514 -7.19067383 95.47705078 C-8.03672684 95.481492 -8.88277985 95.48593323 -9.75447083 95.49050903 C-11.9375 95.25 -11.9375 95.25 -14.9375 93.25 C-16.12301023 90.62514766 -17.15654639 88.07710514 -18.125 85.375 C-18.39763672 84.65441406 -18.67027344 83.93382813 -18.95117188 83.19140625 C-20.29140769 79.54354636 -20.9375 77.24022383 -20.9375 73.25 C-6.0875 73.25 8.7625 73.25 24.0625 73.25 C22.474375 70.02476563 20.88625 66.79953125 19.25 63.4765625 C17.72008222 60.36276815 16.19151834 57.24831273 14.66308594 54.13378906 C13.59744532 51.96414736 12.53039134 49.79519927 11.46191406 47.62695312 C9.92924729 44.51612298 8.40162649 41.40286042 6.875 38.2890625 C6.39377686 37.315065 5.91255371 36.3410675 5.41674805 35.33755493 C4.9762915 34.43677216 4.53583496 33.53598938 4.08203125 32.60791016 C3.69120361 31.81293121 3.30037598 31.01795227 2.89770508 30.19888306 C2.0625 28.25 2.0625 28.25 2.0625 26.25 C1.4025 26.25 0.7425 26.25 0.0625 26.25 C-0.20900879 27.1265625 -0.48051758 28.003125 -0.76025391 28.90625 C-1.8722803 32.0647555 -3.17485355 34.81367811 -4.7734375 37.75 C-5.33667725 38.7901123 -5.89991699 39.83022461 -6.48022461 40.90185547 C-7.08487549 42.00674316 -7.68952637 43.11163086 -8.3125 44.25 C-8.94099854 45.40773926 -9.56949707 46.56547852 -10.21704102 47.75830078 C-12.11768148 51.25892561 -14.02699789 54.75474727 -15.9375 58.25 C-16.95967846 60.12237234 -17.98181721 61.99476635 -19.00390625 63.8671875 C-20.43570963 66.49006567 -21.86818403 69.11255608 -23.30371094 71.73339844 C-26.21804497 77.06307661 -29.09612756 82.41081647 -31.94921875 87.7734375 C-32.29095627 88.41493744 -32.63269379 89.05643738 -32.98478699 89.71737671 C-34.67394375 92.88850338 -36.35946123 96.06146564 -38.03881836 99.23779297 C-38.64733643 100.38135254 -39.25585449 101.52491211 -39.8828125 102.703125 C-40.69516357 104.23694824 -40.69516357 104.23694824 -41.52392578 105.80175781 C-42.9375 108.25 -42.9375 108.25 -44.9375 110.25 C-47.64306641 110.47705078 -47.64306641 110.47705078 -51.0390625 110.4453125 C-52.25078125 110.43886719 -53.4625 110.43242187 -54.7109375 110.42578125 C-55.98195313 110.40902344 -57.25296875 110.39226562 -58.5625 110.375 C-60.480625 110.36146484 -60.480625 110.36146484 -62.4375 110.34765625 C-65.60435167 110.32402303 -68.77083424 110.29107629 -71.9375 110.25 C-70.64641809 106.85997279 -69.17968459 103.72839169 -67.390625 100.57421875 C-66.88281494 99.67646729 -66.37500488 98.77871582 -65.85180664 97.85375977 C-65.30258545 96.89139404 -64.75336426 95.92902832 -64.1875 94.9375 C-63.61185303 93.92421631 -63.03620605 92.91093262 -62.44311523 91.86694336 C-56.60611726 81.61847185 -50.66160338 71.43319313 -44.69921875 61.25732422 C-41.79476312 56.29930254 -38.89656868 51.33763267 -36 46.375 C-35.1486145 44.91634521 -35.1486145 44.91634521 -34.2800293 43.42822266 C-28.52749467 33.56280769 -22.81911304 23.6720671 -17.1171875 13.77734375 C-16.56385742 12.81940918 -16.01052734 11.86147461 -15.44042969 10.87451172 C-14.51189108 9.25303835 -13.5936571 7.62555433 -12.69238281 5.98876953 C-9.29716398 -0.17112749 -6.69086692 0.04707734 0 0 Z " fill="#EE373C" transform="translate(349.9375,32.75)"/>
<path d="M0 0 C1.24467545 -0.00043808 1.24467545 -0.00043808 2.51449585 -0.00088501 C5.24699496 0.00050417 7.97921866 0.01604595 10.71166992 0.03173828 C12.61024324 0.03546988 14.50881848 0.03831616 16.40739441 0.04031372 C21.39689479 0.04793864 26.38627817 0.06757736 31.37573242 0.08972168 C36.47011736 0.11020468 41.56452127 0.11932069 46.65893555 0.12939453 C56.64922124 0.1508243 66.63942021 0.1849465 76.62963867 0.22705078 C75.08393845 4.29135326 73.21251108 7.46358464 70.62963867 10.97705078 C69.57776367 12.42337891 69.57776367 12.42337891 68.50463867 13.89892578 C66.62963867 16.22705078 66.62963867 16.22705078 64.62963867 17.22705078 C62.88074848 17.32615974 61.12814973 17.36260623 59.37646484 17.36889648 C58.27739304 17.37593094 57.17832123 17.38296539 56.04594421 17.39021301 C54.85024307 17.39437729 53.65454193 17.39854156 52.42260742 17.40283203 C49.89069827 17.42605258 47.35879722 17.45017078 44.8269043 17.47509766 C40.83564035 17.51004657 36.84491314 17.53945669 32.85351562 17.55297852 C29.00118146 17.56858473 25.14970986 17.60890144 21.29760742 17.65283203 C19.53745552 17.64996941 19.53745552 17.64996941 17.741745 17.64704895 C8.66269339 17.77910862 -1.59243842 18.87461025 -8.99536133 24.66455078 C-14.50656271 30.61084701 -14.61312423 33.44086531 -16.37036133 42.22705078 C12.33963867 42.55705078 41.04963867 42.88705078 70.62963867 43.22705078 C68.62963867 49.22705078 68.62963867 49.22705078 63.62963867 59.22705078 C36.89963867 59.22705078 10.16963867 59.22705078 -17.37036133 59.22705078 C-15.64081059 68.73957986 -14.14571764 76.27097418 -6.25384521 82.20878601 C2.86550762 87.13896661 13.82646892 86.69640976 23.89526367 86.73876953 C25.42512412 86.75565649 26.95497103 86.77381197 28.48480225 86.79316711 C32.46962246 86.84023815 36.45438781 86.87032265 40.43939209 86.89660645 C44.52244909 86.92663118 48.60531765 86.97308488 52.68823242 87.01806641 C60.66860762 87.10360998 68.64900084 87.17117001 76.62963867 87.22705078 C75.86396001 88.81288326 75.09185903 90.39561572 74.31713867 91.97705078 C73.88788086 92.85876953 73.45862305 93.74048828 73.01635742 94.64892578 C72.55874023 95.49970703 72.10112305 96.35048828 71.62963867 97.22705078 C71.22306534 97.98465698 70.816492 98.74226318 70.39759827 99.52282715 C67.67501711 102.14725769 65.37243229 101.73536991 61.65478516 101.74462891 C60.5955761 101.75514282 60.5955761 101.75514282 59.51496887 101.76586914 C57.17649148 101.78349482 54.83922257 101.7718026 52.50073242 101.75830078 C50.86987578 101.76099652 49.23902071 101.76487962 47.60816956 101.76989746 C44.18409985 101.7758004 40.76044704 101.76721215 37.33642578 101.74853516 C32.9708485 101.72587102 28.60626172 101.73878282 24.2407217 101.76282501 C20.86809513 101.77737013 17.49569803 101.77263527 14.12306404 101.76231384 C12.51528873 101.75966393 10.9074919 101.76285458 9.29974174 101.77223206 C-3.51441434 101.83051448 -13.40250452 100.30183111 -22.97583008 91.09033203 C-33.74752673 78.20998351 -37.80994807 60.75188451 -36.37036133 44.22705078 C-35.02492147 30.82323265 -31.54481224 18.53522662 -22.37036133 8.22705078 C-20.18676758 6.49658203 -20.18676758 6.49658203 -17.93286133 5.03955078 C-17.19165039 4.55099609 -16.45043945 4.06244141 -15.68676758 3.55908203 C-10.41936587 0.53010398 -6.02501508 -0.05576873 0 0 Z " fill="#EE353A" transform="translate(673.370361328125,39.77294921875)"/>
<path d="M0 0 C0.7910614 -0.00029205 1.5821228 -0.00058411 2.39715576 -0.00088501 C4.98892526 0.00049852 7.58040041 0.01601323 10.17211914 0.03173828 C11.9781529 0.03547189 13.7841887 0.03831722 15.59022522 0.04031372 C20.32652451 0.04792277 25.06269969 0.06754766 29.7989502 0.08972168 C34.63881756 0.11023906 39.47870513 0.11932801 44.31860352 0.12939453 C53.80238178 0.15079626 63.28606823 0.18489906 72.76977539 0.22705078 C70.84114057 3.27895643 68.82375271 6.25824437 66.76977539 9.22705078 C66.2699263 10.00211975 65.77007721 10.77718872 65.25508118 11.57574463 C62.85400023 14.87104195 61.09149399 16.88957803 57.06234741 17.91833496 C53.74257529 18.1835972 50.51676246 18.17836305 47.18774414 18.08642578 C45.97838699 18.08781555 44.76902985 18.08920532 43.52302551 18.09063721 C39.66653176 18.09032639 35.81326195 18.03727422 31.95727539 17.97705078 C28.1125331 17.93797869 24.268603 17.91070796 20.42366028 17.90631104 C18.03605591 17.90151085 15.64837258 17.87608387 13.26127625 17.82659912 C3.12725852 17.77026261 -5.00031311 20.11195264 -12.47631836 27.18017578 C-19.78322374 35.70761102 -21.70183616 46.32830683 -21.48022461 57.24267578 C-20.56916188 68.11848707 -15.73759965 77.47041325 -7.68334961 84.71923828 C1.01838501 90.0677567 10.32496291 89.69894876 20.17993164 89.73876953 C21.75892003 89.75564071 23.33789518 89.77379419 24.91685486 89.79316711 C29.04474756 89.84040888 33.17258659 89.87038439 37.30065918 89.89660645 C41.5241963 89.92654328 45.74754896 89.97302807 49.97094727 90.01806641 C58.23713211 90.10380519 66.50333425 90.17128022 74.76977539 90.22705078 C73.6279401 92.40967399 72.45257067 94.56072404 71.22288513 96.69549561 C70.30612189 98.29264734 69.43430766 99.91725892 68.62928772 101.57354736 C67.21371079 104.04899134 66.07910735 105.53525182 63.76977539 107.22705078 C58.78647741 108.37637516 53.84903022 108.25703306 48.76586914 108.14892578 C47.28101748 108.14414812 45.79615355 108.14234815 44.31129456 108.14337158 C41.19959662 108.13712486 38.08974782 108.10410682 34.97851562 108.05029297 C31.02680044 107.98274401 27.07713229 107.96702466 23.12490749 107.9700737 C20.05572104 107.96897497 16.98696596 107.94685601 13.91792488 107.91806793 C12.46338213 107.90549517 11.0087913 107.89749321 9.55419731 107.8944931 C-3.76309924 107.83700281 -15.35463546 106.24280602 -25.08178711 96.57861328 C-38.32844418 82.07954499 -42.03842927 65.21896081 -41.51147461 46.00439453 C-40.91245175 33.34254889 -36.86628375 20.27774059 -28.05834961 10.82080078 C-19.62948168 3.47255694 -11.20856444 -0.11006698 0 0 Z " fill="#EE373C" transform="translate(452.230224609375,36.77294921875)"/>
<path d="M0 0 C6.6 0 13.2 0 20 0 C20 30.69 20 61.38 20 93 C47.39 93 74.78 93 103 93 C100.59368093 99.01579768 98.78553214 102.81514426 93 106 C86.12099314 107.48728844 78.86377717 106.9289651 71.875 106.78125 C69.80137317 106.76631582 67.72771797 106.75493436 65.65405273 106.74694824 C60.21503789 106.71650702 54.77775168 106.6380126 49.3394165 106.54931641 C43.7825051 106.4672521 38.22531239 106.43089281 32.66796875 106.390625 C21.7778893 106.30501101 10.88908879 106.16860081 0 106 C-0.93147229 103.20558312 -1.11384332 101.6072626 -1.08229065 98.72895813 C-1.07525116 97.85817627 -1.06821167 96.98739441 -1.06095886 96.09022522 C-1.04801285 95.13788498 -1.03506683 94.18554474 -1.02172852 93.2043457 C-1.01212097 92.19928986 -1.00251343 91.19423401 -0.99261475 90.15872192 C-0.95958887 86.83100457 -0.91927005 83.50341703 -0.87890625 80.17578125 C-0.85460865 77.87078817 -0.83076491 75.56579026 -0.80735779 73.26078796 C-0.74448108 67.18950917 -0.67542451 61.11831565 -0.60510254 55.04711914 C-0.53445153 48.85371794 -0.46961521 42.66025621 -0.40429688 36.46679688 C-0.27523826 24.31112961 -0.13911713 12.15555632 0 0 Z " fill="#EE353A" transform="translate(535,37)"/>
<path d="M0 0 C2.99097826 2.67685725 5.74934493 5.8394623 6.22460938 9.93603516 C7.14372598 28.08858802 7.14372598 28.08858802 2.875 33.0625 C-2.44491404 37.60415006 -7.92667908 40 -15 40 C-21.60712132 39.20515834 -26.46141921 36.53858079 -31.1875 31.8125 C-35.04513236 25.82651876 -36.66531505 20.14687398 -35.5078125 13.06640625 C-33.86306686 6.37355668 -30.04457229 2.0792201 -24.4375 -1.75 C-16.23287379 -5.95750062 -7.80054201 -4.39618175 0 0 Z M-27.53515625 6.6953125 C-30.75126851 11.12082631 -31.79074395 15.08828196 -31.48046875 20.5390625 C-30.51729518 25.47239054 -28.18162343 29.083636 -24.42578125 32.3828125 C-19.89403342 35.40397772 -15.31399175 35.90392643 -10 35 C-4.68771797 33.24488208 -1.06297253 30.77823715 2 26 C3.79973286 20.60080143 3.70112627 15.06442735 1.875 9.6875 C-0.76013231 5.91047703 -3.8324947 3.08375265 -8 1 C-15.95487132 0.19527836 -22.01527734 0.59956836 -27.53515625 6.6953125 Z " fill="#F1575B" transform="translate(794,10)"/>
<path d="M0 0 C2.206875 -0.04125 4.41375 -0.0825 6.6875 -0.125 C8.54955078 -0.15980469 8.54955078 -0.15980469 10.44921875 -0.1953125 C13.83709655 -0.00896059 16.02229376 0.41999261 19 2 C20.52491998 5.04983996 20.23562548 7.6423369 20 11 C18.5 12.9375 18.5 12.9375 17 14 C17.4640625 15.3303125 17.4640625 15.3303125 17.9375 16.6875 C18.8290671 19.46709155 19.49377007 22.13136375 20 25 C17.3125 25.5 17.3125 25.5 14 25 C11.52424998 22.19798835 9 18.83491389 9 15 C8.01 15 7.02 15 6 15 C6 18.3 6 21.6 6 25 C4.02 25 2.04 25 0 25 C0 16.75 0 8.5 0 0 Z M6 4 C6 6.31 6 8.62 6 11 C9.465 10.505 9.465 10.505 13 10 C13.33 8.68 13.66 7.36 14 6 C11.09399739 4.74335022 9.20395416 4 6 4 Z " fill="#F04C51" transform="translate(771,15)"/>
<path d="M0 0 C0.66 0.33 1.32 0.66 2 1 C-1.63 4.63 -5.26 8.26 -9 12 C-9 8.47601214 -8.44884893 7.98495633 -6.1875 5.4375 C-5.40439453 4.53837891 -5.40439453 4.53837891 -4.60546875 3.62109375 C-3 2 -3 2 0 0 Z " fill="#F26A6E" transform="translate(17,38)"/>
<path d="M0 0 C0.66 0.33 1.32 0.66 2 1 C-0.97 3.97 -3.94 6.94 -7 10 C-7.66 9.67 -8.32 9.34 -9 9 C-6.21000549 5.51250686 -3.74764169 2.49842779 0 0 Z " fill="#F37175" transform="translate(430,43)"/>
</svg>
