<?xml version="1.0" encoding="UTF-8"?>
<svg version="1.1" xmlns="http://www.w3.org/2000/svg" width="512" height="512">
<path d="M0 0 C3.29589397 2.79591487 4.57731423 4.87722325 5.4921875 9.078125 C5.7188208 10.06611084 5.9454541 11.05409668 6.17895508 12.07202148 C6.4086499 13.12075439 6.63834473 14.1694873 6.875 15.25 C10.61040484 31.08561286 15.86319376 45.00439834 23.95214844 59.13769531 C24.8717297 60.77203032 25.72662799 62.44241078 26.5703125 64.1171875 C29.83358597 69.87490037 33.29008795 71.90507053 39.5625 73.6875 C40.97447242 74.06674812 42.38724438 74.44303139 43.80078125 74.81640625 C60.39171933 79.25966092 73.17875961 90.5023112 82 105 C86.91628523 113.8378802 92 125.6116694 92 136 C94.64 136 97.28 136 100 136 C100.103125 135.05125 100.20625 134.1025 100.3125 133.125 C101 130 101 130 104 128 C106.45982361 127.73257446 106.45982361 127.73257446 109.41772461 127.70947266 C110.52574936 127.69671295 111.63377411 127.68395325 112.77537537 127.67080688 C114.57072472 127.66746841 114.57072472 127.66746841 116.40234375 127.6640625 C117.63159073 127.6574057 118.86083771 127.6507489 120.12733459 127.64389038 C122.72899883 127.63375758 125.3306891 127.62907355 127.93237305 127.62939453 C131.91811109 127.62963781 135.9031155 127.58870375 139.88867188 127.55078125 C142.4140587 127.5449134 144.9394508 127.5409438 147.46484375 127.5390625 C148.65971909 127.52469147 149.85459442 127.51032043 151.0856781 127.49551392 C152.75244347 127.5047438 152.75244347 127.5047438 154.45288086 127.51416016 C155.42978378 127.51131012 156.40668671 127.50846008 157.41319275 127.50552368 C160.84963987 128.16241133 161.85674708 129.25387765 164 132 C164.50336456 135.10473633 164.50336456 135.10473633 164.50793457 138.83203125 C164.51729451 139.8619796 164.51729451 139.8619796 164.52684355 140.91273499 C164.54279568 143.21300621 164.53016168 145.51222097 164.51757812 147.8125 C164.5229983 149.46175759 164.53012037 151.11101034 164.53881836 152.76025391 C164.55706725 157.23960216 164.5499778 161.71858225 164.53730202 166.19793701 C164.52718243 170.88327026 164.5365648 175.56857177 164.54284668 180.25390625 C164.55012613 188.12245347 164.5405276 195.99085057 164.52148438 203.859375 C164.49971504 212.95945771 164.5067662 222.05918196 164.52879 231.15925598 C164.54693554 238.96913219 164.54950647 246.77890042 164.53903532 254.58879089 C164.53279573 259.25472897 164.53197752 263.9204985 164.54518127 268.58642578 C164.55672689 272.97288817 164.54873787 277.35888794 164.52560425 281.74530029 C164.52031022 283.35617301 164.5218428 284.96708458 164.53065491 286.57794189 C164.5415674 288.77514501 164.5279014 290.97086074 164.50793457 293.16796875 C164.50567242 295.01297974 164.50567242 295.01297974 164.50336456 296.89526367 C163.90433062 300.59008563 162.95526677 301.7729859 160 304 C157.41992188 304.50793457 157.41992188 304.50793457 154.46875 304.51757812 C153.36080078 304.53018677 152.25285156 304.54279541 151.11132812 304.55578613 C149.91958984 304.54768921 148.72785156 304.53959229 147.5 304.53125 C145.65825195 304.53699036 145.65825195 304.53699036 143.77929688 304.54284668 C141.18358541 304.54556842 138.58784664 304.53818911 135.9921875 304.52148438 C132.01500401 304.50008075 128.03962718 304.52127963 124.0625 304.546875 C121.54166267 304.54423177 119.02082647 304.53910691 116.5 304.53125 C115.30826172 304.53934692 114.11652344 304.54744385 112.88867188 304.55578613 C111.22674805 304.53687317 111.22674805 304.53687317 109.53125 304.51757812 C108.55736328 304.51439575 107.58347656 304.51121338 106.58007812 304.50793457 C103.232162 303.84883734 102.02286565 302.71173261 100 300 C100 298.68 100 297.36 100 296 C96.10017049 295.69174142 92.74763884 295.82018777 89 297 C86.49950784 299.5436041 84.73887712 302.20490483 82.8203125 305.20703125 C78.1056464 312.44090735 70.42593041 316.93894756 62.27872658 319.55208111 C59.22885544 320.15158037 56.31732065 320.13630046 53.20834351 320.14717102 C52.52594467 320.15084771 51.84354583 320.1545244 51.14046824 320.1583125 C48.85454278 320.1693227 46.56866282 320.17318866 44.28271484 320.17700195 C42.64319719 320.1832687 41.00368095 320.18991569 39.36416626 320.19691467 C33.97976669 320.21793528 28.59536692 320.22831634 23.2109375 320.23828125 C21.35505788 320.24232979 19.49917842 320.24644674 17.6432991 320.25063133 C8.92198472 320.26967993 0.20067877 320.28391072 -8.52065241 320.2922433 C-18.57592185 320.3020098 -28.63097081 320.32831535 -38.68616259 320.36874419 C-46.46553023 320.39894521 -54.24483482 320.41371602 -62.02425992 320.41702431 C-66.66695467 320.41937057 -71.30941378 320.42827541 -75.95204544 320.45348549 C-80.32369609 320.47684058 -84.69495723 320.48096972 -89.06665421 320.47072411 C-90.66535237 320.47023041 -92.26407019 320.4765015 -93.86270905 320.49028015 C-105.02430224 320.58104763 -114.87725692 319.75915945 -123.3984375 311.84375 C-131.41735946 302.61221058 -132.73897956 293.78023233 -132.20556641 281.97949219 C-131.75440365 277.6350413 -130.05125579 273.80947503 -128 270 C-128.7425 269.72414063 -129.485 269.44828125 -130.25 269.1640625 C-137.53819654 266.07900203 -142.6179063 261.13123633 -146 254 C-147.84548817 249.39927596 -148.3867688 245.16759371 -148.375 240.25 C-148.37338867 239.54770264 -148.37177734 238.84540527 -148.37011719 238.12182617 C-148.17655765 229.86043952 -145.70646461 223.11406923 -140 217 C-141.05109597 214.02189474 -142.21233975 211.68812599 -144 209.0625 C-147.51987508 203.67269129 -148.39021604 198.60802292 -148.375 192.25 C-148.37338867 191.54770264 -148.37177734 190.84540527 -148.37011719 190.12182617 C-148.17655765 181.86043952 -145.70646461 175.11406923 -140 169 C-141.05109597 166.02189474 -142.21233975 163.68812599 -144 161.0625 C-148.96350174 153.46213796 -148.8938031 144.77044292 -148 136 C-146.04761912 127.42505441 -141.30210128 120.98124588 -134 116.1875 C-127.56938162 112.26214337 -121.5816836 111.6987146 -114.23095703 111.68115234 C-113.26447739 111.67110672 -112.29799774 111.6610611 -111.30223083 111.65071106 C-108.12076388 111.6199217 -104.93938092 111.60285559 -101.7578125 111.5859375 C-99.54677612 111.56722246 -97.33574685 111.54764879 -95.12472534 111.5272522 C-89.31498412 111.47596067 -83.50521974 111.43631888 -77.69537354 111.39910889 C-71.76300341 111.35905066 -65.83072934 111.30796658 -59.8984375 111.2578125 C-48.2656925 111.16108843 -36.63289323 111.07667227 -25 111 C-25.82845428 109.8749128 -25.82845428 109.8749128 -26.67364502 108.72709656 C-27.39654724 107.74038467 -28.11944946 106.75367279 -28.86425781 105.73706055 C-29.58156067 104.76012741 -30.29886353 103.78319427 -31.03790283 102.7766571 C-43.69872933 84.85971884 -46.81381094 61.82392441 -43.62060547 40.46191406 C-40.71155913 26.38079507 -32.54116265 14.44353458 -21 6 C-14.86232764 2.12484216 -7.48868354 -2.32511545 0 0 Z M-15.8125 24.375 C-25.27571603 34.07866072 -27.4509707 45.64947394 -27.43383789 58.734375 C-27.02486561 78.36504458 -17.3123264 95.06277065 -4 109 C-2.91991789 109.93120506 -1.82757392 110.84840299 -0.72265625 111.75 C2 114 2 114 3 116 C3.47054626 123.41110366 3.47054626 123.41110366 1.72453308 125.5962677 C-1.27557738 128.03829215 -5.11163683 127.48339581 -8.82421875 127.51171875 C-9.68561966 127.52966995 -10.54702057 127.54762115 -11.43452454 127.56611633 C-14.18546658 127.62029298 -16.93623441 127.65413823 -19.6875 127.6875 C-21.55275866 127.72066663 -23.4179943 127.75515567 -25.28320312 127.79101562 C-29.85534318 127.87602356 -34.42743091 127.94279943 -39 128 C-38.67692871 129.2389502 -38.35385742 130.47790039 -38.02099609 131.75439453 C-35.40970385 141.76847236 -35.75229648 152.94061994 -41 162 C-43.25 165.125 -43.25 165.125 -45 167 C-43.94890403 169.97810526 -42.78766025 172.31187401 -41 174.9375 C-37.3534463 180.52128535 -36.696829 185.56219258 -36.8125 192.125 C-36.81314453 192.82753906 -36.81378906 193.53007812 -36.81445312 194.25390625 C-36.84321821 197.63540136 -36.95328252 200.76773641 -38 204 C-18.60054259 203.06131658 2.85288967 195.55987179 17 182 C17.64195312 181.38640625 18.28390625 180.7728125 18.9453125 180.140625 C22.62108878 176.28981176 24.80141639 172.47345543 27 167.625 C29.48533746 162.37596729 29.48533746 162.37596729 31.75390625 160.71875 C34.5705942 159.79404899 36.92824271 159.98724315 39.8125 160.5 C42 162 42 162 43.5 164.5625 C44.82031104 173.63963842 38.5556951 181.96276528 33.546875 189.05859375 C16.50854024 210.44256439 -14.45026585 217.52585301 -40 222 C-39.7834375 222.53625 -39.566875 223.0725 -39.34375 223.625 C-35.67489304 233.95215293 -35.09576976 245.94836239 -39.84375 256.00390625 C-41.32853087 258.56715971 -42.97890955 260.83454595 -45 263 C-43.94890403 265.97810526 -42.78766025 268.31187401 -41 270.9375 C-37.41926443 276.42050134 -36.67626862 281.42350444 -36.75 287.875 C-36.73839844 288.87853516 -36.73839844 288.87853516 -36.7265625 289.90234375 C-36.74578174 294.8897355 -37.73553815 299.1838695 -39 304 C-27.420911 304.04643196 -15.84184431 304.08192433 -4.26268101 304.10362434 C1.11454505 304.11404159 6.4917072 304.12816314 11.86889648 304.15087891 C17.06251208 304.17268075 22.25606636 304.1845841 27.4497242 304.18975449 C29.42675809 304.19343708 31.40378879 304.20062816 33.38079643 304.21146011 C36.15945445 304.22607264 38.93786221 304.22797388 41.71655273 304.22705078 C42.52576172 304.23424133 43.3349707 304.24143188 44.16870117 304.24884033 C53.27422758 304.21631357 61.10070575 302.93217542 67.74609375 296.2421875 C71.34628954 292.29358566 74.30039434 288.19965355 76.95703125 283.56640625 C78 282 78 282 80 281 C86.6 280.67 93.2 280.34 100 280 C100 237.76 100 195.52 100 152 C90.1 151.505 90.1 151.505 80 151 C76.45519264 147.45519264 76.26438445 144.90542951 75.625 140.1875 C72.93297557 123.31843612 66.7813256 108.02290474 52.58203125 97.640625 C44.66888482 92.61260457 36.47205183 90.16094653 27.3828125 88.1875 C15.36488595 83.96873594 7.32759242 66.29372674 2.05224609 55.31787109 C-2.95411484 44.28993822 -6.64132714 32.61975642 -10 21 C-12.91010043 21 -13.74568403 22.37536543 -15.8125 24.375 Z M-128 134.0625 C-131.4271582 139.0961386 -131.6576866 142.97892552 -131 149 C-128.65207342 153.8764629 -125.71239146 156.40337614 -121 159 C-117.68593801 159.82578545 -114.57739147 160.13255841 -111.16894531 160.16113281 C-110.2373761 160.17074036 -109.30580688 160.1803479 -108.3460083 160.19024658 C-107.35010681 160.19449646 -106.35420532 160.19874634 -105.328125 160.203125 C-103.77263947 160.21167511 -103.77263947 160.21167511 -102.18572998 160.22039795 C-99.99362198 160.22983053 -97.8014999 160.236375 -95.609375 160.24023438 C-92.27578645 160.24992504 -88.94281862 160.28095943 -85.609375 160.3125 C-83.47396197 160.31903228 -81.33854456 160.32428186 -79.203125 160.328125 C-78.21532043 160.3404718 -77.22751587 160.3528186 -76.20977783 160.36553955 C-69.74076328 160.34497759 -62.44126683 160.0765916 -57.37579346 155.5479126 C-53.32066628 150.8012496 -52.64400686 147.60380398 -52.72265625 141.5390625 C-53.13376444 137.77539598 -54.4828636 135.78209813 -57 133 C-62.1563504 128.94074543 -66.38902046 127.89287341 -72.83105469 127.83886719 C-73.7626239 127.82925964 -74.69419312 127.8196521 -75.6539917 127.80975342 C-76.64989319 127.80550354 -77.64579468 127.80125366 -78.671875 127.796875 C-79.70886536 127.79117493 -80.74585571 127.78547485 -81.81427002 127.77960205 C-84.00637802 127.77016947 -86.1985001 127.763625 -88.390625 127.75976562 C-91.72421355 127.75007496 -95.05718138 127.71904057 -98.390625 127.6875 C-100.52603803 127.68096772 -102.66145544 127.67571814 -104.796875 127.671875 C-105.78467957 127.6595282 -106.77248413 127.6471814 -107.79022217 127.63446045 C-115.16987949 127.65791692 -122.92070059 128.1170089 -128 134.0625 Z M116 144 C116 191.52 116 239.04 116 288 C126.56 288 137.12 288 148 288 C148 240.48 148 192.96 148 144 C137.44 144 126.88 144 116 144 Z M-128 182.0625 C-131.4271582 187.0961386 -131.6576866 190.97892552 -131 197 C-128.65207342 201.8764629 -125.71239146 204.40337614 -121 207 C-117.68593801 207.82578545 -114.57739147 208.13255841 -111.16894531 208.16113281 C-110.2373761 208.17074036 -109.30580688 208.1803479 -108.3460083 208.19024658 C-107.35010681 208.19449646 -106.35420532 208.19874634 -105.328125 208.203125 C-103.77263947 208.21167511 -103.77263947 208.21167511 -102.18572998 208.22039795 C-99.99362198 208.22983053 -97.8014999 208.236375 -95.609375 208.24023438 C-92.27578645 208.24992504 -88.94281862 208.28095943 -85.609375 208.3125 C-83.47396197 208.31903228 -81.33854456 208.32428186 -79.203125 208.328125 C-78.21532043 208.3404718 -77.22751587 208.3528186 -76.20977783 208.36553955 C-69.74076328 208.34497759 -62.44126683 208.0765916 -57.37579346 203.5479126 C-53.32066628 198.8012496 -52.64400686 195.60380398 -52.72265625 189.5390625 C-53.13376444 185.77539598 -54.4828636 183.78209813 -57 181 C-62.1563504 176.94074543 -66.38902046 175.89287341 -72.83105469 175.83886719 C-73.7626239 175.82925964 -74.69419312 175.8196521 -75.6539917 175.80975342 C-76.64989319 175.80550354 -77.64579468 175.80125366 -78.671875 175.796875 C-79.70886536 175.79117493 -80.74585571 175.78547485 -81.81427002 175.77960205 C-84.00637802 175.77016947 -86.1985001 175.763625 -88.390625 175.75976562 C-91.72421355 175.75007496 -95.05718138 175.71904057 -98.390625 175.6875 C-100.52603803 175.68096772 -102.66145544 175.67571814 -104.796875 175.671875 C-105.78467957 175.6595282 -106.77248413 175.6471814 -107.79022217 175.63446045 C-115.16987949 175.65791692 -122.92070059 176.1170089 -128 182.0625 Z M-128 230.0625 C-131.4271582 235.0961386 -131.6576866 238.97892552 -131 245 C-128.65207342 249.8764629 -125.71239146 252.40337614 -121 255 C-117.68593801 255.82578545 -114.57739147 256.13255841 -111.16894531 256.16113281 C-110.2373761 256.17074036 -109.30580688 256.1803479 -108.3460083 256.19024658 C-107.35010681 256.19449646 -106.35420532 256.19874634 -105.328125 256.203125 C-103.77263947 256.21167511 -103.77263947 256.21167511 -102.18572998 256.22039795 C-99.99362198 256.22983053 -97.8014999 256.236375 -95.609375 256.24023438 C-92.27578645 256.24992504 -88.94281862 256.28095943 -85.609375 256.3125 C-83.47396197 256.31903228 -81.33854456 256.32428186 -79.203125 256.328125 C-78.21532043 256.3404718 -77.22751587 256.3528186 -76.20977783 256.36553955 C-69.74076328 256.34497759 -62.44126683 256.0765916 -57.37579346 251.5479126 C-53.32066628 246.8012496 -52.64400686 243.60380398 -52.72265625 237.5390625 C-53.13376444 233.77539598 -54.4828636 231.78209813 -57 229 C-62.1563504 224.94074543 -66.38902046 223.89287341 -72.83105469 223.83886719 C-73.7626239 223.82925964 -74.69419312 223.8196521 -75.6539917 223.80975342 C-76.64989319 223.80550354 -77.64579468 223.80125366 -78.671875 223.796875 C-79.70886536 223.79117493 -80.74585571 223.78547485 -81.81427002 223.77960205 C-84.00637802 223.77016947 -86.1985001 223.763625 -88.390625 223.75976562 C-91.72421355 223.75007496 -95.05718138 223.71904057 -98.390625 223.6875 C-100.52603803 223.68096772 -102.66145544 223.67571814 -104.796875 223.671875 C-105.78467957 223.6595282 -106.77248413 223.6471814 -107.79022217 223.63446045 C-115.16987949 223.65791692 -122.92070059 224.1170089 -128 230.0625 Z M-110.60449219 276.45239258 C-114.69496214 281.17189037 -115.35590438 284.40303979 -115.27734375 290.4609375 C-114.86623556 294.22460402 -113.5171364 296.21790187 -111 299 C-103.45567846 304.93914675 -95.62897867 304.2155471 -86.4453125 304.24023438 C-84.27043958 304.24990908 -82.09652541 304.28095475 -79.921875 304.3125 C-67.85938223 304.68633223 -67.85938223 304.68633223 -57.39550781 299.54760742 C-53.30503786 294.82810963 -52.64409562 291.59696021 -52.72265625 285.5390625 C-53.13376444 281.77539598 -54.4828636 279.78209813 -57 277 C-64.54432154 271.06085325 -72.37102133 271.7844529 -81.5546875 271.75976562 C-83.72956042 271.75009092 -85.90347459 271.71904525 -88.078125 271.6875 C-100.14061777 271.31366777 -100.14061777 271.31366777 -110.60449219 276.45239258 Z " fill="#2563eb" transform="translate(252,176)"/>
<path d="M0 0 C3.87464011 3.44721701 6.56132953 7.18266774 9.1015625 11.65625 C9.46470551 12.2810022 9.82784851 12.90575439 10.20199585 13.54943848 C11.35037852 15.52879688 12.48788355 17.51415221 13.625 19.5 C14.39510598 20.83245189 15.16593323 22.1644872 15.9375 23.49609375 C17.35560322 25.94469322 18.76892992 28.39593044 20.17822266 30.84960938 C20.77940918 31.88923828 21.3805957 32.92886719 22 34 C22.43111084 34.95060303 22.86222168 35.90120605 23.30639648 36.88061523 C24.88663128 39.32917335 24.88663128 39.32917335 28.12280273 39.59594727 C30.00914429 39.58132446 30.00914429 39.58132446 31.93359375 39.56640625 C32.60793961 39.57204086 33.28228546 39.57767548 33.97706604 39.58348083 C36.13125057 39.59994068 38.2833866 39.58438993 40.4375 39.5625 C42.58785326 39.54589031 44.73684777 39.53683339 46.88722229 39.55223083 C48.84071227 39.56576285 50.79433882 39.55032735 52.74780273 39.53344727 C56 40 56 40 58.40063477 41.79785156 C60.31794733 44.43777819 60.71749118 46.52682385 60.54296875 49.77880859 C59.43137368 54.32615211 56.37476435 57.71904456 53.5 61.3125 C51.65464348 63.7023555 49.81130504 66.09332142 47.98022461 68.49414062 C46.60532506 70.23399625 45.16513986 71.92342852 43.67797852 73.56835938 C40.42472343 77.39843771 38.09721904 80.18866273 37.82177734 85.32055664 C38.29410248 88.93285672 39.0322177 92.34691909 39.9375 95.875 C40.33678711 97.669375 40.33678711 97.669375 40.74414062 99.5 C41.24080498 101.71455327 41.75727431 103.9248329 42.30053711 106.12841797 C45.86060236 120.74394587 45.86060236 120.74394587 42.5 126.625 C39.03556154 128.53044115 35.83603872 128.48384856 32 128 C29.45804846 126.90492856 27.39615748 125.86742874 25.0859375 124.421875 C24.46780182 124.05402893 23.84966614 123.68618286 23.21279907 123.30718994 C21.25659882 122.13760516 19.31614615 120.94436557 17.375 119.75 C16.06604974 118.96326838 14.75615997 118.17809768 13.4453125 117.39453125 C3.7252017 111.55665364 3.7252017 111.55665364 -0.10302734 108.61816406 C-2.8169809 106.69216996 -2.8169809 106.69216996 -5.42456055 107.47802734 C-6.27445557 107.98027832 -7.12435059 108.4825293 -8 109 C-9.11479736 109.65049316 -10.22959473 110.30098633 -11.37817383 110.97119141 C-12.65610267 111.76199948 -13.93230205 112.55560711 -15.20703125 113.3515625 C-16.61211488 114.2117798 -18.01773079 115.07112818 -19.42382812 115.9296875 C-21.62102805 117.27554301 -23.81449045 118.62624445 -25.99926758 119.9921875 C-28.12139451 121.31591648 -30.25635826 122.61645742 -32.39453125 123.9140625 C-33.03751663 124.3233902 -33.68050201 124.7327179 -34.3429718 125.15444946 C-39.11416381 128.01399946 -42.44348189 128.51522268 -48 128 C-50.5 126.625 -50.5 126.625 -52 124 C-53.23762414 114.80032719 -50.43045993 105.55731113 -48.41259766 96.64526367 C-47.96836624 94.66574373 -47.54201492 92.68297879 -47.1171875 90.69921875 C-46.72442627 88.94871216 -46.72442627 88.94871216 -46.32373047 87.1628418 C-45.7539756 81.59634533 -48.2381109 78.39193289 -51.5546875 74.12890625 C-52.25207031 73.22462891 -52.94945312 72.32035156 -53.66796875 71.38867188 C-54.39628906 70.45603516 -55.12460937 69.52339844 -55.875 68.5625 C-68.57003654 52.19975613 -68.57003654 52.19975613 -68.5 47.875 C-68 44 -68 44 -66.37963867 41.73217773 C-63.11000173 39.35215577 -61.38513807 39.85622267 -57.42578125 40.41015625 C-43.82961884 42.12469895 -43.82961884 42.12469895 -31.4161377 37.76531982 C-24.93716353 31.02658195 -21.26454746 21.8998952 -17.58154297 13.44140625 C-13.8901902 5.40909557 -10.1553299 -2.45191749 0 0 Z M-5 26 C-6.3776111 28.00416365 -7.6212296 29.99300778 -8.84375 32.08984375 C-9.39838928 33.01852013 -9.39838928 33.01852013 -9.9642334 33.96595764 C-11.14981067 35.95241256 -12.32566065 37.94438382 -13.5 39.9375 C-14.67506983 41.92657798 -15.85223582 43.9142744 -17.0357666 45.89833069 C-17.77324531 47.13505774 -18.50573307 48.37477692 -19.23278809 49.61766052 C-21.7753035 53.88765175 -21.7753035 53.88765175 -24 55 C-25.4465242 55.15067214 -26.8987934 55.24861036 -28.3515625 55.31640625 C-29.20234375 55.35830078 -30.053125 55.40019531 -30.9296875 55.44335938 C-32.26386719 55.50233398 -32.26386719 55.50233398 -33.625 55.5625 C-34.97078125 55.62727539 -34.97078125 55.62727539 -36.34375 55.69335938 C-38.56234283 55.79956861 -40.7810488 55.90161194 -43 56 C-42.62117676 56.57766113 -42.24235352 57.15532227 -41.85205078 57.75048828 C-40.85679273 59.26835565 -39.86189062 60.78645642 -38.8671875 62.3046875 C-37.0146401 65.04998341 -37.0146401 65.04998341 -34.8203125 67.6953125 C-30.74503375 72.78578525 -27.94728365 76.43583046 -28.51953125 83.09765625 C-28.67808594 84.05542969 -28.83664062 85.01320312 -29 86 C-29.10876465 86.6585498 -29.2175293 87.31709961 -29.32958984 87.99560547 C-30.12186417 92.68540899 -31.02952712 97.34404082 -32 102 C-28.6455244 100.73880836 -25.67160482 99.29970536 -22.63671875 97.3984375 C-21.83169922 96.90859375 -21.02667969 96.41875 -20.19726562 95.9140625 C-18.52908755 94.89108638 -16.86751755 93.85725259 -15.21289062 92.8125 C-11.03388275 90.29510561 -7.22299715 88.01982828 -2.15454102 88.40039062 C2.81784519 89.78420711 7.07011629 92.79996204 11.375 95.5625 C13.33687104 96.79977313 15.30281359 98.03062207 17.2734375 99.25390625 C18.13372559 99.80377197 18.99401367 100.3536377 19.88037109 100.92016602 C20.57984863 101.27651123 21.27932617 101.63285645 22 102 C22.66 101.67 23.32 101.34 24 101 C23.7834375 100.03320312 23.566875 99.06640625 23.34375 98.0703125 C23.06196644 96.75532255 22.7807471 95.44021162 22.5 94.125 C22.2215625 92.84882813 21.943125 91.57265625 21.65625 90.2578125 C21.41791577 88.84169878 21.20018033 87.42200882 21 86 C20.88785156 85.21278564 20.77570313 84.42557129 20.66015625 83.61450195 C20.06854181 75.90766737 23.26207896 71.74099595 28 65.9375 C29.31361065 64.2599837 30.62617269 62.58164556 31.9375 60.90234375 C32.52402344 60.17523193 33.11054688 59.44812012 33.71484375 58.69897461 C35.1005462 57.22212663 35.1005462 57.22212663 35 56 C34.44538086 55.9906543 33.89076172 55.98130859 33.31933594 55.97167969 C30.79533519 55.91784278 28.27316186 55.83422746 25.75 55.75 C24.87730469 55.73582031 24.00460937 55.72164062 23.10546875 55.70703125 C22.26113281 55.67480469 21.41679687 55.64257812 20.546875 55.609375 C19.77182617 55.58842773 18.99677734 55.56748047 18.19824219 55.54589844 C14.15706204 54.54233571 12.39873795 51.609198 10.20068359 48.25097656 C9.60594238 47.22456055 9.01120117 46.19814453 8.3984375 45.140625 C7.74359375 44.02558594 7.08875 42.91054687 6.4140625 41.76171875 C5.38723806 39.99615392 4.36293613 38.22915568 3.33984375 36.46142578 C2.34463606 34.74677374 1.34043171 33.03735329 0.3359375 31.328125 C-0.25654785 30.3062207 -0.8490332 29.28431641 -1.45947266 28.23144531 C-1.96784668 27.49506836 -2.4762207 26.75869141 -3 26 C-3.66 26 -4.32 26 -5 26 Z " fill="#FFEB3B" transform="translate(428,96)"/>
<path d="M0 0 C3.87464011 3.44721701 6.56132953 7.18266774 9.1015625 11.65625 C9.46470551 12.2810022 9.82784851 12.90575439 10.20199585 13.54943848 C11.35037852 15.52879688 12.48788355 17.51415221 13.625 19.5 C14.39510598 20.83245189 15.16593323 22.1644872 15.9375 23.49609375 C17.35560322 25.94469322 18.76892992 28.39593044 20.17822266 30.84960938 C20.77940918 31.88923828 21.3805957 32.92886719 22 34 C22.43111084 34.95060303 22.86222168 35.90120605 23.30639648 36.88061523 C24.88663128 39.32917335 24.88663128 39.32917335 28.12280273 39.59594727 C30.00914429 39.58132446 30.00914429 39.58132446 31.93359375 39.56640625 C32.60793961 39.57204086 33.28228546 39.57767548 33.97706604 39.58348083 C36.13125057 39.59994068 38.2833866 39.58438993 40.4375 39.5625 C42.58785326 39.54589031 44.73684777 39.53683339 46.88722229 39.55223083 C48.84071227 39.56576285 50.79433882 39.55032735 52.74780273 39.53344727 C56 40 56 40 58.40063477 41.79785156 C60.31794733 44.43777819 60.71749118 46.52682385 60.54296875 49.77880859 C59.43137368 54.32615211 56.37476435 57.71904456 53.5 61.3125 C51.65464348 63.7023555 49.81130504 66.09332142 47.98022461 68.49414062 C46.60532506 70.23399625 45.16513986 71.92342852 43.67797852 73.56835938 C40.42472343 77.39843771 38.09721904 80.18866273 37.82177734 85.32055664 C38.29410248 88.93285672 39.0322177 92.34691909 39.9375 95.875 C40.33678711 97.669375 40.33678711 97.669375 40.74414062 99.5 C41.24080498 101.71455327 41.75727431 103.9248329 42.30053711 106.12841797 C45.86060236 120.74394587 45.86060236 120.74394587 42.5 126.625 C39.03556154 128.53044115 35.83603872 128.48384856 32 128 C29.45804846 126.90492856 27.39615748 125.86742874 25.0859375 124.421875 C24.46780182 124.05402893 23.84966614 123.68618286 23.21279907 123.30718994 C21.25659882 122.13760516 19.31614615 120.94436557 17.375 119.75 C16.06604974 118.96326838 14.75615997 118.17809768 13.4453125 117.39453125 C3.7252017 111.55665364 3.7252017 111.55665364 -0.10302734 108.61816406 C-2.8169809 106.69216996 -2.8169809 106.69216996 -5.42456055 107.47802734 C-6.27445557 107.98027832 -7.12435059 108.4825293 -8 109 C-9.11479736 109.65049316 -10.22959473 110.30098633 -11.37817383 110.97119141 C-12.65610267 111.76199948 -13.93230205 112.55560711 -15.20703125 113.3515625 C-16.61211488 114.2117798 -18.01773079 115.07112818 -19.42382812 115.9296875 C-21.62102805 117.27554301 -23.81449045 118.62624445 -25.99926758 119.9921875 C-28.12139451 121.31591648 -30.25635826 122.61645742 -32.39453125 123.9140625 C-33.03751663 124.3233902 -33.68050201 124.7327179 -34.3429718 125.15444946 C-39.11416381 128.01399946 -42.44348189 128.51522268 -48 128 C-50.5 126.625 -50.5 126.625 -52 124 C-53.23762414 114.80032719 -50.43045993 105.55731113 -48.41259766 96.64526367 C-47.96836624 94.66574373 -47.54201492 92.68297879 -47.1171875 90.69921875 C-46.72442627 88.94871216 -46.72442627 88.94871216 -46.32373047 87.1628418 C-45.7539756 81.59634533 -48.2381109 78.39193289 -51.5546875 74.12890625 C-52.25207031 73.22462891 -52.94945312 72.32035156 -53.66796875 71.38867188 C-54.39628906 70.45603516 -55.12460937 69.52339844 -55.875 68.5625 C-68.57003654 52.19975613 -68.57003654 52.19975613 -68.5 47.875 C-68 44 -68 44 -66.37963867 41.73217773 C-63.11000173 39.35215577 -61.38513807 39.85622267 -57.42578125 40.41015625 C-43.82961884 42.12469895 -43.82961884 42.12469895 -31.4161377 37.76531982 C-24.93716353 31.02658195 -21.26454746 21.8998952 -17.58154297 13.44140625 C-13.8901902 5.40909557 -10.1553299 -2.45191749 0 0 Z M-5 26 C-6.3776111 28.00416365 -7.6212296 29.99300778 -8.84375 32.08984375 C-9.39838928 33.01852013 -9.39838928 33.01852013 -9.9642334 33.96595764 C-11.14981067 35.95241256 -12.32566065 37.94438382 -13.5 39.9375 C-14.67506983 41.92657798 -15.85223582 43.9142744 -17.0357666 45.89833069 C-17.77324531 47.13505774 -18.50573307 48.37477692 -19.23278809 49.61766052 C-21.7753035 53.88765175 -21.7753035 53.88765175 -24 55 C-25.4465242 55.15067214 -26.8987934 55.24861036 -28.3515625 55.31640625 C-29.20234375 55.35830078 -30.053125 55.40019531 -30.9296875 55.44335938 C-32.26386719 55.50233398 -32.26386719 55.50233398 -33.625 55.5625 C-34.97078125 55.62727539 -34.97078125 55.62727539 -36.34375 55.69335938 C-38.56234283 55.79956861 -40.7810488 55.90161194 -43 56 C-42.62117676 56.57766113 -42.24235352 57.15532227 -41.85205078 57.75048828 C-40.85679273 59.26835565 -39.86189062 60.78645642 -38.8671875 62.3046875 C-37.0146401 65.04998341 -37.0146401 65.04998341 -34.8203125 67.6953125 C-30.74503375 72.78578525 -27.94728365 76.43583046 -28.51953125 83.09765625 C-28.67808594 84.05542969 -28.83664063 85.01320312 -29 86 C-29.10876465 86.6585498 -29.2175293 87.31709961 -29.32958984 87.99560547 C-30.12186417 92.68540899 -31.02952712 97.34404082 -32 102 C-28.6455244 100.73880836 -25.67160482 99.29970536 -22.63671875 97.3984375 C-21.83169922 96.90859375 -21.02667969 96.41875 -20.19726562 95.9140625 C-18.52908755 94.89108638 -16.86751755 93.85725259 -15.21289062 92.8125 C-11.03388275 90.29510561 -7.22299715 88.01982828 -2.15454102 88.40039062 C2.81784519 89.78420711 7.07011629 92.79996204 11.375 95.5625 C13.33687104 96.79977313 15.30281359 98.03062207 17.2734375 99.25390625 C18.13372559 99.80377197 18.99401367 100.3536377 19.88037109 100.92016602 C20.57984863 101.27651123 21.27932617 101.63285645 22 102 C22.66 101.67 23.32 101.34 24 101 C23.7834375 100.03320312 23.566875 99.06640625 23.34375 98.0703125 C23.06196644 96.75532255 22.7807471 95.44021162 22.5 94.125 C22.2215625 92.84882813 21.943125 91.57265625 21.65625 90.2578125 C21.41791577 88.84169878 21.20018033 87.42200882 21 86 C20.88785156 85.21278564 20.77570313 84.42557129 20.66015625 83.61450195 C20.06854181 75.90766737 23.26207896 71.74099595 28 65.9375 C29.31361065 64.2599837 30.62617269 62.58164556 31.9375 60.90234375 C32.52402344 60.17523193 33.11054687 59.44812012 33.71484375 58.69897461 C35.1005462 57.22212663 35.1005462 57.22212663 35 56 C34.44538086 55.9906543 33.89076172 55.98130859 33.31933594 55.97167969 C30.79533519 55.91784278 28.27316186 55.83422746 25.75 55.75 C24.87730469 55.73582031 24.00460938 55.72164062 23.10546875 55.70703125 C22.26113281 55.67480469 21.41679688 55.64257812 20.546875 55.609375 C19.77182617 55.58842773 18.99677734 55.56748047 18.19824219 55.54589844 C14.15706204 54.54233571 12.39873795 51.609198 10.20068359 48.25097656 C9.60594238 47.22456055 9.01120117 46.19814453 8.3984375 45.140625 C7.74359375 44.02558594 7.08875 42.91054687 6.4140625 41.76171875 C5.38723806 39.99615392 4.36293613 38.22915568 3.33984375 36.46142578 C2.34463606 34.74677374 1.34043171 33.03735329 0.3359375 31.328125 C-0.25654785 30.3062207 -0.8490332 29.28431641 -1.45947266 28.23144531 C-1.96784668 27.49506836 -2.4762207 26.75869141 -3 26 C-3.66 26 -4.32 26 -5 26 Z " fill="#FFEB3B" transform="translate(92,96)"/>
<path d="M0 0 C3.87464011 3.44721701 6.56132953 7.18266774 9.1015625 11.65625 C9.46470551 12.2810022 9.82784851 12.90575439 10.20199585 13.54943848 C11.35037852 15.52879688 12.48788355 17.51415221 13.625 19.5 C14.39510598 20.83245189 15.16593323 22.1644872 15.9375 23.49609375 C17.35560322 25.94469322 18.76892992 28.39593044 20.17822266 30.84960938 C20.77940918 31.88923828 21.3805957 32.92886719 22 34 C22.43111084 34.95060303 22.86222168 35.90120605 23.30639648 36.88061523 C24.88663128 39.32917335 24.88663128 39.32917335 28.12280273 39.59594727 C30.00914429 39.58132446 30.00914429 39.58132446 31.93359375 39.56640625 C32.60793961 39.57204086 33.28228546 39.57767548 33.97706604 39.58348083 C36.13125057 39.59994068 38.2833866 39.58438993 40.4375 39.5625 C42.58785326 39.54589031 44.73684777 39.53683339 46.88722229 39.55223083 C48.84071227 39.56576285 50.79433882 39.55032735 52.74780273 39.53344727 C56 40 56 40 58.40063477 41.79785156 C60.31794733 44.43777819 60.71749118 46.52682385 60.54296875 49.77880859 C59.43137368 54.32615211 56.37476435 57.71904456 53.5 61.3125 C51.65464348 63.7023555 49.81130504 66.09332142 47.98022461 68.49414062 C46.60532506 70.23399625 45.16513986 71.92342852 43.67797852 73.56835938 C40.42472343 77.39843771 38.09721904 80.18866273 37.82177734 85.32055664 C38.29410248 88.93285672 39.0322177 92.34691909 39.9375 95.875 C40.33678711 97.669375 40.33678711 97.669375 40.74414062 99.5 C41.24080498 101.71455327 41.75727431 103.9248329 42.30053711 106.12841797 C45.86060236 120.74394587 45.86060236 120.74394587 42.5 126.625 C39.03556154 128.53044115 35.83603872 128.48384856 32 128 C29.45804846 126.90492856 27.39615748 125.86742874 25.0859375 124.421875 C24.46780182 124.05402893 23.84966614 123.68618286 23.21279907 123.30718994 C21.25659882 122.13760516 19.31614615 120.94436557 17.375 119.75 C16.06604974 118.96326838 14.75615997 118.17809768 13.4453125 117.39453125 C3.7252017 111.55665364 3.7252017 111.55665364 -0.10302734 108.61816406 C-2.8169809 106.69216996 -2.8169809 106.69216996 -5.42456055 107.47802734 C-6.27445557 107.98027832 -7.12435059 108.4825293 -8 109 C-9.11479736 109.65049316 -10.22959473 110.30098633 -11.37817383 110.97119141 C-12.65610267 111.76199948 -13.93230205 112.55560711 -15.20703125 113.3515625 C-16.61211488 114.2117798 -18.01773079 115.07112818 -19.42382812 115.9296875 C-21.62102805 117.27554301 -23.81449045 118.62624445 -25.99926758 119.9921875 C-28.12139451 121.31591648 -30.25635826 122.61645742 -32.39453125 123.9140625 C-33.03751663 124.3233902 -33.68050201 124.7327179 -34.3429718 125.15444946 C-39.11416381 128.01399946 -42.44348189 128.51522268 -48 128 C-50.5 126.625 -50.5 126.625 -52 124 C-53.23762414 114.80032719 -50.43045993 105.55731113 -48.41259766 96.64526367 C-47.96836624 94.66574373 -47.54201492 92.68297879 -47.1171875 90.69921875 C-46.72442627 88.94871216 -46.72442627 88.94871216 -46.32373047 87.1628418 C-45.7539756 81.59634533 -48.2381109 78.39193289 -51.5546875 74.12890625 C-52.25207031 73.22462891 -52.94945312 72.32035156 -53.66796875 71.38867188 C-54.39628906 70.45603516 -55.12460938 69.52339844 -55.875 68.5625 C-68.57003654 52.19975613 -68.57003654 52.19975613 -68.5 47.875 C-68 44 -68 44 -66.37963867 41.73217773 C-63.11000173 39.35215577 -61.38513807 39.85622267 -57.42578125 40.41015625 C-43.82961884 42.12469895 -43.82961884 42.12469895 -31.4161377 37.76531982 C-24.93716353 31.02658195 -21.26454746 21.8998952 -17.58154297 13.44140625 C-13.8901902 5.40909557 -10.1553299 -2.45191749 0 0 Z M-5 26 C-6.3776111 28.00416365 -7.6212296 29.99300778 -8.84375 32.08984375 C-9.39838928 33.01852013 -9.39838928 33.01852013 -9.9642334 33.96595764 C-11.14981067 35.95241256 -12.32566065 37.94438382 -13.5 39.9375 C-14.67506983 41.92657798 -15.85223582 43.9142744 -17.0357666 45.89833069 C-17.77324531 47.13505774 -18.50573307 48.37477692 -19.23278809 49.61766052 C-21.7753035 53.88765175 -21.7753035 53.88765175 -24 55 C-25.4465242 55.15067214 -26.8987934 55.24861036 -28.3515625 55.31640625 C-29.20234375 55.35830078 -30.053125 55.40019531 -30.9296875 55.44335938 C-32.26386719 55.50233398 -32.26386719 55.50233398 -33.625 55.5625 C-34.97078125 55.62727539 -34.97078125 55.62727539 -36.34375 55.69335938 C-38.56234283 55.79956861 -40.7810488 55.90161194 -43 56 C-42.62117676 56.57766113 -42.24235352 57.15532227 -41.85205078 57.75048828 C-40.85679273 59.26835565 -39.86189062 60.78645642 -38.8671875 62.3046875 C-37.0146401 65.04998341 -37.0146401 65.04998341 -34.8203125 67.6953125 C-30.74503375 72.78578525 -27.94728365 76.43583046 -28.51953125 83.09765625 C-28.67808594 84.05542969 -28.83664063 85.01320312 -29 86 C-29.10876465 86.6585498 -29.2175293 87.31709961 -29.32958984 87.99560547 C-30.12186417 92.68540899 -31.02952712 97.34404082 -32 102 C-28.6455244 100.73880836 -25.67160482 99.29970536 -22.63671875 97.3984375 C-21.83169922 96.90859375 -21.02667969 96.41875 -20.19726562 95.9140625 C-18.52908755 94.89108638 -16.86751755 93.85725259 -15.21289062 92.8125 C-11.03388275 90.29510561 -7.22299715 88.01982828 -2.15454102 88.40039062 C2.81784519 89.78420711 7.07011629 92.79996204 11.375 95.5625 C13.33687104 96.79977313 15.30281359 98.03062207 17.2734375 99.25390625 C18.13372559 99.80377197 18.99401367 100.3536377 19.88037109 100.92016602 C20.57984863 101.27651123 21.27932617 101.63285645 22 102 C22.66 101.67 23.32 101.34 24 101 C23.7834375 100.03320312 23.566875 99.06640625 23.34375 98.0703125 C23.06196644 96.75532255 22.7807471 95.44021162 22.5 94.125 C22.2215625 92.84882812 21.943125 91.57265625 21.65625 90.2578125 C21.41791577 88.84169878 21.20018033 87.42200882 21 86 C20.88785156 85.21278564 20.77570313 84.42557129 20.66015625 83.61450195 C20.06854181 75.90766737 23.26207896 71.74099595 28 65.9375 C29.31361065 64.2599837 30.62617269 62.58164556 31.9375 60.90234375 C32.52402344 60.17523193 33.11054688 59.44812012 33.71484375 58.69897461 C35.1005462 57.22212663 35.1005462 57.22212663 35 56 C34.44538086 55.9906543 33.89076172 55.98130859 33.31933594 55.97167969 C30.79533519 55.91784278 28.27316186 55.83422746 25.75 55.75 C24.87730469 55.73582031 24.00460937 55.72164062 23.10546875 55.70703125 C22.26113281 55.67480469 21.41679687 55.64257812 20.546875 55.609375 C19.77182617 55.58842773 18.99677734 55.56748047 18.19824219 55.54589844 C14.15706204 54.54233571 12.39873795 51.609198 10.20068359 48.25097656 C9.60594238 47.22456055 9.01120117 46.19814453 8.3984375 45.140625 C7.74359375 44.02558594 7.08875 42.91054688 6.4140625 41.76171875 C5.38723806 39.99615392 4.36293613 38.22915568 3.33984375 36.46142578 C2.34463606 34.74677374 1.34043171 33.03735329 0.3359375 31.328125 C-0.25654785 30.3062207 -0.8490332 29.28431641 -1.45947266 28.23144531 C-1.96784668 27.49506836 -2.4762207 26.75869141 -3 26 C-3.66 26 -4.32 26 -5 26 Z " fill="#FFEB3B" transform="translate(260,16)"/>
</svg>
